<?xml version="1.0" encoding="utf-8"?>
<!-- Generator: Adobe Illustrator 16.0.0, SVG Export Plug-In . SVG Version: 6.00 Build 0)  -->
<!DOCTYPE svg PUBLIC "-//W3C//DTD SVG 1.1//EN" "http://www.w3.org/Graphics/SVG/1.1/DTD/svg11.dtd">
<svg version="1.1" id="Layer_1" xmlns="http://www.w3.org/2000/svg" xmlns:xlink="http://www.w3.org/1999/xlink" x="0px" y="0px"
	 width="612px" height="577.399px" viewBox="0 107.3 612 577.399" enable-background="new 0 107.3 612 577.399"
	 xml:space="preserve">
<line fill="none" stroke="#D86C32" stroke-width="5" stroke-miterlimit="10" x1="17.733" y1="681.889" x2="594.268" y2="681.889"/>
<rect x="275.076" y="398.812" fill="none" stroke="#D86C32" stroke-width="7" stroke-miterlimit="10" width="278.536" height="281.563"/>
<rect x="55.577" y="217.806" fill="none" stroke="#D86C32" stroke-width="7" stroke-miterlimit="10" width="178.41" height="462.569"/>
<rect x="82.609" y="259.111" fill="none" stroke="#D86C32" stroke-width="5" stroke-miterlimit="10" width="22.707" height="22.707"/>
<rect x="182.086" y="259.111" fill="none" stroke="#D86C32" stroke-width="5" stroke-miterlimit="10" width="22.707" height="22.707"/>
<rect x="133.429" y="259.111" fill="none" stroke="#D86C32" stroke-width="5" stroke-miterlimit="10" width="22.707" height="22.707"/>
<rect x="82.609" y="316.418" fill="none" stroke="#D86C32" stroke-width="5" stroke-miterlimit="10" width="22.707" height="22.707"/>
<rect x="182.086" y="316.418" fill="none" stroke="#D86C32" stroke-width="5" stroke-miterlimit="10" width="22.707" height="22.707"/>
<rect x="133.429" y="316.418" fill="none" stroke="#D86C32" stroke-width="5" stroke-miterlimit="10" width="22.707" height="22.707"/>
<rect x="82.609" y="371.779" fill="none" stroke="#D86C32" stroke-width="5" stroke-miterlimit="10" width="22.707" height="22.707"/>
<rect x="182.086" y="371.779" fill="none" stroke="#D86C32" stroke-width="5" stroke-miterlimit="10" width="22.707" height="22.707"/>
<rect x="133.429" y="371.779" fill="none" stroke="#D86C32" stroke-width="5" stroke-miterlimit="10" width="22.707" height="22.707"/>
<rect x="82.609" y="429.087" fill="none" stroke="#D86C32" stroke-width="5" stroke-miterlimit="10" width="22.707" height="22.707"/>
<rect x="182.086" y="429.087" fill="none" stroke="#D86C32" stroke-width="5" stroke-miterlimit="10" width="22.707" height="22.707"/>
<rect x="133.429" y="429.087" fill="none" stroke="#D86C32" stroke-width="5" stroke-miterlimit="10" width="22.707" height="22.707"/>
<rect x="82.609" y="485.962" fill="none" stroke="#D86C32" stroke-width="5" stroke-miterlimit="10" width="22.707" height="22.707"/>
<rect x="182.086" y="485.962" fill="none" stroke="#D86C32" stroke-width="5" stroke-miterlimit="10" width="22.707" height="22.707"/>
<rect x="133.429" y="485.962" fill="none" stroke="#D86C32" stroke-width="5" stroke-miterlimit="10" width="22.707" height="22.707"/>
<rect x="82.609" y="543.27" fill="none" stroke="#D86C32" stroke-width="5" stroke-miterlimit="10" width="22.707" height="22.706"/>
<rect x="182.086" y="543.27" fill="none" stroke="#D86C32" stroke-width="5" stroke-miterlimit="10" width="22.707" height="22.706"/>
<rect x="133.429" y="543.27" fill="none" stroke="#D86C32" stroke-width="5" stroke-miterlimit="10" width="22.707" height="22.706"/>
<rect x="82.609" y="599.495" fill="none" stroke="#D86C32" stroke-width="5" stroke-miterlimit="10" width="22.707" height="22.707"/>
<rect x="182.086" y="599.495" fill="none" stroke="#D86C32" stroke-width="5" stroke-miterlimit="10" width="22.707" height="22.707"/>
<rect x="133.429" y="599.495" fill="none" stroke="#D86C32" stroke-width="5" stroke-miterlimit="10" width="22.707" height="22.707"/>
<rect x="316.812" y="440.332" fill="none" stroke="#D86C32" stroke-width="4" stroke-miterlimit="10" width="22.707" height="22.707"/>
<rect x="435.753" y="440.332" fill="none" stroke="#D86C32" stroke-width="4" stroke-miterlimit="10" width="22.706" height="22.707"/>
<rect x="378.445" y="440.332" fill="none" stroke="#D86C32" stroke-width="4" stroke-miterlimit="10" width="22.707" height="22.707"/>
<rect x="316.812" y="497.64" fill="none" stroke="#D86C32" stroke-width="4" stroke-miterlimit="10" width="22.707" height="22.707"/>
<rect x="435.753" y="497.64" fill="none" stroke="#D86C32" stroke-width="4" stroke-miterlimit="10" width="22.706" height="22.707"/>
<rect x="395.097" y="628.041" fill="none" stroke="#D86C32" stroke-width="4" stroke-miterlimit="10" width="41.737" height="51.252"/>
<rect x="378.445" y="497.64" fill="none" stroke="#D86C32" stroke-width="4" stroke-miterlimit="10" width="22.707" height="22.707"/>
<rect x="316.812" y="553.001" fill="none" stroke="#D86C32" stroke-width="4" stroke-miterlimit="10" width="22.707" height="22.706"/>
<rect x="435.753" y="553.001" fill="none" stroke="#D86C32" stroke-width="4" stroke-miterlimit="10" width="22.706" height="22.706"/>
<rect x="378.445" y="553.001" fill="none" stroke="#D86C32" stroke-width="4" stroke-miterlimit="10" width="22.707" height="22.706"/>
<rect x="494.574" y="440.332" fill="none" stroke="#D86C32" stroke-width="4" stroke-miterlimit="10" width="22.706" height="22.707"/>
<rect x="494.574" y="497.64" fill="none" stroke="#D86C32" stroke-width="4" stroke-miterlimit="10" width="22.706" height="22.707"/>
<rect x="494.574" y="553.001" fill="none" stroke="#D86C32" stroke-width="4" stroke-miterlimit="10" width="22.706" height="22.706"/>
<path fill="#D86C32" d="M308.162,376.753v-4.974h11.029l14.273-6.487V107.3H140.565v110.506h8.65v-19.03h17.733v19.03h4.325v-19.03
	h22.058v19.03h4.325v-19.03h23.355v19.03h4.325v-19.03h25.951v23.788h-14.921v4.325h14.921v22.707h-14.921v4.325h14.921v25.734
	h-17.3v4.325h17.3v25.95h-17.3v4.325h17.3v24.869h-14.921v4.325h14.921v24.004h-14.921v4.325h14.921v22.058h-14.921v4.325h14.921
	v22.274h-14.921v4.325h14.921v22.058h-14.921v4.325h14.921v17.949h-14.921v4.325h14.921v21.842h-14.921v4.325h14.921v18.598h-14.921
	v4.325h14.921v18.598h-14.921v4.325h14.921v18.382h-12.759v4.325h12.759v17.732h-12.759v4.325h12.759v18.382h-12.759v4.325h12.759
	v17.949h-12.759v4.325h12.759v17.732h-12.759v4.325h12.759v18.814h-17.3v4.325h-93.422v4.324h192.898v-4.324h-58.388v-4.325h-19.463
	v-18.814h19.463v-4.325h-19.463v-17.732h15.787v-4.325h-15.787v-17.949h19.463v-4.325h-19.463v-18.382h19.463v-4.325h-19.463
	v-17.732h15.787v-4.325h-15.787v-18.382h19.463v-4.325h-19.463v-18.598h19.463v-4.325h-19.463v-18.598h19.463v-4.325h-19.463
	v-21.842h19.463v-4.325h-19.463v-17.949h19.463v-4.325h-19.463v-22.058h19.463v-4.325h-19.463v-22.274h6.055l9.515-4.325h-15.354
	v-22.058h21.625v19.247l4.325-1.946v-17.301h22.274v6.92L308.162,376.753z M308.162,115.951h16.652v24.437h-16.652V115.951z
	 M308.162,144.712h16.652v21.842h-16.652V144.712z M308.162,170.879h16.652v23.572h-16.652V170.879z M308.162,198.776h16.652v23.788
	h-16.652V198.776z M308.162,226.889h16.652v22.707h-16.652V226.889z M308.162,253.921h16.652v25.734h-16.652V253.921z
	 M308.162,283.98h16.652v25.95h-16.652V283.98z M308.162,314.256h16.652v24.869h-16.652V314.256z M308.162,343.45h16.652v24.004
	h-16.652V343.45z M166.948,194.451h-17.733v-23.572h17.733V194.451z M166.948,166.554h-17.733v-21.842h17.733V166.554z
	 M166.948,140.387h-17.733v-24.437h17.733V140.387z M193.332,194.451h-22.058v-23.572h22.058V194.451z M193.332,166.554h-22.058
	v-21.842h22.058V166.554z M193.332,140.387h-22.058v-24.437h22.058V140.387z M221.012,194.451h-23.355v-23.572h23.355V194.451z
	 M221.012,166.554h-23.355v-21.842h23.355V166.554z M221.012,140.387h-23.355v-24.437h23.355V140.387z M251.288,194.451h-25.951
	v-23.572h25.951V194.451z M251.288,166.554h-25.951v-21.842h25.951V166.554z M251.288,140.387h-25.951v-24.437h25.951V140.387z
	 M303.837,339.125h-22.274v-24.869h22.274V339.125z M303.837,309.931h-22.274v-25.95h22.274V309.931z M303.837,279.655h-22.274
	v-25.734h22.274V279.655z M303.837,249.596h-22.274v-22.707h22.274V249.596z M303.837,222.564h-22.274v-23.788h22.274V222.564z
	 M303.837,194.451h-22.274v-23.572h22.274V194.451z M303.837,166.554h-22.274v-21.842h22.274V166.554z M277.238,367.455h-21.625
	V343.45h21.625V367.455z M277.238,339.125h-21.625v-24.869h21.625V339.125z M277.238,309.931h-21.625v-25.95h21.625V309.931z
	 M277.238,279.655h-21.625v-25.734h21.625V279.655z M277.238,249.596h-21.625v-22.707h21.625V249.596z M277.238,222.564h-21.625
	v-23.788h21.625V222.564z M277.238,194.451h-21.625v-23.572h21.625V194.451z M277.238,166.554h-21.625v-21.842h21.625V166.554z
	 M277.238,116.599v23.788h-21.625v-24.437h48.225v24.437h-22.274v-23.788H277.238z M281.563,367.455V343.45h22.274v24.004H281.563z"
	/>
<path fill="none" stroke="#D86C32" stroke-width="4" stroke-miterlimit="10" d="M443.321,627.366h-54.929
	c0-15.138,12.327-18.382,27.465-18.382S443.321,612.229,443.321,627.366z"/>
<rect x="317.245" y="606.416" fill="none" stroke="#D86C32" stroke-width="5" stroke-miterlimit="10" width="41.737" height="55.577"/>
<rect x="475.76" y="606.416" fill="none" stroke="#D86C32" stroke-width="5" stroke-miterlimit="10" width="41.737" height="55.577"/>
<polygon fill="none" stroke="#D86C32" stroke-width="7" stroke-miterlimit="10" points="574.155,399.46 258.856,399.46 
	261.668,398.162 270.967,393.837 277.238,391.026 281.563,389.08 303.837,378.7 308.162,376.753 319.191,371.779 333.464,365.292 
	416.506,327.231 "/>
<line fill="none" stroke="#D86C32" stroke-width="2" stroke-miterlimit="10" x1="338.222" y1="608.146" x2="338.222" y2="663.723"/>
<line fill="none" stroke="#D86C32" stroke-width="2" stroke-miterlimit="10" x1="358.117" y1="634.312" x2="318.326" y2="634.312"/>
<line fill="none" stroke="#D86C32" stroke-width="2" stroke-miterlimit="10" x1="496.736" y1="608.146" x2="496.736" y2="663.723"/>
<line fill="none" stroke="#D86C32" stroke-width="2" stroke-miterlimit="10" x1="516.632" y1="634.312" x2="476.841" y2="634.312"/>
</svg>
