<?xml version="1.0" encoding="utf-8"?>
<!-- Generator: Adobe Illustrator 16.0.0, SVG Export Plug-In . SVG Version: 6.00 Build 0)  -->
<!DOCTYPE svg PUBLIC "-//W3C//DTD SVG 1.1//EN" "http://www.w3.org/Graphics/SVG/1.1/DTD/svg11.dtd">
<svg version="1.1" id="Layer_1" xmlns="http://www.w3.org/2000/svg" xmlns:xlink="http://www.w3.org/1999/xlink" x="0px" y="0px"
	 width="612px" height="608px" viewBox="0 92.5 612 608" enable-background="new 0 92.5 612 608" xml:space="preserve">
<g>
	<g>
		<circle fill="none" stroke="#D86C32" stroke-width="8" stroke-miterlimit="10" cx="140.494" cy="405.818" r="114.312"/>
		<circle fill="none" stroke="#D86C32" stroke-width="8" stroke-miterlimit="10" cx="467.532" cy="405.818" r="114.312"/>
		<g>
			<path fill="#D86C32" d="M195.195,341.532c13.325,9.351,21.74,18.468,25.948,23.61l-9.351,10.753
				C208.987,363.506,202.441,351.584,195.195,341.532 M162.701,316.987c0,0,47.455,38.338,43.48,76.675l24.078-27.818
				C230.026,365.61,209.922,334.052,162.701,316.987L162.701,316.987z"/>
		</g>
		<g>
			<path fill="#D86C32" d="M521.064,341.532c13.325,9.351,21.741,18.468,25.948,23.61l-9.351,10.753
				C534.857,363.506,528.312,351.584,521.064,341.532 M488.338,316.987c0,0,47.454,38.338,43.48,76.675l24.078-27.818
				C555.896,365.61,535.559,334.052,488.338,316.987L488.338,316.987z"/>
		</g>
		
			<line fill="none" stroke="#D86C32" stroke-width="8" stroke-miterlimit="10" x1="254.805" y1="405.818" x2="353.221" y2="405.818"/>
		<path fill="none" stroke="#D86C32" stroke-width="8" stroke-miterlimit="10" d="M165.039,111.506l-56.571-9.818
			c-15.195-2.572-29.688,7.48-34.832,22.441L25.013,402.312"/>
		<path fill="none" stroke="#D86C32" stroke-width="8" stroke-miterlimit="10" d="M443.221,111.506l56.571-9.818
			c15.195-2.572,29.688,7.48,34.831,22.441l48.624,278.182"/>
	</g>
	<g>
		<path fill="none" stroke="#D86C32" stroke-width="8" stroke-miterlimit="10" d="M585.584,612.233
			c0,0-36.935,89.533-136.986,78.779c-100.052-10.753-135.351-59.376-141.429-70.597c-13.792-25.014,17.532-131.845,164.571-2.806
			C525.272,664.363,585.584,612.233,585.584,612.233z M22.675,612.233c0,0,36.935,89.533,136.987,78.779
			c100.052-10.753,135.351-59.376,141.429-70.597c13.792-25.014-17.532-131.845-164.571-2.806
			C82.987,664.363,22.675,612.233,22.675,612.233z"/>
	</g>
</g>
</svg>
