<svg id="Layer_1" data-name="Layer 1" xmlns="http://www.w3.org/2000/svg" viewBox="0 0 68 68"><defs><style>.cls-1{fill:#d86c32;}</style></defs><title>favicon</title><path class="cls-1" d="M25.94,22.845a.147.147,0,0,0,.05.06c.27.06.28.31.37.51.05.11.14.21.02.34-.03.04-.01.12,0,.19a1.409,1.409,0,0,0,.2-.01c.02,0,.04-.04.06-.04.04.01.1.04.1.07,0,.1,0,.17.13.17.07,0,.14.09.21.15.01.01.01.05.01.08-.03,0-.07.01-.08,0-.08-.12-.2-.08-.31-.07-.02.01.09.19-.09.16-.06-.01-.18-.06-.17.07.01.05.1.1.16.12a.329.329,0,0,0,.17.04c.13.01.17-.04.09-.16-.06-.07-.01-.08.04-.08.16,0,.22.06.22.24.01.21.01.23-.17.23s-.18.18-.27.28c-.07.08.04.13.08.19.02.03.1.07.01.09-.15.04-.15.11-.05.18.27.2.27.56.48.79-.02.18.14.24.22.34.15.18.19.21.31.26a2.3,2.3,0,0,1,.39.17c.11.05.23.05.26-.06.05-.17.2-.35.09-.53-.07-.12-.01-.1.05-.1a.744.744,0,0,0,.11-.02,4.443,4.443,0,0,0,.15-.52c.01-.04-.07-.08.03-.11.01,0,.02,0,.02-.01a.308.308,0,0,1,.01.1.274.274,0,0,0,.14.23c.13.06.23.19.39.17.05-.01.12-.01.14-.04a.565.565,0,0,1,.41-.19.548.548,0,0,0,.24-.17.1.1,0,0,0,.01-.16c-.06-.06-.11-.12-.17-.17a.625.625,0,0,0-.2-.13c.01-.01.03-.02.03-.04a2.392,2.392,0,0,0,.25-.33c.05-.13.11-.13.21-.13a3.072,3.072,0,0,0,.67-.14,5.283,5.283,0,0,0,.85-.38c-.21-.09-.4.03-.54-.12-.03-.02-.11.03-.07-.07a.481.481,0,0,1,.08-.16c.02-.01.09.02.13.04s.07.08.11.11c.12.12.23.11.31-.01a.223.223,0,0,0-.08-.3c-.09-.07-.19-.13-.35-.25a3.02,3.02,0,0,0,.31,0c.03,0,.06-.05.07-.07s-.04-.08-.06-.08c-.11-.01-.23,0-.34-.01-.02,0-.05-.02-.05-.04a.6.6,0,0,1,.08-.16c.01-.02.08-.05.09-.03.18.15.38.04.57.08.01-.19-.24-.11-.21-.28.1-.02.21-.03.32-.05.02,0,.04-.02.06-.04a1.172,1.172,0,0,1-.24-.09c-.03-.02-.04-.08-.07-.12l.12-.06c.01-.01.02,0,.03,0,.06-.02.14.03.15-.06l-.26-.27h-.01a.148.148,0,0,1-.07-.01c-.05-.02-.07-.07-.11-.11a.127.127,0,0,1,.06-.01l-2.6-2.65c-.04.01-.07.05-.08.13,0,.01-.08.03-.09.01a.2.2,0,0,0-.24-.06c-.11.05-.19,0-.29,0a1.947,1.947,0,0,0-.31.07.851.851,0,0,0-.35.16c-.16.11-.16.11.01.21a1.177,1.177,0,0,1,.19.11c.01.01.01.04.02.06-.02.01-.05.03-.07.02s-.05-.05-.09-.06c-.22-.09-.44-.18-.66-.25-.04-.02-.09.01-.14.02a1.048,1.048,0,0,1,.08.11.2.2,0,0,0,.04.08c-.04.01-.08.03-.11.02-.11-.05-.21-.11-.32-.16-.04-.02-.07.02-.05.08.01.04.04.1.02.13s-.07.07-.1.1c-.01-.03-.02-.07-.03-.1-.06-.19-.07-.22-.25-.2a4.99,4.99,0,0,0-.54.07c-.02.01-.05.04-.04.05a.218.218,0,0,0,.05.08.565.565,0,0,1-.13,0c-.07-.01-.14-.04-.21-.05-.11-.01-.13.04-.08.15.07.18.05.2-.14.17H25.3v1.85a.778.778,0,0,1,.64.38m3.81,2.7c-.02.03-.05.07-.07.1a.4.4,0,0,1-.11,0h-.08a.4.4,0,0,0,.26-.1m-.53.02a.181.181,0,0,0,.18.08h-.14a.211.211,0,0,0-.1.04,1.338,1.338,0,0,1,.06-.12m-.16.17c.02,0,.03-.01.05-.01-.05.04-.07.05-.1.02a.09.09,0,0,1,.05-.01" transform="translate(-0.916 -0.916)"/><path class="cls-1" d="M25.69,29.5a.828.828,0,0,1,.47-.27c.17-.02.18-.36.03-.44-.02-.01-.09.05-.1.04-.04-.04-.06-.1-.1-.15-.01-.02-.05-.03-.08-.04a.689.689,0,0,0,.1-.04c.01-.01.02-.03.04-.05a.489.489,0,0,0-.07-.03.805.805,0,0,1-.56-.3c-.03-.04-.08-.05-.12-.08v1.42h.22a.252.252,0,0,0,.17-.06" transform="translate(-0.916 -0.916)"/><path class="cls-1" d="M34.46,42.2c.01.03.03.05.04.08v-1.17a2.594,2.594,0,0,0-.11.37.764.764,0,0,0,.07.72" transform="translate(-0.916 -0.916)"/><path class="cls-1" d="M29.44,39.755a.6.6,0,0,1-.21-.14.647.647,0,0,0-.63-.24c-.09.01-.17-.07-.23-.07-.13,0-.3.18-.26-.14-.16-.04-.27-.21-.46-.19-.03.01-.05.09-.09.14s-.13-.01-.1-.04c.09-.09,0-.12-.04-.15-.1-.06-.35-.01-.15-.26.01-.01-.02-.06-.04-.1a3.3,3.3,0,0,1-.18-.32.677.677,0,0,0-.63-.38c-.29-.01-.3.01-.48-.17a.856.856,0,0,0-.19-.19c-.07-.04-.18-.01-.24-.06s-.05-.16-.1-.22c-.02-.02-.07-.01-.11-.01V42.5l1.67,1.73a.1.1,0,0,1,.08-.06c.05,0,.11.05.14.03a.224.224,0,0,0,.08-.15c0-.17.22-.21.17-.42a.435.435,0,0,1,.26-.51c.24-.12.44-.37.76-.32.04.01.11-.04.15-.08a1.053,1.053,0,0,0,.27-.56c.02-.06.02-.13.06-.17.1-.08.09-.17.09-.28v-.52c0-.04.01-.11.02-.11.22-.03.2-.32.37-.39.19-.07.21-.26.28-.39.11-.23,0-.42-.26-.54" transform="translate(-0.916 -0.916)"/><path class="cls-1" d="M34.15,32.735c.1-.13-.1-.25.01-.36a.2.2,0,0,0-.26-.1c-.12.06-.23-.05-.32,0-.23.12-.47.04-.69.08a1.377,1.377,0,0,0-.61.2.634.634,0,0,1-.62.07c-.19-.05-.23-.06-.31.1-.07.14-.14.27-.32.26a.082.082,0,0,0-.06.04,1.111,1.111,0,0,0-.14.41.571.571,0,0,1-.38.57c-.21.09-.28.27-.39.41-.12.16-.19.37-.3.54a.435.435,0,0,0-.04.46c.17.34.16.36-.01.75-.1.25.08.43.07.65.14-.04.1.11.16.16a1.8,1.8,0,0,1,.19.2.912.912,0,0,1,.15.21c.04.18.19.24.3.34a2.173,2.173,0,0,0,.3.23c.15.1.29.21.49.09a.665.665,0,0,1,.44-.06.76.76,0,0,0,.59-.07.727.727,0,0,1,.26-.11c.21-.03.42-.11.6.09s.18.2.37.2a1.206,1.206,0,0,1,.19,0,.229.229,0,0,1,.2.29,2.911,2.911,0,0,1-.12.51c-.05.12,0,.18.03.28.07.2.26.28.36.44a.724.724,0,0,1,.11.19,2.447,2.447,0,0,0,.09.32c0,.01.01.02.01.03v-7.02a.457.457,0,0,1-.29-.15c-.09-.08-.13-.16-.06-.25" transform="translate(-0.916 -0.916)"/><path class="cls-1" d="M34.1,28.6c-.1-.02-.1-.09-.06-.13.08-.08.02-.1-.01-.15-.02-.02.01-.07.02-.1.02-.05.19.03.07-.12-.04-.06-.02-.18-.03-.27,0,0-.04-.01-.05,0-.06.04-.12.09-.18.13a.273.273,0,0,0-.11.39c.02.07.08.13.1.19a.55.55,0,0,1-.02.22c-.04.11-.11.01-.16.01a.507.507,0,0,0-.3.09.911.911,0,0,0-.29.35c-.05.16-.28.12-.36.27,0,.01.01.03,0,.04a.616.616,0,0,1-.51.2c-.06,0-.06,0-.07.07-.03.18-.05.21-.16.14a.468.468,0,0,0-.25-.05c-.02,0-.06.04-.07.06a.082.082,0,0,0,.01.07c.04.04.08.11.11.1.21-.02.27.18.4.27a.252.252,0,0,1,.08.28,1.172,1.172,0,0,1-.09.32c-.02.03-.09.08-.11.07a2.2,2.2,0,0,0-.81-.05c-.26-.01-.29.03-.28.29,0,.08.06.17.05.24a1.568,1.568,0,0,1-.1.28c-.05.15.11.27.06.43a.022.022,0,0,0,.02.02c.21-.05.37.1.55.17a.084.084,0,0,0,.07,0c.07-.11.18-.07.28-.08l.21-.03.3-.42c.1-.35.1-.36.32-.47.15-.07.26-.14.22-.34-.01-.09.05-.1.12-.09.05,0,.12-.02.15,0,.14.15.24.07.35-.04a.62.62,0,0,1,.26-.12.184.184,0,0,1,.25.11,1.076,1.076,0,0,0,.42.45v-.49c-.01-.01-.02-.03-.03-.04-.09-.12-.09-.2,0-.3.01-.01.02-.03.03-.03V28.6a.114.114,0,0,0-.07.03c-.13.13-.22.01-.33-.03" transform="translate(-0.916 -0.916)"/><path class="cls-1" d="M32.54,28.985c-.05,0-.09-.08-.12-.13a1.682,1.682,0,0,0-.41-.58.144.144,0,0,1-.03-.13.527.527,0,0,1,.08-.24c.04-.06.08-.1-.03-.11l-.29-.03c.03-.05.14-.12-.03-.13-.1,0-.14.03-.14.13,0,.03-.05.06-.08.08a.278.278,0,0,0-.07.22c.02.05.13.07.03.14.04.05.07.11.11.13.1.02.1.01.08.08-.05.05-.1.09.03.1.03,0,.08.01.1-.01.09-.09.11-.07.12.05,0,.06.05.11.07.17.02.09-.03.13-.16.14a.161.161,0,0,0-.09.03c-.09.06-.02.1.02.14-.04.05-.09.09-.13.14a.22.22,0,0,0,.05.06,1.634,1.634,0,0,0,.22.02l-.18.15c-.01,0-.02.01-.03.02a.611.611,0,0,0-.05.12c.03,0,.07.02.1.01.1-.02.19-.08.28-.07s.16-.16.24-.01a.419.419,0,0,1,.12-.08c.05-.01.1.01.15,0,.15-.04-.01-.09,0-.12s.07-.07.1-.11c.08-.1.09-.15-.06-.18" transform="translate(-0.916 -0.916)"/><path class="cls-1" d="M17.94,24.846c-.03,0-.06.03-.09.04a.418.418,0,0,0,.1.04c.04.01.07.01.11.02a.876.876,0,0,1-.1.06.316.316,0,0,0-.12.27.3.3,0,0,1-.05.13c-.03-.03-.08-.05-.09-.08-.07-.17-.21-.2-.35-.24-.2.17-.44.04-.65.08-.02,0-.07-.04-.07-.07a.151.151,0,0,1,.04-.09c.17,0,.09-.08.03-.12a.366.366,0,0,0-.18-.04,2.129,2.129,0,0,1-.82-.22.407.407,0,0,0-.45.02c-.11.09-.15.04-.15-.09a.381.381,0,0,0-.03-.1.121.121,0,0,0-.05.05c-.12.17-.15.22-.21.13l-.48.5v3.79a.413.413,0,0,0,.11.07c.16.06.05.22.11.32a.173.173,0,0,0,.14.08.827.827,0,0,1,.16.09c0,.01.01.02.02.03a.161.161,0,0,1-.07.04.107.107,0,0,1-.06-.02c-.05-.05-.1-.1-.16-.03a.3.3,0,0,0,.11.13.955.955,0,0,1,.49.66.36.36,0,0,1,.01.18c-.05.16.04.38-.03.51-.1.18-.02.31.01.46.03.12.01.24.05.37a7.546,7.546,0,0,0,.43.74.429.429,0,0,0,.3.27c.19.05.28.21.37.38a2.04,2.04,0,0,0,.38.63.161.161,0,0,1,.07.16c-.06.15-.03.19.13.2.06.01.12.13.19.19s0,.12.01.17.09.15.18.1c.07-.04.02-.1-.01-.17s-.02-.18-.06-.2c-.23-.14-.19-.51-.48-.59a.488.488,0,0,1-.03-.07c-.01-.09.04-.19-.05-.26,0,0,.02-.05.04-.06.08-.01.16-.01.2.08s.12.21.11.3c-.02.15.07.17.15.22a.768.768,0,0,1,.39.45c.02.03.04.08.06.09.24.09.31.35.48.52.07.07.25.2.08.37-.02.02,0,.09.02.11a2.808,2.808,0,0,0,.44.33c.25.13.53.2.78.33.14.07.23.11.37.02a.234.234,0,0,1,.2.01,1.655,1.655,0,0,1,.3.22.56.56,0,0,0,.28.16,1.826,1.826,0,0,1,.43.08,1.046,1.046,0,0,1,.3.35c.05.07.04.18.09.24a.788.788,0,0,0,.23.09.045.045,0,0,1,.03.03c.01.16.12.14.24.16.06,0,.12.07.18.11.07.06.12.07.15-.05a.211.211,0,0,1,.12-.14c.04-.02.11.01.17.02-.04.17.14.24.16.37.01.15.05.3.07.45.02.17-.18.23-.26.35-.05.07-.04.18-.16.17.01.17-.22.2-.19.4a.513.513,0,0,0,.15.26.87.87,0,0,0-.21.17c-.03.04,0,.13.02.18.09.14.19.27.28.4.21.32.25.73.53,1.01-.02.28.2.36.39.44a.9.9,0,0,1,.26.17v-4.95a.614.614,0,0,1-.4.16.23.23,0,0,0-.16.17c0,.13-.09.17-.16.25-.04.06-.1.08-.15.01a.381.381,0,0,0-.47-.08c-.21.08-.3.06-.42-.12a.818.818,0,0,1-.06-.73c.06-.15.05-.18-.1-.24a.556.556,0,0,0-.21-.06c-.15-.01-.3-.01-.46-.01-.07,0-.15.02-.06-.11.07-.09-.01-.24.11-.36.07-.07.07-.23.12-.34a.16.16,0,0,0-.2-.2c-.25.09-.26.08-.39.37-.05.13-.13.19-.25.16-.15-.04-.28.1-.44.01a1.109,1.109,0,0,1-.45-.93,2.6,2.6,0,0,0,.07-.61.326.326,0,0,1,.04-.14c.05-.19.32-.09.37-.31.01-.04.12-.07.19-.09a.34.34,0,0,1,.14.02.789.789,0,0,1,.23.09c.08.06.14.07.19-.01.11-.19.28-.19.46-.18.1.01.25,0,.28.05.1.17.21-.02.27.04.09.08.21.14.2.31a1.037,1.037,0,0,0,.24.53c.02.02.07.02.1.02.01,0,.03-.04.03-.06a1.138,1.138,0,0,0-.1-.63.513.513,0,0,1,.01-.51,1.182,1.182,0,0,1,.45-.41.914.914,0,0,0,.24-.16c.04-.04-.15-.14.02-.13.21.01.1-.09.07-.16a.947.947,0,0,0-.11-.31c-.07-.1.03-.1.05-.15,0-.01.02-.02.03-.03a.355.355,0,0,0,.03.11.162.162,0,0,0,.09.05.088.088,0,0,0,.06-.07c.02-.21.17-.33.27-.48a.341.341,0,0,1,.23-.16v-4.57a.585.585,0,0,0-.51-.15c-.06.01-.13-.06-.19-.07a.317.317,0,0,0-.22.02c-.1.07.01.12.04.19.01.01.01.03,0,.03-.14.13-.01.25.02.37.02.04.08.06.01.12a.864.864,0,0,0-.13.14c-.05.06-.1.12.02.17a.349.349,0,0,1,.24.38.332.332,0,0,1-.23.38c-.06.02-.1.09-.15.11-.09.02-.09.07-.07.13.05.12.1.23.14.34.07.18-.18.22-.16.37,0,.01-.01.02-.04.05a3.384,3.384,0,0,0-.31-.34.294.294,0,0,1-.1-.28c.01-.1.04-.26-.01-.3-.08-.06-.21-.03-.32-.05a.336.336,0,0,1-.14-.05c-.17-.11-.4-.1-.53-.31-.01-.03-.08-.03-.13-.04-.15-.02-.31-.05-.46-.08a.159.159,0,0,1-.09-.09c-.04-.15-.03-.34-.27-.32-.03,0-.11-.13-.1-.18a3.2,3.2,0,0,1,.18-.52c.15.04.1-.15.18-.19a2.562,2.562,0,0,0,.26-.2c.02-.01.04-.04.06-.05a.161.161,0,0,0-.07-.04c-.1-.04-.21-.07-.31-.11v-.05c.09,0,.2-.04.26,0,.14.11.23.15.29-.06a.066.066,0,0,1,.07-.02c.1.12.15-.01.22-.04.19-.08.07-.37.29-.39a.375.375,0,0,0-.01-.11l-.03-.09c.02,0,.06-.02.07-.01.18.22.36-.07.55-.01.04.01.15-.11.18-.19.05-.11-.08-.14-.11-.22a.148.148,0,0,1,0-.13c.11-.13.11-.19.01-.25s-.21-.11-.32-.16c-.09-.03-.16.02-.18.12a1.447,1.447,0,0,1-.08.36c-.04.1-.15.16-.21.26a.079.079,0,0,1-.05.05.808.808,0,0,1-.16-.16.17.17,0,0,1,0-.14c.04-.05.07-.1.01-.16a1.21,1.21,0,0,0-.16-.16.225.225,0,0,0-.05.05.518.518,0,0,1-.06.13.119.119,0,0,1-.09.05.1.1,0,0,1-.06-.08.254.254,0,0,1,.03-.15c.03-.05.06-.08-.02-.09a.854.854,0,0,1-.16,0c-.03-.01-.05-.04-.08-.05.02-.04.04-.09.07-.1.06-.02.11-.05.04-.08a.347.347,0,0,1-.27-.37c0-.01-.04-.04-.06-.04-.09,0-.1-.05-.08-.12s.05-.14.07-.21c.03-.09.09-.09.14-.04.1.11.15.03.21-.04s.09-.15.14-.21.06-.08-.03-.1c-.16-.02-.33-.06-.5-.07a.194.194,0,0,0-.25.19.382.382,0,0,0,.01.26.352.352,0,0,1,.05.26c-.01.1-.08.15-.18.17-.02,0-.04.08-.05.12-.02.08.07.14.02.26-.07.17.2.01.23.15.01.01.05.01.07.02a.281.281,0,0,1,.06.37c-.07.07-.17.12-.15.25,0,.03-.05.09-.08.09s-.11-.05-.11-.08c-.01-.1.12-.24-.1-.25.02-.02.03-.05.06-.06.06-.03.13-.05.19-.08a.106.106,0,0,0,.02-.05c-.04-.05-.22-.01-.06-.15a1.719,1.719,0,0,0-.29-.11c-.04-.01-.1.06-.15.1-.11.1-.1.12.04.21a.3.3,0,0,0,.1.04c-.08.09-.14.26-.23.27a1.222,1.222,0,0,1-1.01-.22.321.321,0,0,0-.27-.09" transform="translate(-0.916 -0.916)"/><path class="cls-1" d="M34.141,26.106c-.15.03-.18.15-.23.26-.06-.07-.11-.13-.13.03,0,.02-.12.03-.19.06-.09.03.15.12-.02.15-.25.04-.3.12-.32.37,0,.12.12.21.02.34-.06.07.1.07.11.1.01.06-.03.12-.04.19,0,.01.02.02.03.03.16.02.33.14.49-.03a.807.807,0,0,1,.14-.12c.14-.1.22-.07.25.09.04.24.21.41.25.65v-2.64a.546.546,0,0,0-.12.28c-.15,0-.12.22-.24.24" transform="translate(-0.916 -0.916)"/><path class="cls-1" d="M17.07,22.776a.145.145,0,0,1,.07.02l-.04.08c-.07.09-.17.04-.25.06-.03,0-.05.04-.07.06.03.03.05.08.08.09a.561.561,0,0,0,.42-.09c.11-.07.2-.16.33-.07a.741.741,0,0,1,.39-.08c.11,0,.19-.16.15-.26s-.11-.04-.18.01a.145.145,0,0,1-.12-.03.869.869,0,0,1-.16-.17c-.09-.14-.16-.14-.26-.02-.01.01,0,.07,0,.07.2-.02-.04.17.09.18-.01.14-.11.06-.16.06a.582.582,0,0,1-.19-.1.711.711,0,0,0-.24-.13l-.39.39a.231.231,0,0,0,.22-.07c.1.09.21,0,.31,0" transform="translate(-0.916 -0.916)"/><path class="cls-1" d="M23.31,24.046c-.02-.17-.17-.14-.27-.19v-.04a.184.184,0,0,0-.21-.17c-.1.01-.21-.04-.28.07-.1.14-.26-.04-.36.09-.01,0-.06-.02-.06-.03a.809.809,0,0,1-.01-.16c-.02-.27-.12-.36-.35-.26a.793.793,0,0,1-.25.05c-.12.02-.2.11-.15.22s-.04.25.09.33c.01.01.01.06.02.08-.02.01-.06.02-.07.01a.393.393,0,0,1-.11-.62c.03-.03.1-.08,0-.09a.513.513,0,0,0-.63.58c0,.1.02.16.12.13.12-.03.19.03.26.12-.08.01-.17.03-.25.04-.02.01-.03.03-.07.06.21.06.4.13.59.18.14.03.29-.04.44.06s.27-.04.41-.06a1.163,1.163,0,0,1,.18.04h.07c.03-.21.11-.12.19-.04a2.07,2.07,0,0,1,.24.17,1.833,1.833,0,0,0,.45.32.51.51,0,0,1,.19.22c.05.12-.02.22-.17.33-.05.04-.12.05-.1.16.04.22-.05.31-.25.19-.17-.1-.25.06-.37.07a.414.414,0,0,0-.02.14.088.088,0,0,0,.06.07,1.276,1.276,0,0,0,.19.01c.04-.01.09-.05.11-.05a.136.136,0,0,0,.16.02c.17-.07.15-.01.35.08a.276.276,0,0,1,.08.06v-2.19h-.22Z" transform="translate(-0.916 -0.916)"/><path class="cls-1" d="M15.32,24.116a.34.34,0,0,0,.1.01c.09-.02.24-.05.25-.09.03-.18.21-.19.27-.32.06-.16.18-.15.3-.15-.01.03-.01.07-.02.07-.18,0-.13.19-.21.27.08.04.16.09.24.14.01.01.02,0,.03,0l.11.03c-.04.02-.08.03-.12.05s-.09.05-.1.08c-.01.1.07.08.13.08.24,0,.48,0,.72.01a.088.088,0,0,1,.06.07c0,.03-.04.08-.06.08h-.53a.48.48,0,0,0-.17.05c-.03.01-.05.05-.07.08a.487.487,0,0,0,.07.03.771.771,0,0,0,.19.08c.17.01.35-.04.42.19a.105.105,0,0,0,.09.05c.13-.03.26.01.4-.06.33-.15.44-.12.93-.02a.963.963,0,0,0,.33-.04c.03,0,.05-.05.08-.08-.03-.01-.06-.03-.09-.04-.05-.01-.09-.03-.13-.04.03-.04.06-.1.1-.11a.608.608,0,0,1,.19-.01.185.185,0,0,0,.07-.02c-.02-.03-.03-.07-.05-.08a1.921,1.921,0,0,0-.29-.14.348.348,0,0,1-.26-.25.851.851,0,0,0-.06-.17.383.383,0,0,1,.01-.36c.08-.16.07-.18-.08-.17a1.177,1.177,0,0,0-.25.04c.18.17-.02.09-.07.12-.03.02-.08.06-.08.09a.538.538,0,0,0,.04.22c.04.07.06.13-.01.16s-.11-.02-.11-.11c.01-.16-.12-.21-.21-.29-.04-.02-.06.01-.06.08a.22.22,0,0,0,.01.08c-.08-.01-.14.01-.21-.05-.18-.15-.19-.14-.39.04a.088.088,0,0,1-.07.01c-.02,0-.05-.02-.05-.04-.01-.11-.11-.21-.2-.2a.4.4,0,0,1-.11,0,1.739,1.739,0,0,0,.14-.12,1.038,1.038,0,0,1-.17-.12.21.21,0,0,0-.14-.07Z" transform="translate(-0.916 -0.916)"/><path class="cls-1" d="M32.09,25.7c-.11.09-.1.09-.16.01-.12-.19-.19-.2-.35-.05a1.565,1.565,0,0,0-.13.13c.08.01.1.02.12.02.11,0,.24-.05.22.16a.276.276,0,0,0,.14.23c.13.06.23.19.39.17.05-.01.11-.01.13-.04a.6.6,0,0,1,.42-.19.558.558,0,0,0,.241-.17.094.094,0,0,0,0-.16,1.365,1.365,0,0,0-.161-.17.571.571,0,0,0-.21-.13c-.02,0-.07.1-.12.14a.4.4,0,0,1-.11,0,3,3,0,0,0-.3,0,.184.184,0,0,0-.12.05" transform="translate(-0.916 -0.916)"/><path class="cls-1" d="M20.1,22.456c.15.01.19.09.19.28a.161.161,0,0,0,.06.13.405.405,0,0,0,.43.13c.08-.04.12.01.17.01.24-.02.5.08.74-.06.02-.01.08-.02.1,0,.1.12.23.05.35.06.08.01.21-.16.21-.25-.01-.02-.05-.06-.07-.06a.855.855,0,0,1-.47-.08.275.275,0,0,0-.25,0c.05-.04.16-.12.35-.26l.06.03a.391.391,0,0,0,.44-.01c.05-.04.18.04.16-.09-.01-.05-.1-.1-.16-.12a1.126,1.126,0,0,0-.18-.03c.04-.03.08-.05.13-.09h.03c.07-.01.12-.07.18-.11,0-.01,0-.01-.01-.02.05-.03.1-.07.15-.1.03,0,.06-.01.08,0,.16.03.23-.1.31-.19a.12.12,0,0,0,.02-.08c.13-.09.26-.18.41-.27v-.03c-.13.08-.27.16-.42.26a.129.129,0,0,0-.12-.09h-.25a.478.478,0,0,1,.35-.15c.13.01.15-.07.21-.15.03-.03.14.03.23.05v-1.35c-.16.01-.3.11-.46.01-.11.14-.26.06-.39.07a1.859,1.859,0,0,0-.57.11c-.16.06-.35.24-.57.06-.1-.07-.27.02-.33.15-.04.08-.07.09-.13.07s-.12-.08-.16-.06a.749.749,0,0,1-.36.07c0,.03-.02.07,0,.08.08.09.05.26.19.32s.27.16.41.01c0,0,.04.03.04.04-.01.13.07.12.15.11.19-.02.38-.06.58-.08.15-.01.33.05.44-.14a.169.169,0,0,1,.05.02.085.085,0,0,1,0,.07.516.516,0,0,1-.17.13c-.13.04-.26.05-.39.08-.01.01-.04.04-.03.05a.217.217,0,0,0,.05.08c-.05,0-.1.02-.13,0a.61.61,0,0,0-.41-.13c-.05.01-.14-.03-.14.08.01.07-.03.17.1.16.02,0,.04.03.05.04-.02.02-.04.04-.06.04-.06-.01-.16.04-.17-.09a.363.363,0,0,0-.07-.17c-.03-.03-.09-.07-.11-.05-.05.03-.08.09-.14.01-.16-.21-.43-.22-.61-.4-.06-.06-.1,0-.15.04-.09.07-.13.21-.28.18-.02,0-.05.04-.08.05a.413.413,0,0,0,.07.11c.1.08.1.08,0,.16-.02.01-.05.01-.06.03,0,.04.12.21.16.21a.663.663,0,0,0,.28-.05c.1-.05.09.06.14.07l-.09.06c-.01,0-.03-.01-.04,0-.03.02-.07.03-.08.06a.211.211,0,0,0,.04.1c.03.02.07.01.1.03a.558.558,0,0,0,.76-.03c.13-.09.28-.14.4-.22.14-.1.18-.08.23.06a.156.156,0,0,0,.06.08.2.2,0,0,0,.08.04c-.02.01-.04.04-.06.04-.07-.01-.15-.01-.22-.02a.373.373,0,0,0-.39.13c-.01.02-.02.07-.01.08.03.02.07.05.09.04a1.587,1.587,0,0,0,.2-.07c.03,0,.08.02.08.04.01.04-.03.1-.02.11a.746.746,0,0,0,.15.09c.01.01,0,.06-.01.08a.141.141,0,0,1-.08.06.436.436,0,0,1-.13-.14.209.209,0,0,0-.24-.08.672.672,0,0,0-.12.06c.03.03.06.07.09.1a.333.333,0,0,0,.06.03c-.01.01-.03.04-.04.04-.04.01-.1-.01-.11.01-.06.09-.25.02-.21.19,0,.03.14.04.21.04a1.383,1.383,0,0,0,.61-.01.32.32,0,0,1,.21-.03c-.19.12-.39.24-.6.37-.13-.03-.27.02-.42-.07-.12-.07-.13-.09-.05-.19s-.02-.06-.05-.06a.469.469,0,0,1-.28-.07c-.05-.04-.18.07-.27-.01-.14-.14-.31-.07-.47-.08-.01,0-.03.03-.04.04a.147.147,0,0,0,.05.06,1.333,1.333,0,0,0,.44.14m2.51-.64c-.03.02-.06.03-.09.05-.02-.05.03-.05.09-.05m-.4.25c-.03.02-.07.04-.1.06-.05-.01-.09-.01-.13-.02a.587.587,0,0,1,.23-.04" transform="translate(-0.916 -0.916)"/><path class="cls-1" d="M56.316,42.726a.5.5,0,0,0-.381-.48.213.213,0,0,1-.159-.19,1.145,1.145,0,0,0-.38-.74.209.209,0,0,1-.07-.13,1.339,1.339,0,0,0-.01-.2,1.166,1.166,0,0,0-.11-.25c-.04.09-.08.18-.111.27a.743.743,0,0,0,0,.2,1.2,1.2,0,0,1-.149.62c-.061.1-.13.13-.221.07-.149-.1-.3-.2-.46-.29a.263.263,0,0,1-.1-.43,1.687,1.687,0,0,1,.129-.13c-.059-.04-.089-.08-.129-.08a.689.689,0,0,1-.52-.12c-.02-.01-.04-.01-.06-.02.009.22-.23.09-.291.22-.049.11-.139.21-.179.32-.04.13-.12.08-.181.07-.039,0-.079-.05-.109-.09-.09-.09-.16-.06-.26-.01-.17.09-.25.28-.42.37a.341.341,0,0,1,.039.1c-.05.07-.109.04-.159-.01a.1.1,0,0,0-.061.04.643.643,0,0,1-.49.49,1.614,1.614,0,0,0-.29.14c-.1.06-.22-.04-.309.08a.628.628,0,0,1-.281.17c-.109.04-.1.08-.05.17.021.02.01.06,0,.08a.307.307,0,0,0,.021.32c.05.07.02.11-.021.17a.206.206,0,0,0,0,.13,6.246,6.246,0,0,0,.281.76.362.362,0,0,1,0,.42c-.09.14-.071.16.08.24.229.12.25.15.41.02a.874.874,0,0,1,.6-.15c.1,0,.19.01.269-.1a.394.394,0,0,1,.181-.11c.059-.04.12-.11.179-.1a1.581,1.581,0,0,0,.571-.12.535.535,0,0,1,.28-.02,2.623,2.623,0,0,1,.4.13c.031.02.071.05.071.06-.071.19.179.22.17.38,0,0,.1.04.11.02.079-.09.149-.2.23-.3.009-.01.049,0,.07.01s.029.04.019.05c-.069.06-.069.11-.009.19.13.19.349.33.349.6,0,.04.091.08.141.11.09.04.2.04.269.1.13.11.22.08.321-.04.03-.04.059-.07.11-.01s.109.17.159.16.12-.1.191-.15a.582.582,0,0,1,.09-.06.73.73,0,0,0,.389-.44v-2.42a.272.272,0,0,0-.13-.02c-.009,0-.029-.04-.029-.07" transform="translate(-0.916 -0.916)"/><path class="cls-1" d="M50.946,39.505c.029-.03.01-.12.029-.18.051-.16.21-.29.171-.49a.434.434,0,0,0,.06-.02c.13-.05.16-.1.05-.23-.14-.17-.121-.27.009-.44a1.145,1.145,0,0,1,.111-.11c.1-.1.02-.09-.04-.1a2.316,2.316,0,0,0-.51.11.7.7,0,0,1-.13.05c-.07.04-.16.07-.17.13a.226.226,0,0,1-.27.19c-.121-.02-.121.05-.121.14,0,.11-.069.14-.139.06s-.13-.04-.191.02a.122.122,0,0,0,0,.2c.021.02.011.07.021.1a.814.814,0,0,0,.41.5c.17.04.35.06.569.1.021-.01.1.01.141-.03" transform="translate(-0.916 -0.916)"/><path class="cls-1" d="M53.375,39.135c.14-.03.14.25.31.16.03-.01.07.02.1.03a.536.536,0,0,0-.11.05c-.04.01-.11-.03-.08.06.11-.04-.04.221.13.13.03-.02.09-.04.1-.03.14.14.33.13.5.19a.452.452,0,0,1,.2.14.345.345,0,0,1,.1.23c0,.04-.1.08-.15.12-.02.02-.04.05-.1.13.15-.04.24.01.36-.06.04-.03.17.09.26.14.2.1.2.1.36-.09a.255.255,0,0,1,.36-.03,2.364,2.364,0,0,0,.28.27.933.933,0,0,0,.33.12.571.571,0,0,0,.13.01.513.513,0,0,0-.059-.09c-.031-.04-.061-.1-.1-.11-.21-.01-.19-.24-.32-.34-.01,0-.01-.06,0-.08.11-.1.16-.17-.06-.16-.05,0-.12-.09-.16-.15-.12-.17-.32-.22-.49-.32a2.076,2.076,0,0,0-.46-.16c-.1-.03-.21-.05-.31-.09-.16-.049-.2.15-.32.17-.02,0-.04.02-.06.031a.154.154,0,0,1-.24-.111.481.481,0,0,1,0-.12c-.03-.15-.09-.21-.22-.2a1.381,1.381,0,0,0-.27.08c-.01,0-.01.05-.01.08" transform="translate(-0.916 -0.916)"/><path class="cls-1" d="M47.486,35.925a.169.169,0,0,0,.1.24c.03.02.15-.05.17-.11s.02-.16.12-.05a.339.339,0,0,1,.13.27c-.02.14-.041.29.11.39a.074.074,0,0,1,.03.06c-.02.17.05.34-.04.5a.185.185,0,0,0,.05.27,1.025,1.025,0,0,1,.24.5c.05.19.079.45.34.52.08.02.12.18.21.13.13-.07-.03-.15-.03-.22a.852.852,0,0,1,0-.16.351.351,0,0,0-.16-.37,2.015,2.015,0,0,0-.18-.12c-.2-.13-.21-.39-.351-.57-.01,0,0-.02,0-.04.04-.17.071-.34.12-.5,0-.03.09-.06.1-.05.14.16.39.18.479.41.021.05.1.07.141.11s.069.07.069.11c-.009.19.071.06.141.06.13,0,.069-.13.12-.16.079-.03.17,0,.239-.08.1-.1.221-.16.2-.35-.02-.27,0-.53-.31-.67a.484.484,0,0,1-.23-.37c-.04-.2.06-.32.32-.45.18-.09.21-.1.29.05.029.06-.01.13.09.05a1.425,1.425,0,0,1,.78-.35.365.365,0,0,0,.26-.11c.179-.17.479-.23.49-.58,0-.03.069-.07.1-.11a.821.821,0,0,0,.23-.38c.029-.11.069-.17-.08-.17v-.08c.14.01.12-.04.04-.12-.03-.04-.16-.11.02-.12.009,0,.009-.05.02-.07-.1.01-.1-.07-.131-.14a4.392,4.392,0,0,0-.3-.42c.17-.12.351-.25.51-.38a1.256,1.256,0,0,0-.149-.1c-.151-.06-.16.15-.28.15-.161.01.02-.29-.2-.24a.018.018,0,0,1-.029,0c-.1-.01-.1-.1-.051-.13.2-.15.4-.27.611-.4.009-.01.049.02.07.04a.117.117,0,0,1,.029.08c0,.02-.039.04-.05.06-.019.05-.08.13-.059.16.04.07.1.01.149-.01a.594.594,0,0,1,.381-.12.126.126,0,0,1,.069.21.134.134,0,0,0-.04.11.16.16,0,0,0,.08.08c.2.06.2.06.191.26a1.6,1.6,0,0,0,0,.31c.01.03.08.08.109.07.08-.05.16-.11.241-.17a.637.637,0,0,0,.129-.17,1.425,1.425,0,0,0-.059-.29.874.874,0,0,0-.191-.2c-.109-.12-.109-.2.031-.27a.5.5,0,0,0,.29-.35c.04-.13.229-.21.349-.3.011-.01.051,0,.071.02.15.16.3.02.38-.06a2.974,2.974,0,0,0,.9-1.32c.059-.17,0-.36.109-.52a.342.342,0,0,0,.04-.26.507.507,0,0,0-.21-.23.278.278,0,0,0-.2.01c-.04.01-.07.07-.11.1-.03-.04-.04-.09-.08-.12s-.111.15-.13-.03c-.01-.12-.12-.04-.18-.07a.1.1,0,0,1,0-.08,1.93,1.93,0,0,0,.36-.32,1.373,1.373,0,0,1,.25-.24,1.717,1.717,0,0,1,.27-.28c.22-.15.42-.41.739-.2.21-.04.46.11.641-.12a.181.181,0,0,1,.069.02v-2.32l-1.359-1.39a.477.477,0,0,0-.151.06c-.179.09-.2.07-.149.23.02.05.069.08-.02.09s-.19.01-.241.06c-.13.12-.159-.12-.269-.06-.061.03-.18-.03-.22.01-.1.12-.16.05-.25,0-.141-.09-.15-.08-.25.09-.02.03-.03.07-.06.09s-.09.05-.13.04c-.21-.06-.29-.19-.27-.44a.365.365,0,0,0-.35-.43c-.121-.01-.241.04-.36-.05-.091-.07-.23-.06-.2.14,0,.02-.021.04-.03.06-.111-.06-.191.12-.321.03a.294.294,0,0,0-.349-.02.109.109,0,0,1-.151-.07c-.049-.11-.33-.18-.429-.15-.21.07-.2.05-.451-.01a2.194,2.194,0,0,1-.349-.08c-.03-.02-.13.02-.13.03,0,.17-.15.15-.23.2a1.21,1.21,0,0,1-.34.08c-.04.01-.071-.01-.111-.02.031-.04.051-.09.08-.11a2.316,2.316,0,0,0,.46-.19,3.145,3.145,0,0,1,.691-.39l.05-.29c-.151.02-.13-.17-.26-.2a.878.878,0,0,0-.71,0c-.04.02-.11-.02-.17-.03.019-.04.029-.08.05-.12a.718.718,0,0,1-.151-.01.564.564,0,0,1-.12-.04c.071-.05.071-.1,0-.14a.5.5,0,0,0-.489.01c-.09.11-.15.29-.25.32a1.42,1.42,0,0,0-.4.13c-.02,0-.02.02-.031.03-.059,0-.159.03-.179,0-.06-.09-.14.02-.161-.01-.08-.12-.109.05-.179.03s-.14.02-.191.08a.233.233,0,0,1-.069.04v12.8a.276.276,0,0,0,.109.04c.04.15.151.32.1.43" transform="translate(-0.916 -0.916)"/><path class="cls-1" d="M55.335.916H14.5A13.62,13.62,0,0,0,.916,14.5V55.335A13.62,13.62,0,0,0,14.5,68.916H55.335A13.621,13.621,0,0,0,68.916,55.335V14.5A13.621,13.621,0,0,0,55.335.916M24.171,20.866v21.98l-.09.1-10.39,10.64V24.876l1.47-1.52.01-.01.26-.27.85-.88,7.89-8.14ZM35.141,31.5v22.09l-10.48-10.83v-28.7l5.46,5.61.54.56.07.07,1.21,1.24,3.17,3.26.02.01.01.02Zm10.985,11.35-.09.09-10.39,10.65V24.876l.44-.45.11-.12.05-.05,9.88-10.2Zm10.99,10.74-10.48-10.83v-28.7L57.116,24.8Z" transform="translate(-0.916 -0.916)"/><path class="cls-1" d="M54.055,32.826c.07.15.12.15.221.03.019-.03.09-.02.139-.03a1.312,1.312,0,0,0,.491-.18c.087-.08.08-.28.109-.42.019-.06,0-.16.03-.18.16-.11.08-.22.061-.36s-.072-.16-.171-.13-.17.07-.13.22a.46.46,0,0,1-.39.54.538.538,0,0,1-.08-.01c-.051.23-.2.29-.41.29-.069,0-.149.08-.24.07-.14-.02-.17.13-.26.19a.218.218,0,0,0,.04.05,1.8,1.8,0,0,0,.33-.12c.111-.07.21-.07.26.04" transform="translate(-0.916 -0.916)"/><path class="cls-1" d="M36.866,44.635a1.2,1.2,0,0,0,.29-.3,2.128,2.128,0,0,1,.37-.52.224.224,0,0,0,.09-.24.357.357,0,0,1,.29-.45c.08-.02.13-.07.09-.12-.09-.12.14-.19.019-.31-.069-.08.04-.24-.08-.32a.151.151,0,0,1,.011-.11c.109-.14.27-.23.37-.38.05-.07.17-.09.26-.12.149-.05.14-.07.269-.28a.241.241,0,0,0,.021-.3c-.05-.08-.021-.21-.03-.31s.03-.21-.01-.27a1.154,1.154,0,0,1-.15-.54c-.03-.13-.081-.2,0-.34.04-.1.049-.26.12-.34a9.2,9.2,0,0,1,.81-.85c.3-.25.63-.45.7-.89,0-.02.04-.04.051-.06a3.946,3.946,0,0,0,.23-.5c.03-.07-.01-.17-.02-.26a1.109,1.109,0,0,1-.19.09.533.533,0,0,1-.16.06c-.2.03-.39.05-.58.09-.06.02-.11.12-.18.03a1.121,1.121,0,0,1-.151-.2c.111-.15-.009-.2-.08-.27a1.42,1.42,0,0,0-.369-.32.309.309,0,0,1-.18-.28.647.647,0,0,0-.18-.32.477.477,0,0,1-.12-.31.828.828,0,0,0-.13-.41c-.13-.18-.14-.17-.17-.28s-.05-.22-.11-.27c-.13-.11-.13-.27-.19-.4-.04-.11.05-.08.09-.03l.06-.06c.02-.02.03-.039.049-.06.091.25.341.39.411.66.01.04.03.1.06.111.17.049.21.209.23.349.03.18.049.34.24.42a.112.112,0,0,1,.07.08c.08.31.34.55.319.91a.223.223,0,0,0,.281.241,1.759,1.759,0,0,0,.34-.091,3.584,3.584,0,0,1,.759-.31c.011,0,.031,0,.031-.01.02-.02.049-.03.06-.06.05-.19.22-.19.35-.24a1.666,1.666,0,0,1,.2-.08c.24-.09.32-.34.479-.51.29-.32.281-.38-.08-.59-.019-.01-.049-.01-.069-.02a.215.215,0,0,1-.15-.24.593.593,0,0,0-.02-.17c-.09.09-.15.16-.221.22a1,1,0,0,1-.21.14c-.229.11-.3.07-.389-.2,0-.02-.03-.03-.05-.05-.061.09-.12.02-.13-.02a.991.991,0,0,0-.27-.45.619.619,0,0,1-.08-.24c0-.03.02-.1.04-.1a.753.753,0,0,1,.3,0c.051.01.08.11.12.17a.611.611,0,0,0,.291.3,1.922,1.922,0,0,0,.25.12.3.3,0,0,0,.209.01c.121-.07.221-.12.261.09.01.04.1.081.15.09a2.666,2.666,0,0,0,.69.09,3.6,3.6,0,0,1,.569,0c.071,0,.181.03.2.07a.463.463,0,0,0,.219.22c.091.06.171.13.261.2,0,0-.02.05-.04.06s-.12,0-.05.08c.079.1.159.19.31.17.08-.01.12-.02.12-.11-.01-.039.019-.08.04-.13.03.04.09.07.1.12a.657.657,0,0,1,.009.2,2.6,2.6,0,0,0,.241,1.09c.089.22.21.44.28.67a.7.7,0,0,0,.2.38,1.161,1.161,0,0,0,.42-.73c.03-.17-.04-.37.03-.51a.59.59,0,0,1,.13-.15V23.845a2.842,2.842,0,0,1-.42-.11c-.02-.02-.07.03-.11.04a.4.4,0,0,1,.1.04c.011,0,0,.05,0,.07h-.189c-.021.01-.04.021-.061.03a.409.409,0,0,0,.031.06c.06.04.12.08.23.15H44.8c-.189,0-.2-.02-.139-.23a1.571,1.571,0,0,0,.04-.22.209.209,0,0,0-.06-.019c-.03-.011-.051.009-.07.019.1.16-.05.24-.12.27-.13.06-.16.07-.07.211a.318.318,0,0,1,.04.369c-.1.17-.02.24.19.24a1.192,1.192,0,0,0,.189,0c.141-.03.231.1.261.18.01.08-.07.19.02.28-.01,0-.02.02-.031.02-.029,0-.069,0-.069-.01a1.162,1.162,0,0,1-.04-.18c-.03-.18-.09-.22-.29-.21-.16.01-.07.13-.09.2s-.011.14-.03.19a.822.822,0,0,1-.86.32.149.149,0,0,1-.03-.07.379.379,0,0,1,.05-.06c.26.19.4-.019.52-.19a.286.286,0,0,0,.02-.39.392.392,0,0,1-.03-.439c.059-.131.04-.181-.04-.261a.111.111,0,0,1-.04-.16c.05-.1.09-.2.13-.3-.11-.01-.22-.02-.33-.04h-.04c-.07.05-.1-.14-.18-.02-.04.06-.12.11-.13.18-.01.14-.05.21-.18.25-.1.03-.091.1-.06.22.07.32.05.33.24.54.01.01.019.01.03.02,0,.03.01.071,0,.09a.255.255,0,0,1-.12.08c-.02,0-.06-.04-.09-.06a1.059,1.059,0,0,0-.671-.32,1.983,1.983,0,0,1-.679-.21c-.02-.02-.05-.009-.08-.009.009.039.009.089.03.109a1.36,1.36,0,0,1,.26.21c.03.03,0,.15-.031.2-.029.03-.119.03-.179.04.009-.07-.01-.14-.1-.12-.221.08-.49.01-.681.21-.069.07-.219-.02-.179-.11s-.02-.13-.05-.09c-.1.15-.28.03-.41.13a.686.686,0,0,1-.42.19c-.03,0-.06.06-.07.1,0,.07,0,.15-.09.131s-.241.089-.281-.081c-.009-.02-.229-.15.021-.16.04-.009.07-.07.11-.11a.082.082,0,0,0,.01-.07.241.241,0,0,0-.08-.06,1.779,1.779,0,0,0-.231,0c-.019,0-.029.04-.049.06.1.11-.031.171-.05.25-.021.05-.07.08.019.09.131.01.091.11.08.17,0,.11-.089.07-.139.07-.08-.01-.191-.07-.22-.04a.659.659,0,0,1-.29.14.132.132,0,0,0-.1.18c.021.061.071.14.051.16-.07.1-.12-.01-.18-.04a.633.633,0,0,0-.2-.059c-.069-.011-.179-.021-.2.019-.06.11.05.11.119.13.04.02.08.06.151.11a1.176,1.176,0,0,1-.16.04c-.32-.01-.44-.11-.42-.43.009-.2-.13-.21-.22-.29a1.827,1.827,0,0,0-.16-.13c.08-.08.13.04.179.04a1.829,1.829,0,0,1,.42.12.826.826,0,0,0,.671-.03c.1-.05.18-.079.17-.21,0-.11-.06-.15-.15-.19-.13-.06-.26-.13-.38-.2a1.047,1.047,0,0,0-.72-.2.21.21,0,0,1-.11-.029c-.03-.031.15-.121-.021-.131h-.539a1.034,1.034,0,0,0,.19-.15c.02-.02.03-.07.02-.08a.375.375,0,0,0-.18-.08l-.89.92v.51c.07.011.13.06.26.2-.09.08-.17.18-.26.27v1.12q.045.015.06,0c.1-.15.26-.03.38-.12a.292.292,0,0,1,.38.03c.02.011.02.05.03.08-.15-.01-.21.26-.34.16-.17-.11-.3.03-.44.021a.09.09,0,0,0-.07.029v.18c.19.05.03.16.03.23-.01.05-.01.08-.03.1v3.63c.06-.02.13-.04.19-.06.08-.03.13.05.17.141.1.229.05.539.36.669.2.081.19.12.38-.01.02-.01.06-.02.07-.01a.344.344,0,0,0,.5.05c.05-.03.13-.01.19-.01.02.01.05.04.07.05-.13.08.07.17-.02.29a2.1,2.1,0,0,0-.2.55c-.03.09-.08.16-.191.15h-.379a.621.621,0,0,0-.32.07c-.07.05-.23-.049-.34-.08a2.672,2.672,0,0,1-.48-.15v11.66c.03,0,.06,0,.07-.01.14-.15.36-.13.51-.24" transform="translate(-0.916 -0.916)"/><path class="cls-1" d="M49.225,39.235l-.05.05c-.09-.11-.229-.2-.25-.33a.371.371,0,0,0-.179-.27,2.015,2.015,0,0,1-.691-.57c-.029-.03-.05-.07-.08-.08a2.046,2.046,0,0,0-.34-.08s-.019.02-.019.03c-.01.13.109.17.17.24.11.14.309.25.349.41a.554.554,0,0,0,.221.34c.13.09.059.27.18.36.139.13.269.29.41.42a1,1,0,0,0,.17.12c.069-.03.17-.06.17-.08a1.5,1.5,0,0,1,.08-.48c.019-.11-.05-.14-.141-.08" transform="translate(-0.916 -0.916)"/><path class="cls-1" d="M40.906,24.1a.23.23,0,0,1,.14-.04c.03,0,.06.05.08.09a.222.222,0,0,0,.24.14c.12-.01.24,0,.439,0a.75.75,0,0,1-.409-.39c-.04-.09-.04-.13.02-.19a3.739,3.739,0,0,0,.48-.63.2.2,0,0,1,.11-.06c.08-.04.16-.05.23-.09a2.781,2.781,0,0,1,1.02-.4.88.88,0,0,0,.28-.16.124.124,0,0,0,.03-.1.091.091,0,0,0-.08-.05.575.575,0,0,0-.141.03c-.229.06-.429.19-.669.24-.121.03-.18-.13-.291-.03a1.059,1.059,0,0,1-.459.17c-.121.03-.22.11-.331.14-.129.04.04.24-.129.25a.236.236,0,0,1-.18.19c-.14.04-.03.2-.11.27-.05.05-.13.07-.18.12-.021.02.03.11.01.13a1.174,1.174,0,0,1-.18.12.115.115,0,0,0-.05.05c0,.02.02.07.029.07.091-.01.1.06.1.13" transform="translate(-0.916 -0.916)"/><path class="cls-1" d="M40.3,40.976a.113.113,0,0,0-.08.05c-.12.22-.21.45-.49.5-.09.02-.22.04-.25.11-.05.09-.02.23-.03.34,0,.07-.02.16.01.2.1.11,0,.19-.02.28a.226.226,0,0,1-.06.13c-.19.13.04.25,0,.38-.03.08.01.14.08.2.14.14.12.11.34.05.15-.05.15-.17.18-.24.04-.16.12-.31.15-.45.04-.25.2-.46.17-.73-.01-.11-.07-.27.13-.29a.706.706,0,0,0,.02-.12c-.02-.11-.049-.23-.08-.35a.1.1,0,0,0-.07-.06" transform="translate(-0.916 -0.916)"/></svg>