<svg xmlns="http://www.w3.org/2000/svg" viewBox="0 0 383.81 54.384" fill="#90C6C8">

<title>logo</title>

<path d="M3.376,5.089,35.549,48.836V5.089h2.824V53.245H35L2.894,9.5V53.245H0V5.089Z"/><path d="M105.139,29.133c0,13.365-11.161,24.182-24.939,24.182S55.26,42.5,55.26,29.133,66.421,5.02,80.2,5.02,105.139,15.767,105.139,29.133Zm-46.917,0c0,11.78,9.921,21.356,21.977,21.356s21.977-9.576,21.977-21.356S92.256,7.845,80.2,7.845,58.223,17.352,58.223,29.133Z"/><path d="M237.666,39.535H209.489l-6.2,13.71h-3.17l21.84-48.156h3.1L247.1,53.245h-3.169Zm-1.309-2.894L223.475,8.4,210.729,36.642Z"/><path d="M305.259,29.2c0,13.365-11.023,24.044-24.8,24.044H261.374V5.089h19.152C294.235,5.089,305.259,15.7,305.259,29.2Zm-2.963,0c0-11.85-9.714-21.288-21.839-21.288H264.268V50.421h16.259A21.439,21.439,0,0,0,302.3,29.2Z"/><path d="M325.039,5.089V53.245h-2.894V5.089Z"/><path d="M366.861,7.776c-12.194,0-22.046,9.508-22.046,21.288,0,11.85,9.852,21.426,22.046,21.426a22.736,22.736,0,0,0,15.156-5.855l1.792,2a25.328,25.328,0,0,1-17.017,6.683c-13.71,0-24.871-10.816-24.871-24.182S353.083,5.02,366.793,5.02A25.5,25.5,0,0,1,383.74,11.5l-1.723,2.2A22.336,22.336,0,0,0,366.861,7.776Z"/><path d="M123.614,54.384l14.1-14.448V0l-14.1,14.564Zm13.195-40a2.576,2.576,0,0,1-.528-.385c-.1-.1-.232-.156-.337-.248-.124-.109-.232-.238-.276.056a.236.236,0,0,1-.106.005.91.91,0,0,0-.251-.05c-.2.027-.39.213-.6.073s-.422-.031-.624-.082c-.279-.07-.551-.166-.844-.257.05-.041.073-.075.1-.08.118-.025.237-.041.356-.061a.344.344,0,0,0-.37-.171c-.148.034-.172-.052-.179-.192a.741.741,0,0,1,.9-.833c.143.022.043.085.006.138a.569.569,0,0,0,.151.886c.024.015.068-.005.1-.01-.01-.041-.007-.1-.032-.118-.186-.116-.063-.322-.131-.48s.052-.279.224-.3a1.24,1.24,0,0,0,.351-.079c.332-.145.485-.007.507.378a1.54,1.54,0,0,0,.013.223c0,.022.079.051.083.046.141-.192.384.068.517-.126.108-.157.262-.087.4-.1a.253.253,0,0,1,.3.242c0,.018,0,.046.011.052.074.043.172.05.25.087ZM131.7,10.563c.224.022.465-.082.665.11.129.125.317-.038.388.016a.644.644,0,0,0,.4.1c.047,0,.191-.047.07.095s-.095.161.069.263c.214.132.416.057.61.1l.851-.531a.535.535,0,0,0-.3.044,2.12,2.12,0,0,1-.864.022c-.11,0-.3-.015-.313-.058-.054-.243.224-.148.306-.279.016-.026.1,0,.158-.007.021,0,.037-.044.056-.067a.323.323,0,0,1-.091-.045,1.638,1.638,0,0,1-.116-.141.654.654,0,0,1,.169-.083.3.3,0,0,1,.335.12.908.908,0,0,0,.195.2c.012.009.082-.046.109-.085s.028-.1.013-.115c-.068-.05-.153-.077-.218-.131-.015-.013.046-.1.04-.155,0-.026-.083-.069-.119-.06-.1.024-.187.081-.285.1-.037.009-.095-.031-.127-.066a.12.12,0,0,1,0-.107.543.543,0,0,1,.565-.2,1.476,1.476,0,0,0,.316.03c.029,0,.059-.031.089-.048a.6.6,0,0,1-.125-.065.286.286,0,0,1-.086-.114c-.068-.2-.13-.228-.319-.088-.173.127-.4.194-.579.321a.8.8,0,0,1-1.087.042c-.04-.029-.107-.018-.143-.049a.182.182,0,0,1-.055-.138c.007-.035.069-.061.109-.085.013-.008.039.005.053,0,.046-.025.09-.055.134-.083-.068-.018-.058-.168-.2-.1a1.16,1.16,0,0,1-.411.064c-.049,0-.242-.25-.224-.3.009-.024.062-.025.087-.046.142-.116.139-.114,0-.23a.718.718,0,0,1-.106-.151c.04-.025.086-.078.122-.072.209.036.272-.157.391-.259.071-.061.135-.142.225-.056.257.247.645.271.868.566.091.12.129.029.2-.016.029-.018.124.035.158.08a.479.479,0,0,1,.108.236c.016.194.147.119.239.129.027,0,.059-.031.088-.048-.024-.021-.049-.061-.073-.06-.187.012-.138-.13-.139-.233,0-.157.117-.1.2-.113a.88.88,0,0,1,.585.181c.047.029.122.008.184.01a.657.657,0,0,1-.074-.123c-.005-.014.031-.061.054-.066.184-.043.374-.066.554-.123a.781.781,0,0,0,.249-.179c.016-.014.006-.074-.007-.107-.007-.015-.067-.026-.072-.019-.157.263-.407.178-.634.2-.277.025-.552.077-.829.11-.107.013-.23.025-.208-.161,0-.013-.061-.05-.065-.047-.2.21-.38.072-.576-.016s-.163-.331-.285-.468c-.015-.016.008-.071.014-.108a.955.955,0,0,0,.5-.106c.064-.019.153.06.233.088s.135.013.189-.1c.088-.185.335-.314.468-.209.323.257.586-.011.82-.093a2.966,2.966,0,0,1,.812-.157c.187-.012.4.1.56-.1a.4.4,0,0,0,.216.057V9.144a.224.224,0,0,1-.182.055.739.739,0,0,0-.5.217c.121,0,.243,0,.365,0a.2.2,0,0,1,.167.123l.155-.1v.065l-.141.092a.152.152,0,0,1-.032.115c-.113.134-.214.314-.436.273a.56.56,0,0,0-.117,0l-.218.146a.3.3,0,0,0,.023.03c-.087.056-.171.148-.263.16l-.048,0-.185.126a1.108,1.108,0,0,1,.264.039c.087.028.215.1.225.17.026.189-.153.08-.224.13a.573.573,0,0,1-.629.013l-.092-.038c-.676.475-.592.46-.509.374a.377.377,0,0,1,.365,0,1.294,1.294,0,0,0,.669.109.142.142,0,0,1,.1.094c.013.129-.179.368-.292.356-.17-.018-.36.082-.511-.09-.022-.025-.1-.018-.143,0-.34.2-.705.047-1.056.077-.073.006-.123-.064-.243-.006-.215.1-.439-.035-.62-.187a.281.281,0,0,1-.08-.189c-.005-.279-.055-.387-.275-.4a1.885,1.885,0,0,1-.629-.206c-.031-.014-.052-.052-.078-.079C131.656,10.6,131.682,10.56,131.7,10.563Zm-3.947,1.025c.1,0,.2.029.28-.077a1.046,1.046,0,0,0,.065-.12.341.341,0,0,0-.1-.029.32.32,0,0,0-.034.005l.23-.237a.5.5,0,0,0,.216.105c.064.007.209.11.224-.081-.177-.013.166-.293-.12-.256a.315.315,0,0,1-.012-.087l.115-.119c.09-.049.169-.007.27.132a1.272,1.272,0,0,0,.219.245.2.2,0,0,0,.18.034c.091-.066.18-.165.251-.009a.289.289,0,0,1-.214.377.932.932,0,0,0-.554.119c-.191-.141-.32,0-.473.1a.806.806,0,0,1-.6.129c-.032-.006-.058-.043-.085-.08Zm-1.205,1.245.637-.658c.02.012.038.026.058.038l-.214.177a.994.994,0,0,0,.164,0c.131-.022.27.12.28.283,0,.022.046.052.075.058a.131.131,0,0,0,.1-.019c.293-.249.3-.264.555-.053.1.088.2.06.3.074,0-.041,0-.081,0-.121,0-.1.03-.144.077-.107.138.109.327.18.311.413-.009.124.049.195.153.151s.068-.13.019-.226a.672.672,0,0,1-.055-.315c0-.047.064-.108.113-.135.072-.04.351.077.1-.171a2.366,2.366,0,0,1,.351-.058c.222,0,.237.016.109.249a.524.524,0,0,0-.005.514c.037.079.059.165.089.247a.531.531,0,0,0,.362.363,2.283,2.283,0,0,1,.417.187c.035.018.049.077.073.118a.385.385,0,0,1-.1.033,1.087,1.087,0,0,0-.269.014c-.061.021-.1.1-.156.155.062.02.125.039.186.062.046.017.09.039.135.059-.039.041-.073.108-.117.117a1.288,1.288,0,0,1-.47.046c-.7-.143-.865-.183-1.336.041a1.805,1.805,0,0,1-.571.075.152.152,0,0,1-.132-.063c-.1-.329-.36-.265-.6-.281a.99.99,0,0,1-.282-.109c-.031-.013-.061-.03-.092-.045.031-.041.055-.1.095-.117a.691.691,0,0,1,.247-.063c.255-.008.51,0,.765-.008.03,0,.079-.072.078-.111s-.051-.107-.081-.108c-.347-.008-.692,0-1.039-.005-.085,0-.2.025-.179-.123.006-.042.091-.075.144-.1a1.748,1.748,0,0,1,.164-.072c-.049-.014-.1-.03-.147-.043-.017,0-.04.006-.055,0-.111-.068-.222-.139-.333-.209A.323.323,0,0,0,126.552,12.833Zm-2.031,8.134a.215.215,0,0,1,.136.085.127.127,0,0,0,.1.028.278.278,0,0,0,.089-.05c-.01-.013-.016-.031-.03-.04a.929.929,0,0,0-.22-.132l-.071-.022v-5.9l.831-.859a.332.332,0,0,0,.039-.022.577.577,0,0,1,.643-.037,3.125,3.125,0,0,0,1.185.324.455.455,0,0,1,.248.059c.083.055.207.161-.035.173-.025,0-.068.085-.063.126s.067.1.1.093c.312-.051.649.138.939-.109.2.062.4.107.493.341.02.05.09.078.136.117a.529.529,0,0,0,.074-.181.438.438,0,0,1,.172-.392c.046-.025.089-.056.134-.084-.05-.01-.1-.018-.152-.031s-.1-.033-.144-.05a.389.389,0,0,1,.126-.061.483.483,0,0,1,.388.128,1.772,1.772,0,0,0,1.451.309c.12-.014.215-.25.323-.384a.849.849,0,0,1-.141-.057c-.2-.128-.207-.159-.054-.3.063-.06.149-.152.211-.141a2.216,2.216,0,0,1,.421.163c-.233.192.031.146.085.2.008.009-.011.067-.029.076-.092.044-.189.076-.28.12-.031.015-.05.056-.073.085.311.017.119.22.131.356,0,.048.1.107.161.12.03.006.115-.089.11-.129-.026-.193.127-.258.217-.367a.391.391,0,0,0-.085-.524c-.027-.018-.09-.013-.094-.03-.049-.2-.436.034-.336-.215.071-.176-.056-.253-.022-.373.017-.064.041-.17.074-.176a.258.258,0,0,0,.247-.244.5.5,0,0,0-.066-.373.552.552,0,0,1-.021-.374.3.3,0,0,1,.369-.271c.241.02.478.074.718.11.117.018.092.056.035.131-.074.1-.123.216-.2.312s-.163.214-.3.057c-.073-.082-.158-.078-.2.05-.032.1-.072.2-.1.3s-.011.182.12.182c.029,0,.084.035.083.052a.492.492,0,0,0,.379.525c.11.041.032.085-.045.112-.046.017-.073.094-.109.145a.391.391,0,0,0,.122.075c.071.013.145,0,.218,0,.122.012.081.058.033.132a.365.365,0,0,0-.04.208.146.146,0,0,0,.082.11.162.162,0,0,0,.13-.061,1.48,1.48,0,0,0,.087-.189.319.319,0,0,1,.073-.079c.081.074.158.152.235.231s.04.156-.02.24a.21.21,0,0,0,0,.187,1.482,1.482,0,0,0,.23.243.24.24,0,0,0,.073-.072c.079-.147.238-.23.3-.374a2.285,2.285,0,0,0,.115-.521c.025-.141.128-.222.253-.168a4.929,4.929,0,0,1,.456.228c.153.087.143.176,0,.357a.219.219,0,0,0-.009.189c.052.108.239.16.164.315-.054.112-.2.283-.261.265-.272-.083-.526.327-.792.019-.012-.014-.064.01-.1.017a1.062,1.062,0,0,1,.042.121c.012.051.015.1.021.155-.325.03-.154.457-.415.562-.112.045-.177.228-.326.06-.012-.012-.087.008-.092.026-.088.305-.223.248-.423.1-.08-.061-.239-.01-.363-.01,0,.025-.006.051-.009.077.152.051.3.1.454.153a.47.47,0,0,1,.088.053.577.577,0,0,1-.073.08,3.638,3.638,0,0,1-.381.28c-.119.068-.04.328-.262.28a7.2,7.2,0,0,0-.254.745c-.017.073.1.261.148.258.336-.025.327.239.392.453a.213.213,0,0,0,.119.131c.22.05.444.08.665.12.066.013.163.015.191.059.18.292.512.286.76.44a.524.524,0,0,0,.19.07c.157.024.352-.015.459.071.072.057.026.286.017.436a.439.439,0,0,0,.147.4,6.2,6.2,0,0,1,.447.48c.034-.035.059-.05.057-.061-.027-.226.321-.28.225-.532-.062-.164-.136-.322-.2-.486-.036-.1-.035-.167.1-.2.077-.018.131-.127.21-.156a.479.479,0,0,0,.342-.537.537.537,0,0,0-.348-.556c-.171-.069-.109-.153-.032-.243a1.559,1.559,0,0,1,.194-.2c.09-.075,0-.106-.015-.166-.053-.168-.23-.337-.03-.524a.061.061,0,0,0,0-.055c-.046-.088-.2-.17-.066-.272a.464.464,0,0,1,.314-.023c.1.015.192.111.283.1a1.284,1.284,0,0,1,.278,0v7.144a.934.934,0,0,0-.265.534.136.136,0,0,1-.095.095.172.172,0,0,1-.117-.076.576.576,0,0,1-.056-.146c-.013.013-.031.024-.038.039-.025.066-.167.067-.067.208a1.851,1.851,0,0,1,.159.443c.04.114.191.25-.1.233-.246-.016.031.137-.032.186a1.4,1.4,0,0,1-.342.238,1.6,1.6,0,0,0-.64.58.687.687,0,0,0-.016.727,1.743,1.743,0,0,1,.145.908c0,.033-.03.086-.049.088a.209.209,0,0,1-.145-.029,1.472,1.472,0,0,1-.342-.76c.012-.243-.158-.333-.285-.448-.091-.082-.253.184-.389-.053-.044-.079-.259-.06-.4-.072a.6.6,0,0,0-.665.256c-.071.122-.156.1-.266.014a.934.934,0,0,0-.33-.126.409.409,0,0,0-.206-.026c-.1.025-.251.066-.266.13-.071.31-.46.161-.539.435a.879.879,0,0,0-.055.2,3.84,3.84,0,0,1-.1.872,1.546,1.546,0,0,0,.647,1.332c.219.138.411-.069.625-.01.168.047.28-.038.363-.232.177-.416.2-.4.559-.534a.227.227,0,0,1,.278.3c-.073.157-.062.389-.171.489-.175.161-.055.377-.152.511-.138.19-.021.159.089.16.219,0,.438-.008.656,0a.882.882,0,0,1,.293.086c.215.1.233.129.151.347a1.124,1.124,0,0,0,.091,1.042c.165.261.29.3.595.184a.525.525,0,0,1,.672.114c.076.093.157.068.224-.017.087-.11.22-.176.221-.367a.336.336,0,0,1,.228-.237,1.135,1.135,0,0,0,.129-.025v6.611c-.25-.1-.5-.224-.483-.6-.4-.4-.452-.994-.762-1.442-.131-.191-.273-.375-.393-.574-.042-.071-.073-.21-.036-.259a1.471,1.471,0,0,1,.307-.25c-.085-.113-.194-.185-.219-.366-.039-.283.288-.334.27-.576.172.022.163-.144.226-.236.123-.179.405-.27.378-.515-.024-.211-.081-.421-.106-.639-.021-.186-.278-.289-.222-.529-.086-.014-.183-.062-.253-.033a.328.328,0,0,0-.164.2c-.04.172-.11.16-.22.079-.084-.062-.167-.157-.259-.169-.159-.02-.323.011-.341-.229,0-.015-.022-.034-.038-.04-.111-.042-.251-.052-.326-.131s-.063-.242-.129-.338a1.469,1.469,0,0,0-.442-.51,2.737,2.737,0,0,0-.606-.115.8.8,0,0,1-.411-.217,2.219,2.219,0,0,0-.421-.319.327.327,0,0,0-.287-.012c-.2.132-.341.068-.534-.032-.36-.187-.76-.292-1.123-.475a3.774,3.774,0,0,1-.631-.475.163.163,0,0,1-.027-.147c.252-.248,0-.435-.116-.544-.239-.233-.332-.612-.677-.737-.04-.015-.068-.081-.09-.129a1.175,1.175,0,0,0-.556-.652c-.125-.066-.242-.091-.224-.3a1.007,1.007,0,0,0-.158-.44c-.055-.121-.172-.125-.281-.107-.025,0-.061.082-.059.084.122.1.054.247.074.371.005.034.02.088.04.094.416.114.353.65.683.848.062.037.036.21.088.3s.112.174.012.234c-.126.075-.227-.063-.247-.144-.016-.066.093-.154-.025-.242-.1-.077-.179-.258-.274-.265-.228-.015-.267-.073-.178-.288a.286.286,0,0,0-.1-.234,2.606,2.606,0,0,1-.549-.908c-.125-.242-.261-.468-.535-.533a.647.647,0,0,1-.433-.391,9.67,9.67,0,0,1-.6-1.054,3.683,3.683,0,0,1-.072-.539c-.043-.217-.163-.4-.02-.66.1-.187-.029-.5.04-.725a.378.378,0,0,0-.013-.257,1.337,1.337,0,0,0-.706-.946.3.3,0,0,1-.063-.064Z"/><path d="M154.889,54.384l14.1-14.448V0l-14.1,14.564ZM161.283,38.2c-.287.036-.2.268-.184.424.041.381-.182.687-.246,1.039a5.62,5.62,0,0,1-.215.643c-.034.107-.04.284-.252.349-.313.095-.295.137-.5-.066a.282.282,0,0,1-.107-.293c.061-.182-.278-.35-.007-.536a.324.324,0,0,0,.087-.186c.03-.132.171-.249.032-.413-.045-.053-.01-.183-.007-.277a1.278,1.278,0,0,1,.039-.493c.046-.092.233-.127.362-.151.394-.073.526-.41.695-.716a.161.161,0,0,1,.11-.082.145.145,0,0,1,.1.087c.049.17.085.344.125.51C161.307,38.1,161.3,38.2,161.283,38.2Zm.583-25.3a1.483,1.483,0,0,0,.255-.171c.028-.029-.041-.158-.013-.186.07-.073.18-.1.255-.17.109-.1-.044-.325.157-.385a.343.343,0,0,0,.262-.277c.24-.012,0-.294.186-.353.159-.051.3-.165.463-.2a1.437,1.437,0,0,0,.665-.248c.152-.133.243.089.416.053.342-.071.628-.27.959-.345a.979.979,0,0,1,.2-.048.147.147,0,0,1,.121.069.165.165,0,0,1-.044.144,1.142,1.142,0,0,1-.4.232,3.992,3.992,0,0,0-1.465.571,1.892,1.892,0,0,1-.332.124.352.352,0,0,0-.161.091,5.211,5.211,0,0,1-.68.9c-.092.088-.092.15-.034.281a1.089,1.089,0,0,0,.585.556c-.279,0-.456-.011-.632,0a.314.314,0,0,1-.338-.207c-.025-.053-.072-.126-.116-.132a.543.543,0,0,0-.206.054c0-.1-.007-.188-.138-.18-.013,0-.045-.066-.04-.094S161.836,12.917,161.866,12.9Zm-6.07,13.59c.085.021.171.041.253.067.158.049.374.182.485.112a.824.824,0,0,1,.458-.093q.273-.012.547,0c.154.007.226-.092.271-.219a2.866,2.866,0,0,1,.28-.786c.132-.173-.154-.3.035-.411-.035-.024-.07-.065-.107-.069a.478.478,0,0,0-.267.011.5.5,0,0,1-.714-.075c-.016-.017-.082,0-.111.018-.273.179-.25.12-.535.006-.453-.183-.379-.626-.522-.959a.58.58,0,0,0-.072-.118V17.931a.337.337,0,0,1,.284.049c.191.129.281-.252.493-.237-.016-.041-.021-.094-.049-.119a.429.429,0,0,0-.543-.039.3.3,0,0,1-.185.053V14.931l1.021-1.054h.216c.109,0,.219-.006.328,0,.249.016-.018.143.035.188a.2.2,0,0,0,.147.037,1.508,1.508,0,0,1,1.035.289,5.4,5.4,0,0,0,.544.283c.124.055.215.117.221.273.007.185-.111.233-.244.308a1.265,1.265,0,0,1-.97.045,2.757,2.757,0,0,0-.591-.177c-.077,0-.143-.176-.264-.056.078.061.161.117.235.183.129.114.329.134.313.415-.027.456.14.6.6.612a1.362,1.362,0,0,0,.228-.047,1.415,1.415,0,0,0-.22-.158c-.094-.038-.246-.036-.166-.192.026-.049.187-.037.285-.027a.86.86,0,0,1,.292.086c.087.044.155.2.26.062.026-.033-.05-.15-.078-.229a.2.2,0,0,1,.141-.265.846.846,0,0,0,.419-.2c.049-.045.2.047.31.054.077,0,.2.058.21-.091.005-.093.068-.238-.117-.25-.125-.009-.053-.059-.036-.131.029-.116.224-.2.073-.355.026-.028.051-.078.08-.08a1.7,1.7,0,0,1,.328,0,.184.184,0,0,1,.11.085.116.116,0,0,1-.017.1c-.046.056-.1.143-.158.146-.357.023-.032.2-.025.232.061.25.263.073.4.112s.124-.078.135-.176c.007-.056.065-.156.092-.154a.89.89,0,0,0,.6-.263c.194-.142.44.027.593-.194.032-.047.136-.014.066.14-.057.125.163.257.261.153.276-.294.655-.188.978-.3.122-.041.146.064.139.169.087-.02.209-.01.252-.067s.088-.236.048-.287a2.7,2.7,0,0,0-.368-.295c-.032-.028-.03-.1-.044-.15.038,0,.082-.015.112,0a2.608,2.608,0,0,0,.98.3,1.647,1.647,0,0,1,.959.46c.036.036.092.089.127.08a.388.388,0,0,0,.171-.113c.018-.019,0-.078-.008-.118,0-.016-.024-.027-.036-.041-.274-.3-.247-.308-.351-.776-.037-.167-.059-.265.092-.314a.338.338,0,0,0,.261-.357c.005-.089.128-.167.188-.258.113-.171.158.1.254.039.013-.008.035,0,.054,0l.472.05a4.558,4.558,0,0,1-.185.429c-.06.111-.015.173.057.237.121.108.152.18.055.368a.588.588,0,0,0,.042.634c.211.217.066.422-.024.55-.168.241-.375.546-.743.271a.275.275,0,0,0-.068.095.1.1,0,0,0,.039.092,1.149,1.149,0,0,0,1.224-.457c.042-.071.025-.178.048-.264.028-.1-.1-.284.134-.293.279-.01.369.05.411.3a2.171,2.171,0,0,0,.053.263c0,.012.067.009.1.006.015,0,.027-.022.041-.033-.125-.13,0-.287-.03-.391a.342.342,0,0,0-.37-.263,1.562,1.562,0,0,1-.273,0c-.291,0-.4-.105-.271-.349a.457.457,0,0,0-.053-.527c-.125-.2-.082-.217.1-.3.1-.047.324-.161.174-.389a.271.271,0,0,1,.095-.035c.031,0,.089.029.087.04a1.547,1.547,0,0,1-.049.309c-.091.3-.079.326.2.333.088,0,.177,0,.364,0-.158-.107-.242-.16-.322-.22a.308.308,0,0,1-.052-.079.283.283,0,0,1,.092-.041c.091-.006.182,0,.273,0,0-.038.013-.1,0-.11a.489.489,0,0,0-.144-.049c.055-.023.127-.082.163-.064a.871.871,0,0,0,.146.051V32.072a1.24,1.24,0,0,1-.383.436,1.144,1.144,0,0,1-.274-.545c-.111-.331-.276-.642-.407-.967a3.825,3.825,0,0,1-.351-1.563.931.931,0,0,0-.006-.284c-.019-.064-.1-.11-.147-.164a.558.558,0,0,0-.062.176c0,.126-.053.143-.16.161-.219.037-.338-.1-.451-.245-.092-.118.039-.078.08-.106a.172.172,0,0,0,.049-.09,4.611,4.611,0,0,0-.379-.285.708.708,0,0,1-.313-.313c-.028-.066-.178-.1-.276-.1a5.478,5.478,0,0,0-.819,0,3.622,3.622,0,0,1-.993-.125c-.078-.013-.194-.079-.209-.141-.067-.294-.2-.223-.385-.126a.412.412,0,0,1-.29-.006c-.128-.041-.242-.126-.367-.177a.851.851,0,0,1-.414-.423c-.049-.092-.1-.231-.172-.254a1.141,1.141,0,0,0-.431,0c-.021,0-.055.1-.047.142a.845.845,0,0,0,.111.349,1.387,1.387,0,0,1,.383.639c.012.066.1.168.186.03.027.027.069.05.079.082.117.382.227.441.557.278a1.474,1.474,0,0,0,.3-.2c.1-.084.183-.186.306-.315a1.12,1.12,0,0,1,.037.249.3.3,0,0,0,.214.338.644.644,0,0,1,.095.035c.521.295.537.386.111.839-.228.242-.335.6-.683.734-.093.036-.188.077-.282.116-.187.078-.439.077-.51.35-.008.032-.048.057-.076.081a.1.1,0,0,1-.048.017,4.516,4.516,0,0,0-1.084.44,3.227,3.227,0,0,1-.5.127.319.319,0,0,1-.4-.349c.035-.515-.343-.85-.451-1.3a.2.2,0,0,0-.11-.121c-.268-.107-.3-.334-.335-.594a.532.532,0,0,0-.333-.5c-.043-.013-.077-.1-.092-.161-.094-.383-.447-.593-.578-.951-.026.029-.055.055-.079.085s-.05.064-.076.1c-.069-.081-.19-.116-.13.031.078.191.073.424.26.58a.8.8,0,0,1,.161.381c.049.167.063.151.251.41a1.239,1.239,0,0,1,.18.592.7.7,0,0,0,.177.444.89.89,0,0,1,.256.453.468.468,0,0,0,.258.4,1.967,1.967,0,0,1,.527.459c.1.1.275.176.117.384-.019.025.128.2.209.293.106.126.174-.016.265-.039.269-.068.549-.088.824-.135a1.072,1.072,0,0,0,.241-.079c.091-.039.177-.09.265-.136a.968.968,0,0,1,.034.378,6.3,6.3,0,0,1-.336.711c-.017.032-.069.051-.073.082-.1.628-.573.919-.994,1.282a12.186,12.186,0,0,0-1.161,1.21c-.106.122-.113.349-.182.486-.1.205-.033.313,0,.493a1.724,1.724,0,0,0,.216.772c.062.085.016.256.021.387a1.08,1.08,0,0,0,.036.439.365.365,0,0,1-.029.443c-.179.3-.17.316-.387.4-.127.047-.3.069-.365.166-.154.222-.384.349-.541.555-.026.033-.031.131-.009.147.171.126.014.352.119.463.168.178-.156.273-.035.441.053.072-.007.145-.126.179a.508.508,0,0,0-.415.645.342.342,0,0,1-.129.345,3.158,3.158,0,0,0-.532.739,1.553,1.553,0,0,1-.41.43,1.4,1.4,0,0,1-.4.161Z"/><path d="M139.252,39.82l14.1,14.564V14.448L139.252,0Zm13.195-4.492a1.173,1.173,0,0,1-.365-.464c-.048-.142-.117-.231-.051-.4a3.252,3.252,0,0,0,.172-.725.326.326,0,0,0-.29-.419,1.5,1.5,0,0,0-.272,0c-.271,0-.274,0-.531-.291s-.56-.167-.85-.125a1.13,1.13,0,0,0-.373.158,1.125,1.125,0,0,1-.854.1.92.92,0,0,0-.62.085c-.3.176-.5.014-.714-.129a3.359,3.359,0,0,1-.418-.323c-.16-.146-.372-.235-.441-.486a.918.918,0,0,0-.214-.306,2.257,2.257,0,0,0-.271-.282c-.083-.072-.02-.294-.223-.238.012-.314-.252-.572-.1-.934.233-.547.25-.588.014-1.068a.611.611,0,0,1,.046-.657c.163-.255.263-.55.439-.78.155-.2.249-.461.551-.587a.8.8,0,0,0,.544-.819,1.53,1.53,0,0,1,.211-.587.108.108,0,0,1,.087-.051c.258.01.353-.175.458-.379.114-.222.166-.214.432-.142a.915.915,0,0,0,.9-.106,2.019,2.019,0,0,1,.865-.283c.327-.06.669.055,1-.114.126-.065.287.081.456,0a.281.281,0,0,1,.373.143c-.154.166.135.333-.009.516-.092.119-.05.22.048.328Zm-.88-18.478c.234-.041-.109-.162.026-.212.093-.035.271-.049.274-.087.022-.232.093-.138.176-.045.083-.151.119-.327.34-.363a.119.119,0,0,0,.064-.046V18.07c-.06-.052-.146-.041-.269.04a1.228,1.228,0,0,0-.2.183c-.228.236-.471.066-.709.031-.014,0-.039-.028-.036-.038a.827.827,0,0,0,.051-.274c-.01-.045-.233-.037-.158-.134.149-.19-.028-.325-.019-.487C151.128,17.023,151.2,16.912,151.567,16.85Zm-.3,3.231a.668.668,0,0,1,.431-.129c.082,0,.172.14.233-.018a.562.562,0,0,0,.026-.306,1.955,1.955,0,0,0-.146-.279.4.4,0,0,1,.163-.556c.087-.06.167-.13.254-.189a.093.093,0,0,1,.073.006c.017.127-.014.291.05.376.169.225-.082.11-.106.169s-.052.12-.033.151c.045.072.132.106.024.211-.066.064-.056.158.076.2a.771.771,0,0,1,.133.058v3.554a1.03,1.03,0,0,1-.149-.258.286.286,0,0,0-.371-.152.856.856,0,0,0-.366.17c-.163.154-.3.277-.5.066-.037-.039-.139-.008-.211-.012-.1-.006-.194,0-.17.139.046.278-.106.384-.319.487-.325.157-.318.173-.464.675l-.428.593c-.1.017-.2.037-.308.05-.137.017-.293-.051-.4.109-.012.019-.073.018-.1,0-.252-.108-.477-.314-.781-.239-.009,0-.039-.03-.036-.038.076-.222-.156-.4-.078-.62a2.076,2.076,0,0,0,.145-.392c.013-.108-.068-.226-.073-.341-.016-.374.034-.443.393-.422a2.865,2.865,0,0,1,1.171.078c.028.014.125-.059.147-.11a2.085,2.085,0,0,0,.14-.452.364.364,0,0,0-.124-.4c-.186-.127-.264-.421-.563-.385-.048.006-.111-.086-.158-.141a.117.117,0,0,1-.022-.1c.023-.039.068-.091.1-.09a.607.607,0,0,1,.357.065c.156.1.185.061.227-.2.016-.094.022-.1.109-.095a.88.88,0,0,0,.726-.284c.009-.012,0-.039.005-.054.111-.222.438-.162.515-.386A1.171,1.171,0,0,1,151.267,20.08Zm-1.919-1.516c.163.013.1.061.043.154a1.028,1.028,0,0,0-.116.347.231.231,0,0,0,.048.182,2.392,2.392,0,0,1,.592.827c.036.079.1.187.171.2.209.033.2.113.087.251a.881.881,0,0,0-.143.165c-.02.042.209.105,0,.163-.068.019-.148-.012-.216.007a.729.729,0,0,0-.174.109c-.116-.214-.227.022-.346.012a1.42,1.42,0,0,0-.391.1.49.49,0,0,1-.156-.016c.026-.054.052-.108.081-.161a.133.133,0,0,1,.038-.04l.261-.2c-.1-.012-.21-.018-.313-.039-.03-.006-.077-.075-.074-.078.059-.072.125-.138.188-.205-.059-.06-.153-.118-.024-.2a.26.26,0,0,1,.115-.045c.192-.013.27-.072.234-.2-.022-.084-.1-.158-.1-.239-.007-.179-.04-.2-.163-.07-.029.029-.1.016-.157.012-.173-.009-.107-.079-.033-.15.028-.1.024-.082-.114-.116-.062-.016-.1-.113-.157-.173.144-.1-.021-.14-.041-.206a.348.348,0,0,1,.1-.312c.04-.039.11-.08.111-.121,0-.148.063-.189.2-.182.248.012.083.107.039.179C149.071,18.531,149.209,18.553,149.349,18.564Zm.7-3.087c.054,0,.126.023.16,0,.067-.055.134-.207.166-.2a.968.968,0,0,1,.3.191c.084.07.154.16.233.239a.142.142,0,0,1-.005.234.8.8,0,0,1-.343.24c-.2.05-.449.061-.6.278-.029.043-.127.038-.195.048-.228.036-.375-.156-.557-.239a.417.417,0,0,1-.2-.322c.027-.3-.157-.23-.308-.239-.035,0-.068-.01-.18-.027.086-.085.135-.14.191-.189.232-.207.323-.192.5.078.079.118.075.114.221-.014a.322.322,0,0,1,.177-.073C149.756,15.47,149.9,15.477,150.046,15.477Zm-9.888-7.64c.07.016.14.034.21.047a1.254,1.254,0,0,0,.186.007.6.6,0,0,1-.074-.122c0-.014.031-.063.054-.066.257-.042.516-.095.775-.112s.282.019.359.292c.014.051.031.1.046.151.051-.048.125-.087.148-.147s-.021-.127-.035-.192c-.018-.089.014-.137.075-.108.153.073.3.157.458.224.041.018.1-.013.153-.022-.019-.041-.035-.083-.057-.121-.034-.056-.073-.108-.11-.162.068-.012.145-.05.2-.03.319.114.634.241.949.367.047.019.083.066.131.082.025.009.063-.019.094-.03-.011-.027-.015-.066-.034-.079-.085-.059-.173-.113-.263-.164-.249-.14-.25-.146-.025-.3a1.276,1.276,0,0,1,.51-.231,2.209,2.209,0,0,1,.447-.1c.135.005.257.065.406,0a.368.368,0,0,1,.068-.009l4.424,4.532a.172.172,0,0,0,.061.084c.01.005.022.007.032.012l.175.179c-.139.022-.28.04-.419.059-.031.247.316.132.309.4-.271-.053-.557.1-.816-.116-.022-.019-.111.013-.138.047a.956.956,0,0,0-.116.234.145.145,0,0,0,.079.054c.163.005.328,0,.492.008.029,0,.075.077.073.116a.142.142,0,0,1-.088.1,4.461,4.461,0,0,1-.455,0c.238.167.372.258.5.353a.321.321,0,0,1,.116.431c-.111.172-.273.18-.45.02a1.533,1.533,0,0,0-.158-.158c-.053-.035-.154-.079-.178-.056a.69.69,0,0,0-.121.229c-.057.136.069.064.1.1.207.217.483.045.771.161a7.8,7.8,0,0,1-1.209.555,4.757,4.757,0,0,1-.959.195c-.145,0-.239,0-.311.191-.066.173-.243.3-.346.476-.012.022-.039.031-.055.05a.98.98,0,0,1,.3.189c.084.07.154.16.233.239a.142.142,0,0,1-.005.234.8.8,0,0,1-.343.24c-.2.05-.449.061-.6.278-.029.043-.127.038-.195.048-.228.036-.375-.156-.557-.239a.417.417,0,0,1-.2-.322.333.333,0,0,0-.014-.145.2.2,0,0,1-.026.013c-.154.043-.04.1-.049.155a4.628,4.628,0,0,1-.22.741c-.008.025-.1.021-.148.027-.089.01-.175-.022-.075.142.163.269-.056.518-.13.765-.047.158-.211.16-.364.082-.181-.092-.371-.167-.559-.244a.9.9,0,0,1-.448-.36c-.122-.15-.349-.231-.318-.49-.3-.333-.3-.855-.687-1.135-.139-.1-.149-.2.065-.252.136-.029.023-.1-.011-.141-.062-.082-.206-.153-.106-.272.115-.137.1-.394.383-.392.262,0,.262-.035.247-.338-.012-.249-.094-.337-.319-.337-.073,0-.146.006-.064.114.125.165.068.239-.118.226a.713.713,0,0,1-.253-.05c-.084-.041-.213-.108-.219-.174-.016-.189.154-.125.235-.11.264.047.1-.213.134-.217.151-.023.323-.076.445.094.013.018.069,0,.106,0,0-.041.009-.1-.012-.118-.092-.081-.193-.208-.294-.211-.193-.007-.191-.1-.2-.249,0-.037-.089-.079-.143-.1-.016-.007-.051.059-.081.062-.1.011-.2.009-.3.012,0-.09-.038-.218,0-.263.177-.186.049-.332-.025-.492-.129-.283-.149-.647-.527-.736-.03-.007-.054-.05-.078-.079a1.533,1.533,0,0,0-.467-.428Zm0,11.558a1.189,1.189,0,0,0,.531.2.316.316,0,0,1,.092.044c-.02.023-.036.054-.06.068a1.121,1.121,0,0,1-.142.054c.043.021.1.03.126.065.051.063.078.149.133.205.016.016.115-.073.147-.056.219.117.195.6-.047.635a1.179,1.179,0,0,0-.673.386.27.27,0,0,1-.106.059Zm0,13.037a.477.477,0,0,1,.195.039,1.41,1.41,0,0,1,.275.275c.252.259.272.233.693.239a.975.975,0,0,1,.9.557c.08.157.178.3.266.457.026.045.071.123.057.141-.287.355.071.288.211.376.049.031.179.078.053.2-.045.045.088.127.148.055s.082-.183.133-.19c.259-.037.422.211.654.269-.056.456.191.2.366.2.1,0,.2.115.337.1a.956.956,0,0,1,.9.347.834.834,0,0,0,.3.2c.369.17.534.437.37.768-.1.2-.128.469-.4.568-.246.09-.211.517-.537.557a.45.45,0,0,0-.018.157c0,.248,0,.5,0,.743a.446.446,0,0,1-.132.405c-.056.046-.064.159-.087.244a1.641,1.641,0,0,1-.384.8.329.329,0,0,1-.224.112c-.454-.077-.733.279-1.08.46a.619.619,0,0,0-.381.73c.08.294-.24.358-.238.593a.249.249,0,0,1-.014.049l-2.361-2.439Z"/><path d="M170.527,0V39.82l14.1,14.564V14.448Zm3.346,35.762c0,.022-.141.062-.24.1a1.431,1.431,0,0,1-.256-.165c-.2-.195-.374-.42-.586-.6-.169-.141-.064-.391-.259-.527a.8.8,0,0,1-.315-.488c-.056-.223-.332-.381-.5-.58-.089-.108-.257-.163-.241-.35,0-.016.022-.043.03-.042.161.034.323.065.481.113.046.014.077.078.117.117a3.007,3.007,0,0,0,.985.82.512.512,0,0,1,.265.392c.035.174.231.314.36.466,0,0,.047-.044.074-.063.125-.089.224-.054.2.1A2.375,2.375,0,0,0,173.873,35.762Zm.776-1.233c-.016-.051,0-.124-.035-.154-.1-.1-.1-.18,0-.282s.159-.126.269-.021.2.07.2-.1c0-.13.009-.221.171-.2a.308.308,0,0,0,.389-.271c.017-.076.153-.13.242-.182.058-.034.134-.034.191-.069a2.764,2.764,0,0,1,.729-.164c.092.018.206.009.064.14a1.541,1.541,0,0,0-.154.162c-.195.244-.219.391-.019.626.158.187.113.26-.074.332a.51.51,0,0,0-.09.037c.063.288-.168.464-.239.7-.026.086.006.213-.044.262s-.167.029-.2.033c-.307-.052-.566-.079-.816-.144A1.128,1.128,0,0,1,174.649,34.529Zm9.073,9.583c-.037.024-.067.045-.112.072a1.112,1.112,0,0,0-.129.086c-.092.075-.176.2-.272.215-.069.007-.16-.139-.229-.228s-.106-.052-.158.012c-.135.167-.267.221-.456.05-.094-.085-.255-.084-.379-.138-.078-.035-.2-.1-.2-.152-.007-.4-.32-.588-.511-.858-.086-.123-.073-.193.022-.283a.1.1,0,0,0-.031-.074c-.032-.013-.091-.019-.1,0-.109.141-.2.3-.319.43-.02.024-.17-.029-.169-.037.023-.226-.333-.275-.232-.537,0-.012-.064-.069-.106-.085a3.853,3.853,0,0,0-.576-.2.846.846,0,0,0-.4.027,2.167,2.167,0,0,1-.808.178c-.085-.008-.179.089-.268.141a.77.77,0,0,0-.258.166.389.389,0,0,1-.385.142,1.213,1.213,0,0,0-.851.207c-.24.189-.267.153-.592-.022-.217-.117-.249-.148-.115-.351a.522.522,0,0,0,0-.6,9.821,9.821,0,0,1-.405-1.081.247.247,0,0,1,0-.19c.059-.084.1-.143.022-.241a.43.43,0,0,1-.017-.464.148.148,0,0,0,0-.119c-.073-.116-.087-.179.073-.234a.921.921,0,0,0,.389-.252c.137-.161.311-.025.452-.112a2.238,2.238,0,0,1,.412-.2.937.937,0,0,0,.707-.709.127.127,0,0,1,.085-.052c.072.075.149.122.224.022.016-.023-.059-.148-.055-.151.238-.128.357-.4.6-.53.142-.075.254-.114.377.016.049.053.106.131.162.135.087.005.2.072.255-.108a3.882,3.882,0,0,1,.262-.458c.088-.188.422-.005.416-.315a.238.238,0,0,1,.076.028,1.093,1.093,0,0,0,.752.178c.049,0,.1.054.185.1a1.936,1.936,0,0,0-.182.2.371.371,0,0,0,.143.612c.222.133.436.278.655.418.127.081.235.04.311-.11a1.611,1.611,0,0,0,.219-.878.865.865,0,0,1,0-.284,3.3,3.3,0,0,1,.149-.393,2.569,2.569,0,0,1,.17.36,2.465,2.465,0,0,1,.009.283.372.372,0,0,0,.093.186A1.68,1.68,0,0,1,183.175,39a.312.312,0,0,0,.225.269.981.981,0,0,1,.321.192Zm0-7.128a.869.869,0,0,1-.241-.1,3.418,3.418,0,0,1-.392-.393.371.371,0,0,0-.519.042c-.234.271-.234.273-.519.126-.129-.067-.306-.236-.37-.2-.166.1-.3.03-.522.088a1.7,1.7,0,0,1,.151-.183c.073-.063.217-.121.214-.176a.587.587,0,0,0-.14-.331.7.7,0,0,0-.3-.2c-.241-.082-.511-.072-.713-.273-.017-.017-.1.021-.14.046-.241.135-.024-.244-.193-.186-.04-.136.068-.073.114-.092l.17-.068c-.048-.016-.11-.059-.144-.042-.252.131-.244-.273-.446-.233,0-.038,0-.1.009-.11a1.613,1.613,0,0,1,.389-.114c.192-.017.278.073.31.283.008.055-.008.116,0,.17a.213.213,0,0,0,.34.157.315.315,0,0,1,.092-.042c.177-.024.224-.314.455-.233.144.051.3.073.445.118a2.914,2.914,0,0,1,.667.237c.234.143.52.208.695.458.061.087.158.208.238.207.315,0,.233.093.078.241a.121.121,0,0,0,0,.114c.126.091.157.276.262.391Zm-1.941-12.723c-.055-.215.06-.274.192-.315s.208,0,.234.191.153.358-.076.512c-.048.033-.027.17-.047.258-.046.207-.035.492-.163.6a2.017,2.017,0,0,1-.7.263c-.065.021-.165,0-.2.04-.141.173-.217.181-.321-.046-.068-.149-.212-.15-.366-.056a2.549,2.549,0,0,1-.473.178l-.06-.068c.13-.087.177-.3.38-.274.131.018.246-.1.336-.1a.521.521,0,0,0,.6-.421.862.862,0,0,0,.111.015A.651.651,0,0,0,181.781,24.261Zm1.941-6.154a4.858,4.858,0,0,0-.57,0c-.448-.307-.738.066-1.054.282a2.544,2.544,0,0,0-.389.4c-.112.121-.259.183-.357.346a2.384,2.384,0,0,1-.516.458.13.13,0,0,0,0,.111c.087.04.242-.075.263.1.032.258.138,0,.181.04a.8.8,0,0,1,.119.185c.052-.054.1-.136.157-.155a.4.4,0,0,1,.289,0,.745.745,0,0,1,.3.32.5.5,0,0,1-.066.383c-.151.231-.072.5-.149.738a4.39,4.39,0,0,1-1.29,1.893c-.123.113-.335.311-.553.08-.02-.022-.078-.039-.095-.025-.179.137-.452.248-.507.43a.71.71,0,0,1-.417.5c-.2.094-.2.211-.032.389a1.386,1.386,0,0,1,.262.287,1.678,1.678,0,0,1,.085.42.933.933,0,0,1-.185.242,2.826,2.826,0,0,1-.346.233c-.031.016-.144-.05-.149-.088a2.554,2.554,0,0,1-.006-.456c.02-.286.023-.283-.271-.369a.187.187,0,0,1-.11-.114.239.239,0,0,1,.049-.159c.088-.128.047-.265-.094-.294a.825.825,0,0,0-.538.16c-.083.042-.16.125-.219.018-.025-.045.049-.154.086-.229.016-.032.068-.053.071-.082a.168.168,0,0,0-.04-.118c-.027-.03-.091-.067-.111-.054-.293.182-.587.364-.867.568-.073.054-.066.171.067.2a.128.128,0,0,0,.054,0c.312-.081.047.352.283.346.17,0,.188-.307.4-.214a1.592,1.592,0,0,1,.223.138l-.728.543a5.839,5.839,0,0,1,.417.608c.052.1.053.209.195.191-.01.035-.018.1-.031.1-.265.023-.079.124-.025.18.109.112.136.177-.058.167v.11c.213.006.152.085.108.248a1.123,1.123,0,0,1-.323.549c-.055.051-.147.107-.148.162-.007.489-.447.575-.7.829a.584.584,0,0,1-.37.155,1.908,1.908,0,0,0-1.113.5c-.148.113-.1.011-.143-.069-.115-.215-.149-.213-.4-.085-.379.19-.519.371-.46.653a.713.713,0,0,0,.325.536c.442.19.413.562.447.952.025.28-.143.358-.286.505-.109.112-.233.069-.34.117-.084.038.005.225-.181.223-.1,0-.208.181-.194-.088,0-.049-.057-.111-.1-.152-.063-.06-.175-.091-.2-.162-.133-.328-.488-.362-.694-.592-.012-.014-.134.034-.143.071-.064.24-.113.485-.166.729,0,.018-.008.045,0,.056.2.245.216.619.5.81.086.058.18.1.261.168a.506.506,0,0,1,.228.531.959.959,0,0,0,0,.228c0,.112.237.213.05.32-.131.076-.192-.155-.3-.183-.383-.1-.424-.474-.5-.751a1.37,1.37,0,0,0-.347-.709.282.282,0,0,1-.068-.392c.134-.227.039-.477.064-.714a.119.119,0,0,0-.048-.091c-.219-.133-.182-.357-.163-.557.018-.183-.086-.272-.182-.382-.144-.162-.121-.039-.167.073-.033.08-.2.183-.244.158l0,0V11c.055-.049.1-.144.189-.014.028.042.141-.123.233.012.026.039.162,0,.248-.01.014,0,.024-.03.04-.038a2.45,2.45,0,0,1,.586-.187c.144-.034.226-.305.356-.451a.721.721,0,0,1,.7-.027c.093.066.1.133,0,.2a.767.767,0,0,0,.163.069,1.4,1.4,0,0,0,.215.012l-.062.161c.083.02.189.083.244.051a1.3,1.3,0,0,1,1.01-.007c.195.042.165.319.372.286l-.073.414a5.572,5.572,0,0,0-.983.562,3.091,3.091,0,0,1-.653.275c-.05.023-.078.1-.115.157a.4.4,0,0,0,.15.032,1.535,1.535,0,0,0,.5-.122c.114-.065.331-.038.328-.277a.252.252,0,0,1,.186-.049,3.058,3.058,0,0,0,.5.122c.349.075.343.106.643.014a.7.7,0,0,1,.617.211c.06.128.16.132.205.1a.442.442,0,0,1,.5.026c.2.138.31-.121.463-.033.015-.032.044-.067.04-.1-.04-.285.158-.3.288-.2.177.134.347.067.517.078a.525.525,0,0,1,.51.61c-.033.36.076.555.379.641.052.015.129-.032.183-.069a.408.408,0,0,0,.093-.129c.145-.239.152-.251.356-.131.128.075.215.181.36.009.048-.057.224.024.313-.021.16-.081.2.263.385.087.076-.072.229-.058.347-.078s.059-.06.031-.134c-.048-.129-.053-.175-.007-.215l1.927,1.975Z"/>
</svg>