<?xml version="1.0" encoding="utf-8"?>
<!-- Generator: Adobe Illustrator 16.0.0, SVG Export Plug-In . SVG Version: 6.00 Build 0)  -->
<!DOCTYPE svg PUBLIC "-//W3C//DTD SVG 1.1//EN" "http://www.w3.org/Graphics/SVG/1.1/DTD/svg11.dtd">
<svg version="1.1" id="Layer_1" xmlns="http://www.w3.org/2000/svg" xmlns:xlink="http://www.w3.org/1999/xlink" x="0px" y="0px"
	 width="600.5px" height="600px" viewBox="0 0 600.5 600" enable-background="new 0 0 600.5 600" xml:space="preserve">
<path fill="#FFFFFF" d="M26.056,544.422L152.77,414.531V55.578L26.056,186.529V544.422z M144.718,184.834
	c-1.695-1.06-3.391-2.119-4.662-3.392c-0.848-0.848-2.119-1.482-2.966-2.33c-1.06-1.061-2.119-2.119-2.543,0.423
	c0,0-0.636,0-0.848,0c-0.847-0.212-1.483-0.636-2.331-0.423c-1.907,0.211-3.603,1.906-5.297,0.635
	c-1.907-1.271-3.814-0.212-5.722-0.635c-2.542-0.637-4.873-1.484-7.628-2.331c0.424-0.425,0.636-0.636,0.848-0.636
	c1.059-0.213,2.119-0.424,3.178-0.637c-0.847-1.06-1.907-1.906-3.39-1.482c-1.271,0.212-1.483-0.424-1.695-1.695
	c-0.212-5.934,4.026-8.052,8.052-7.417c1.271,0.212,0.423,0.849,0,1.271c-2.119,2.967-1.695,6.146,1.271,8.053
	c0.212,0.212,0.636,0,0.848,0c0-0.424,0-0.848-0.212-1.059c-1.695-1.061-0.636-2.968-1.272-4.238
	c-0.635-1.271,0.424-2.543,1.907-2.756c1.06-0.211,2.119-0.211,3.179-0.636c2.966-1.271,4.45,0,4.45,3.392
	c0,0.636,0,1.271,0.212,1.906c0,0.213,0.636,0.424,0.636,0.424c1.271-1.695,3.39,0.636,4.662-1.06
	c1.06-1.483,2.331-0.848,3.603-0.848c1.483-0.211,2.542,0.636,2.754,2.12c0,0.211,0,0.423,0,0.423
	c0.636,0.424,1.483,0.424,2.331,0.848v12.078h0.635V184.834z M98.737,150.507c1.907,0.211,4.237-0.636,5.933,1.059
	c1.271,1.059,2.754-0.424,3.39,0.212c1.271,0.847,2.331,0.847,3.602,0.847c0.424,0,1.695-0.423,0.636,0.848
	c-1.06,1.271-0.848,1.483,0.635,2.331c1.907,1.059,3.814,0.424,5.509,0.847c2.755-1.695,5.298-3.178,7.628-4.874
	c-0.848,0-1.695,0-2.754,0.423c-2.119,1.06-5.086,0.212-7.84,0.212c-1.06,0-2.755-0.212-2.755-0.424
	c-0.423-2.119,1.907-1.271,2.755-2.543c0.212-0.212,0.847,0,1.483,0c0.212,0,0.424-0.424,0.424-0.636
	c-0.212-0.211-0.636-0.211-0.848-0.423c-0.423-0.424-0.635-0.848-1.059-1.271c0.424-0.212,1.059-0.636,1.483-0.848
	c1.06-0.212,2.331,0,2.967,1.06c0.423,0.636,1.06,1.271,1.695,1.695c0,0,0.847-0.423,1.059-0.847
	c0.212-0.212,0.212-0.848,0.212-1.06c-0.636-0.424-1.483-0.636-1.907-1.271c-0.212-0.212,0.424-1.059,0.424-1.483
	c0-0.212-0.848-0.636-1.06-0.636c-0.847,0.212-1.695,0.636-2.542,0.848c-0.424,0-0.848-0.212-1.06-0.636
	c-0.212-0.212-0.212-0.636,0-1.059c1.06-1.484,3.179-2.331,5.086-1.696c0.847,0.212,1.907,0.212,2.754,0.212
	c0.212,0,0.424-0.212,0.848-0.423c-0.424-0.212-0.848-0.424-1.06-0.636c-0.424-0.212-0.635-0.636-0.847-1.06
	c-0.636-1.695-1.272-2.119-2.967-0.848c-1.483,1.061-3.603,1.695-5.297,2.966c-3.814,2.755-6.569,2.755-9.748,0.424
	c-0.424-0.212-1.059-0.212-1.271-0.424s-0.636-0.847-0.424-1.271c0-0.212,0.636-0.636,1.059-0.848c0.212,0,0.424,0,0.424,0
	c0.424-0.211,0.848-0.424,1.271-0.848c-0.636-0.212-0.424-1.483-1.695-0.848c-1.059,0.636-2.542,0.424-3.602,0.636
	c-0.424,0-2.119-2.331-2.119-2.755c0-0.211,0.636-0.211,0.848-0.424c1.271-1.059,1.271-1.059,0-2.119
	c-0.424-0.424-0.636-0.848-0.848-1.271c0.424-0.211,0.848-0.635,1.06-0.635c1.907,0.424,2.542-1.483,3.603-2.331
	c0.636-0.636,1.271-1.272,2.119-0.424c2.331,2.119,5.721,2.543,7.84,5.086c0.847,1.059,1.06,0.211,1.907-0.212
	c0.212-0.212,1.059,0.212,1.483,0.636c0.424,0.636,0.848,1.271,1.06,2.119c0.212,1.695,1.271,1.06,2.119,1.06
	c0.212,0,0.424-0.212,0.848-0.424c-0.212-0.212-0.424-0.636-0.636-0.636c-1.695,0-1.271-1.271-1.271-2.119
	c0-1.483,1.059-0.848,1.695-1.06c1.907-0.212,3.602,0.636,5.297,1.695c0.424,0.212,1.06,0,1.695,0
	c-0.212-0.424-0.635-0.636-0.635-1.059c0-0.212,0.212-0.636,0.423-0.636c1.696-0.424,3.391-0.636,4.874-1.06
	c0.847-0.211,1.483-1.059,2.331-1.695c0.212-0.212,0-0.635,0-1.059c0-0.212-0.636-0.212-0.636-0.212
	c-1.483,2.331-3.602,1.695-5.721,1.695c-2.542,0.212-4.873,0.636-7.416,1.06c-1.06,0.211-2.119,0.211-1.907-1.484
	c0-0.212-0.636-0.423-0.636-0.423c-1.695,1.907-3.39,0.635-5.085-0.212c-1.907-0.848-1.483-2.967-2.543-4.238
	c-0.212-0.212,0-0.636,0.212-1.06c1.695,0.424,2.967-0.423,4.45-0.847c0.635-0.212,1.271,0.636,2.119,0.847
	c0.847,0.212,1.271,0.212,1.695-0.847c0.847-1.695,2.966-2.755,4.238-1.907c2.966,2.331,5.297,0,7.416-0.848
	c2.542-0.847,4.874-1.271,7.205-1.483c1.695,0,3.602,0.848,5.085-0.847c0.636,0.423,1.271,0.423,1.907,0.423v17.588
	c-0.424,0.424-0.847,0.636-1.695,0.424c-1.483,0-3.178,0.636-4.45,1.907c1.06,0,2.119,0,3.179,0c0.636,0,1.271,0.424,1.483,1.06
	c0.424-0.212,0.848-0.636,1.483-0.847v0.635c-0.424,0.212-0.847,0.636-1.271,0.848c0,0.424,0,0.636-0.212,1.059
	c-1.06,1.272-1.907,2.755-4.026,2.543c-0.424,0-0.636,0-1.059,0c-0.636,0.424-1.271,0.848-1.907,1.271c0,0,0,0.212,0.211,0.212
	c-0.847,0.424-1.483,1.271-2.33,1.483c-0.212,0-0.212,0-0.424,0c-0.636,0.424-1.06,0.848-1.695,1.06
	c0.847,0,1.695,0.212,2.331,0.424c0.847,0.211,1.907,0.847,2.118,1.483c0.212,1.695-1.271,0.636-2.118,1.271
	c-1.907,1.271-3.603,1.06-5.721,0.212c-0.212-0.212-0.636-0.212-0.848-0.424c-6.145,4.238-5.297,4.238-4.662,3.39
	c0.636-0.635,2.543-0.635,3.179,0c1.907,1.271,4.026,0.848,5.933,1.06c0.212,0,0.847,0.424,0.847,0.848
	c0.212,1.06-1.695,3.391-2.542,3.179c-1.483-0.212-3.179,0.635-4.662-0.848c-0.212-0.212-0.848-0.212-1.271,0
	c-2.967,1.907-6.357,0.424-9.535,0.636c-0.636,0-1.06-0.636-2.119,0c-1.907,0.847-4.026-0.212-5.509-1.695
	c-0.424-0.424-0.636-1.06-0.636-1.695c0-2.542-0.424-3.391-2.543-3.602c-2.119-0.212-3.814-1.06-5.721-1.907
	c-0.212-0.212-0.423-0.424-0.635-0.636C98.313,150.931,98.525,150.507,98.737,150.507 M63.349,159.831
	c0.848,0,1.907,0.212,2.543-0.636c0.212-0.423,0.424-0.635,0.635-1.06c-0.211,0-0.635-0.212-0.847-0.212h-0.212l2.119-2.118
	c0.636,0.424,1.271,0.847,1.907,0.847c0.636,0,1.907,1.06,2.119-0.847c-1.695,0,1.483-2.543-1.06-2.331c0,0-0.212-0.424-0.212-0.848
	l1.06-1.059c0.848-0.424,1.483,0,2.331,1.271c0.635,0.848,1.271,1.483,1.907,2.119c0.424,0.424,1.271,0.636,1.695,0.212
	c0.848-0.636,1.695-1.483,2.331,0c0.635,1.271-0.636,3.391-1.907,3.391c-1.695,0.212-3.391,0-5.085,1.06
	c-1.695-1.271-2.966,0-4.238,0.847c-1.695,1.06-3.39,1.483-5.297,1.06c-0.212,0-0.424-0.424-0.847-0.635L63.349,159.831z
	 M52.543,170.849l5.721-5.933c0.212,0,0.424,0.212,0.424,0.424c-0.636,0.425-1.272,1.06-1.907,1.483c0.423,0,1.059,0,1.483,0
	c1.271-0.213,2.331,1.06,2.543,2.542c0,0.212,0.423,0.424,0.636,0.424c0.212,0,0.636,0,0.848-0.212
	c2.542-2.331,2.754-2.331,5.085-0.424c0.848,0.848,1.695,0.636,2.755,0.636c0-0.424,0-0.636,0-1.06c0-0.849,0.211-1.271,0.635-1.06
	c1.271,1.06,2.967,1.694,2.755,3.813c0,1.061,0.424,1.695,1.271,1.271c0.848-0.424,0.636-1.271,0.212-2.119
	c-0.424-0.424-0.424-1.482-0.424-2.543c0-0.423,0.636-1.059,1.06-1.271c0.635-0.425,3.178,0.636,0.847-1.483
	c1.06-0.212,2.119-0.424,3.179-0.424c1.907,0,2.119,0.212,1.059,2.331c-0.848,1.694-0.848,2.966,0,4.661
	c0.424,0.636,0.424,1.484,0.848,2.119c0.635,1.695,1.483,2.755,3.178,3.179c1.271,0.423,2.543,1.06,3.814,1.694
	c0.212,0.213,0.424,0.636,0.636,1.06c-0.212,0-0.636,0.212-0.848,0.212c-0.848,0-1.695-0.212-2.331,0.212
	c-0.635,0.212-0.847,0.849-1.483,1.483c0.636,0.212,1.06,0.424,1.695,0.636c0.424,0.212,0.848,0.424,1.271,0.424
	c-0.423,0.423-0.635,1.06-1.06,1.06c-1.483,0.213-2.966,0.637-4.238,0.425c-6.356-1.272-7.84-1.696-12.078,0.424
	c-1.907,0.847-3.391,0.423-5.086,0.636c-0.424,0-1.06-0.213-1.271-0.636c-0.848-2.967-3.178-2.331-5.297-2.543
	c-0.848,0-1.695-0.636-2.543-1.06c-0.212-0.213-0.636-0.213-0.848-0.424c0.212-0.425,0.424-0.849,0.848-1.061
	c0.636-0.212,1.483-0.635,2.119-0.635c2.331,0,4.662,0,6.781,0c0.212,0,0.636-0.637,0.636-1.061c0-0.424-0.424-1.06-0.636-1.06
	c-3.178,0-6.145,0-9.324,0c-0.847,0-1.907,0.212-1.695-1.06c0-0.424,0.848-0.635,1.271-0.848c0.424-0.211,1.06-0.423,1.484-0.635
	c-0.424-0.213-0.848-0.213-1.272-0.424c-0.212,0-0.423,0-0.423,0c-1.06-0.635-1.907-1.271-2.967-1.907
	C52.331,171.909,52.331,171.484,52.543,170.849 M34.32,243.954c0.424,0,0.848,0.423,1.271,0.847
	c0.212,0.213,0.636,0.213,0.848,0.213s0.636-0.213,0.848-0.424c0,0-0.212-0.213-0.212-0.424c-0.636-0.424-1.271-1.061-1.907-1.271
	c-0.212,0-0.424-0.213-0.636-0.213v-52.973l7.417-7.84c0.212,0,0.212,0,0.424-0.212c1.907-1.483,3.602-1.271,5.721-0.425
	c3.39,1.271,6.781,2.968,10.595,2.968c0.847,0,1.695,0.212,2.33,0.424c0.848,0.423,1.907,1.483-0.212,1.483
	c-0.211,0-0.635,0.848-0.635,1.06c0,0.424,0.635,0.849,0.847,0.849c2.755-0.425,5.934,1.271,8.476-1.061
	c1.695,0.636,3.603,1.061,4.45,2.967c0.211,0.424,0.847,0.637,1.271,1.059c0.212-0.635,0.636-1.059,0.636-1.694
	c0-1.483,0.635-2.966,1.483-3.603c0.424-0.211,0.848-0.424,1.271-0.847c-0.424,0-0.848-0.212-1.271-0.212s-0.848-0.212-1.271-0.424
	c0.423-0.213,0.847-0.424,1.059-0.637c1.271,0,2.331,0.213,3.39,1.061c3.814,3.391,8.476,3.391,13.138,2.754
	c1.06-0.212,1.907-2.331,2.967-3.391c-0.424-0.211-0.848-0.211-1.271-0.424c-1.907-1.06-1.907-1.482-0.424-2.754
	c0.636-0.637,1.271-1.271,1.907-1.271c1.271,0.212,2.542,1.061,3.814,1.482c-2.119,1.695,0.212,1.271,0.848,1.908
	c0,0,0,0.635-0.212,0.635c-0.848,0.424-1.695,0.637-2.542,1.061c-0.212,0.212-0.424,0.423-0.636,0.848
	c2.755,0.211,1.059,1.906,1.271,3.178c0,0.424,0.848,1.061,1.484,1.061c0.211,0,1.059-0.848,1.059-1.061
	c-0.212-1.694,1.059-2.33,1.907-3.391c1.059-1.271,0.636-3.813-0.848-4.662c-0.211-0.212-0.847-0.212-0.847-0.212
	c-0.424-1.907-4.026,0.212-2.967-1.907c0.636-1.694-0.423-2.33-0.211-3.391c0.211-0.636,0.423-1.482,0.635-1.482
	c1.272-0.211,2.119-0.848,2.119-2.119c0-1.061,0.212-2.119-0.636-3.392c-0.636-0.847-0.424-2.331-0.211-3.39
	c0.423-1.907,1.483-2.543,3.39-2.543c2.119,0.212,4.238,0.636,6.356,1.061c1.06,0.211,0.848,0.424,0.212,1.271
	c-0.635,0.848-1.059,1.907-1.695,2.755c-0.635,0.847-1.483,1.906-2.754,0.635c-0.636-0.635-1.484-0.635-1.695,0.424
	c-0.212,0.848-0.636,1.695-0.848,2.756c-0.212,0.847-0.212,1.694,1.059,1.694c0.212,0,0.848,0.212,0.848,0.425
	c-0.212,2.541,1.271,3.813,3.39,4.66c1.06,0.424,0.212,0.848-0.424,1.061c-0.423,0.212-0.635,0.848-1.059,1.271
	c0.424,0.212,0.636,0.636,1.059,0.636c0.636,0.213,1.272,0,1.907,0c1.06,0.213,0.636,0.424,0.212,1.271
	c-0.212,0.424-0.423,1.271-0.423,1.906c0,0.425,0.423,0.849,0.635,1.06c0.424,0,0.848-0.211,1.272-0.635
	c0.423-0.425,0.423-1.06,0.847-1.696c0.212-0.211,0.636-0.635,0.636-0.635c0.635,0.635,1.483,1.482,2.119,2.119
	c0.847,0.847,0.423,1.482-0.212,2.119c-0.212,0.422-0.212,1.271,0,1.694c0.635,0.847,1.271,1.483,2.119,2.119
	c0,0,0.423-0.424,0.635-0.636c0.636-1.271,2.119-2.119,2.755-3.391c0.636-1.482,0.847-3.178,1.059-4.662
	c0.212-1.271,1.06-1.906,2.331-1.482c1.483,0.636,2.755,1.271,4.026,2.119s1.271,1.482,0,3.178c-0.212,0.424-0.212,1.271,0,1.695
	c0.424,1.06,2.119,1.482,1.483,2.755c-0.424,1.06-1.907,2.542-2.331,2.331c-2.542-0.848-4.662,2.967-7.204,0.212
	c-0.212-0.212-0.636,0-0.848,0.212c0.212,0.423,0.212,0.635,0.423,1.059c0.212,0.424,0.212,0.849,0.212,1.483
	c-2.966,0.212-1.483,4.026-3.814,5.085c-1.059,0.423-1.483,2.119-2.966,0.637c-0.212-0.213-0.848,0-0.848,0.211
	c-0.848,2.756-1.907,2.332-3.814,0.849c-0.635-0.636-2.119,0-3.178,0c0,0.212,0,0.423,0,0.635c1.271,0.424,2.754,0.849,4.026,1.272
	c0.212,0,0.635,0.211,0.847,0.422c-0.211,0.213-0.423,0.425-0.635,0.637c-1.06,0.848-2.119,1.907-3.39,2.543
	c-1.06,0.635-0.424,2.966-2.331,2.542c-0.848,2.119-1.695,4.45-2.331,6.781c-0.212,0.636,0.848,2.331,1.271,2.331
	c2.967-0.213,2.967,2.119,3.603,4.025c0.212,0.424,0.636,1.061,1.06,1.271c1.907,0.424,4.026,0.636,5.933,1.059
	c0.635,0.213,1.483,0.213,1.695,0.424c1.695,2.543,4.661,2.543,6.78,4.026c0.424,0.212,1.06,0.636,1.695,0.636
	c1.483,0.213,3.179-0.212,4.026,0.635c0.636,0.424,0.212,2.543,0.212,4.027c0,1.482,0.212,2.543,1.272,3.602
	c1.483,1.271,2.754,2.968,4.025,4.238c0.212-0.213,0.424-0.424,0.424-0.637c-0.212-2.118,2.967-2.542,2.119-4.873
	c-0.636-1.482-1.271-2.966-1.695-4.449c-0.424-0.848-0.424-1.484,0.848-1.695c0.635-0.213,1.271-1.06,1.907-1.482
	c2.331-0.848,3.179-2.119,3.179-4.874c0-2.543-1.06-4.237-3.179-5.086c-1.483-0.636-1.06-1.271-0.212-2.119
	c0.636-0.636,1.06-1.271,1.695-1.907c0.847-0.636,0-0.847-0.212-1.482c-0.424-1.483-2.119-2.967-0.212-4.661v-0.424
	c-0.424-0.849-1.695-1.483-0.636-2.544c0.636-0.424,1.907-0.424,2.755-0.211c0.848,0.211,1.695,1.06,2.542,0.848
	c0.848,0,1.695,0,2.542,0V271.5c-1.059,1.483-2.331,2.756-2.331,4.874c0,0.212-0.424,0.848-0.848,0.848
	c-0.424,0-0.848-0.424-1.06-0.636c-0.211-0.424-0.423-0.848-0.423-1.271c-0.212,0.212-0.212,0.212-0.424,0.424
	c-0.212,0.636-1.483,0.636-0.636,1.907c0.848,1.06,0.848,2.542,1.483,4.025c0.424,1.06,1.695,2.33-0.847,2.118
	c-2.119-0.212,0.212,1.271-0.212,1.696c-1.059,0.847-1.907,1.693-3.178,2.118c-2.543,0.848-4.026,3.179-5.721,5.298
	c-1.483,1.905-1.06,4.237-0.212,6.567c1.06,2.542,1.695,5.295,1.271,8.264c0,0.211-0.212,0.849-0.424,0.849
	c-0.424,0-1.06,0-1.271-0.213c-1.059-0.849-3.178-4.873-3.178-6.779c0-2.12-1.484-2.967-2.543-4.026
	c-0.848-0.848-2.331,1.694-3.39-0.424c-0.424-0.637-2.331-0.637-3.602-0.637c-2.331-0.212-4.45-0.212-5.934,2.331
	c-0.636,1.061-1.483,0.848-2.331,0.212c-0.848-0.636-1.907-0.848-2.966-1.06c-0.636-0.212-1.272-0.424-1.907-0.212
	c-0.848,0.212-2.331,0.636-2.331,1.271c-0.636,2.753-4.026,1.481-4.874,3.813c-0.212,0.638-0.423,1.271-0.423,1.906
	c0,2.545-0.212,5.086-0.848,7.842c-1.059,3.603,2.543,9.959,5.721,11.865c1.907,1.271,3.602-0.637,5.721,0
	c1.483,0.424,2.543-0.424,3.178-2.119c1.484-3.813,1.907-3.602,5.086-4.873c1.059-0.426,1.483,0,2.119,0.425
	c0.635,0.635,0.847,1.059,0.423,2.118c-0.635,1.482-0.635,3.392-1.483,4.449c-1.483,1.482-0.424,3.392-1.271,4.66
	c-1.272,1.695-0.212,1.484,0.847,1.484c1.907,0,4.026,0,5.933,0c0.848,0,1.907,0.424,2.543,0.848
	c1.907,0.848,2.119,1.271,1.271,3.18c-1.271,3.392-1.06,6.355,0.848,9.322c1.483,2.33,2.542,2.754,5.297,1.695
	c2.331-0.848,4.238-1.061,6.145,1.059c0.635,0.85,1.483,0.637,1.907-0.211c0.847-1.061,1.907-1.482,1.907-3.391
	c0-0.848,1.271-2.119,2.119-2.119c0.423,0,0.847-0.211,1.059-0.211v59.33c-2.331-0.848-4.449-2.119-4.449-5.297
	c-3.603-3.604-4.026-8.9-6.781-12.926c-1.271-1.695-2.542-3.394-3.602-5.086c-0.424-0.638-0.636-1.908-0.212-2.332
	c0.636-0.849,1.907-1.482,2.755-2.33c-0.848-1.062-1.696-1.695-1.907-3.18c-0.424-2.541,2.542-2.966,2.331-5.087
	c1.484,0.214,1.484-1.27,2.119-2.116c1.06-1.695,3.602-2.33,3.39-4.662c-0.211-1.906-0.635-3.814-0.847-5.724
	c-0.212-1.692-2.543-2.541-1.907-4.659c-0.848-0.214-1.695-0.638-2.331-0.214c-0.636,0.214-1.271,1.062-1.483,1.908
	c-0.424,1.481-1.06,1.481-1.907,0.635c-0.848-0.635-1.483-1.481-2.331-1.481c-1.483-0.211-2.966,0-2.966-2.119
	c0-0.211-0.212-0.211-0.424-0.424c-1.06-0.424-2.331-0.424-2.967-1.271c-0.635-0.635-0.635-2.117-1.059-2.965
	c-1.271-1.697-2.331-3.814-4.026-4.662c-1.483-0.848-3.602-0.637-5.509-1.061c-1.483-0.424-2.543-0.848-3.602-1.906
	c-1.271-1.059-2.331-2.119-3.814-2.967c-0.636-0.424-1.907-0.424-2.543,0c-1.695,1.271-2.966,0.635-4.874-0.213
	c-3.179-1.693-6.781-2.541-10.171-4.238c-2.119-1.059-3.814-2.754-5.721-4.236c-0.212-0.213-0.424-1.061-0.212-1.271
	c2.331-2.329,0-3.812-1.059-4.872c-2.119-2.119-2.967-5.511-6.145-6.568c-0.424-0.213-0.636-0.637-0.848-1.062
	c-1.271-2.967-2.542-4.659-5.085-5.934c-1.06-0.635-2.119-0.848-1.907-2.754c0.212-1.271-0.848-2.755-1.483-4.024
	c-0.424-1.062-1.483-1.062-2.542-1.062c-0.212,0-0.636,0.848-0.636,0.848c1.06,0.849,0.424,2.119,0.636,3.392
	c0,0.212,0.212,0.848,0.424,0.848c3.814,1.061,3.178,5.936,6.145,7.628c0.635,0.425,0.423,1.906,0.847,2.755
	c0.424,0.85,1.06,1.483,0,2.118c-1.059,0.638-2.119-0.635-2.119-1.271c-0.212-0.637,0.848-1.482-0.212-2.119
	c-0.847-0.635-1.695-2.33-2.542-2.33c-2.119-0.213-2.331-0.637-1.695-2.543c0.212-0.424-0.424-1.695-0.848-2.119
	c-2.543-2.119-3.391-5.297-4.874-8.263c-1.06-2.119-2.331-4.238-4.874-4.874c-1.907-0.425-3.178-1.907-3.814-3.604
	c-1.483-3.391-4.238-5.934-5.509-9.535c-0.636-1.694-0.424-3.178-0.636-4.873c-0.424-1.907-1.483-3.603-0.212-5.934
	c0.848-1.695-0.212-4.45,0.424-6.568c0.424-1.061,0-1.483-0.212-2.332c-0.848-3.812-2.966-6.779-6.357-8.475
	c-0.212,0-0.424-0.424-0.636-0.637v-2.119L34.32,243.954L34.32,243.954z"/>
<path fill="#FFFFFF" d="M307.243,544.422l126.714-129.891V55.578L307.243,186.529V544.422z M364.667,398.85
	c-2.543,0.427-1.906,2.332-1.694,3.814c0.425,3.391-1.694,6.146-2.119,9.322c-0.424,1.907-1.271,3.813-1.905,5.723
	c-0.213,1.061-0.425,2.543-2.331,3.178c-2.755,0.851-2.755,1.271-4.451-0.635c-0.847-0.848-1.271-1.695-1.059-2.543
	c0.636-1.695-2.543-3.178,0-4.875c0.424-0.211,0.636-1.059,0.848-1.695c0.211-1.27,1.483-2.33,0.211-3.812
	c-0.423-0.424,0-1.695,0-2.543c0-1.482-0.211-3.179,0.424-4.449c0.426-0.848,2.12-1.059,3.18-1.271
	c3.604-0.636,4.662-3.603,6.146-6.355c0.212-0.424,0.636-0.848,1.061-0.637c0.213,0,0.849,0.424,0.849,0.848
	c0.424,1.484,0.848,3.18,1.06,4.662C364.879,398.002,364.879,398.85,364.667,398.85 M369.964,171.484
	c0.851-0.424,1.695-0.848,2.331-1.482c0.212-0.212-0.424-1.482-0.212-1.695c0.638-0.635,1.695-0.848,2.331-1.482
	c1.061-0.848-0.424-2.967,1.482-3.391c1.271-0.424,2.119-1.06,2.33-2.543c2.12-0.212,0-2.542,1.695-3.178
	c1.483-0.424,2.756-1.483,4.238-1.907c2.118-0.424,4.235-0.636,5.934-2.331c1.271-1.271,2.117,0.848,3.812,0.424
	c2.967-0.636,5.722-2.331,8.688-3.179c0.637-0.211,1.271-0.423,1.695-0.423s1.06,0.212,1.06,0.635c0,0.424,0,1.06-0.425,1.271
	c-1.059,0.848-2.33,1.907-3.602,2.119c-4.662,0.847-9.111,2.542-13.139,5.084c-0.849,0.637-1.906,0.637-2.967,1.06
	c-0.425,0.212-1.06,0.425-1.482,0.849c-1.906,2.754-3.604,5.721-6.146,8.051c-0.848,0.849-0.848,1.271-0.213,2.543
	c0.849,2.119,2.331,3.603,5.299,5.086c-2.544,0-4.024,0-5.722,0c-1.482,0.212-2.331-0.424-2.967-1.907
	c-0.212-0.424-0.637-1.06-1.061-1.271c-0.637,0-1.271,0.211-1.907,0.424c0-0.848,0-1.695-1.271-1.695
	c-0.212,0-0.423-0.636-0.423-0.848C369.328,171.909,369.54,171.697,369.964,171.484 M315.295,293.75
	c0.849,0.211,1.483,0.424,2.331,0.635c1.482,0.424,3.391,1.695,4.449,1.062c1.482-0.849,2.755-0.849,4.025-0.849
	c1.694,0,3.18,0,4.874,0c1.271,0,2.119-0.848,2.33-1.907c0.85-2.33,1.061-5.298,2.543-6.992c1.271-1.483-1.482-2.754,0.213-3.603
	c-0.425-0.213-0.638-0.637-1.061-0.637c-0.848,0-1.695-0.211-2.331,0c-2.331,1.484-4.449,1.484-6.355-0.635
	c-0.213-0.213-0.637,0-1.062,0.211c-2.542,1.695-2.331,1.061-4.873,0c-4.024-1.695-3.391-5.721-4.661-8.688
	c-0.213-0.424-0.425-0.635-0.637-1.059v-54.246c0.848-0.212,1.695-0.212,2.543,0.424c1.695,1.06,2.542-2.331,4.449-2.118
	c-0.212-0.425-0.212-0.849-0.423-1.061c-1.484-1.271-3.604-1.271-4.874-0.424c-0.425,0.424-1.061,0.424-1.695,0.424v-24.58
	l9.111-9.536h1.906c1.061,0,1.907,0,2.968,0c2.331,0.212-0.212,1.271,0.424,1.695c0.424,0.212,0.848,0.424,1.271,0.424
	c3.392-0.636,6.355,0.847,9.322,2.543c1.695,0.847,3.18,1.695,4.873,2.542c1.062,0.424,1.907,1.061,1.907,2.543
	c0,1.695-1.061,2.119-2.118,2.754c-2.967,1.695-5.722,1.061-8.688,0.424c-1.906-0.424-3.392-1.482-5.298-1.482
	c-0.638,0-1.271-1.483-2.331-0.424c0.637,0.636,1.482,1.06,2.119,1.695c1.271,1.061,2.966,1.271,2.754,3.813
	c-0.212,4.026,1.271,5.298,5.298,5.509c0.425,0,0.849-0.211,2.118-0.423c-0.848-0.636-1.481-1.272-1.906-1.483
	c-0.848-0.424-2.118-0.424-1.482-1.695c0.212-0.424,1.695-0.424,2.543-0.213c0.848,0,1.907,0.424,2.543,0.849
	c0.849,0.424,1.482,1.694,2.331,0.636c0.211-0.212-0.425-1.271-0.636-2.119c-0.425-1.271,0.636-2.119,1.271-2.33
	c1.482-0.425,2.544-0.849,3.813-1.908c0.424-0.424,1.906,0.424,2.755,0.424c0.635,0,1.907,0.425,1.907-0.848
	c0-0.848,0.635-2.119-1.061-2.33c-1.061,0-0.425-0.424-0.425-1.271c0.211-1.059,2.118-1.907,0.637-3.178
	c0.212-0.213,0.424-0.637,0.636-0.637c1.061,0,1.907,0,2.968,0c0.424,0,0.848,0.424,1.059,0.849c0.213,0.212,0,0.635-0.211,0.847
	c-0.424,0.424-0.848,1.271-1.482,1.271c-3.179,0.211-0.213,1.906-0.213,2.119c0.637,2.33,2.331,0.635,3.604,1.06
	c1.06,0.424,1.06-0.636,1.271-1.483c0-0.424,0.637-1.484,0.849-1.271c2.331,0.212,4.024-1.271,5.51-2.33
	c1.694-1.271,4.025,0.211,5.297-1.696c0.212-0.423,1.271-0.211,0.637,1.272c-0.425,1.059,1.482,2.33,2.331,1.271
	c2.542-2.543,5.934-1.694,8.688-2.754c1.061-0.424,1.271,0.636,1.271,1.483c0.849-0.213,1.906,0,2.331-0.637
	c0.424-0.636,0.849-2.119,0.424-2.543c-0.849-1.059-2.118-1.695-3.391-2.541c-0.213-0.213-0.213-0.849-0.424-1.271
	c0.424,0,0.635-0.211,1.06,0c2.755,1.482,5.509,2.331,8.899,2.755c2.966,0.424,6.145,1.694,8.688,4.026
	c0.425,0.424,0.849,0.848,1.061,0.636c0.635-0.212,1.06-0.636,1.481-1.06c0.213-0.213,0-0.637,0-1.06
	c0-0.212-0.211-0.212-0.211-0.424c-2.544-2.755-2.331-2.755-3.18-6.993c-0.424-1.482-0.424-2.331,0.849-2.755
	c1.693-0.425,2.331-1.483,2.331-3.179c0-0.848,1.06-1.482,1.693-2.33c1.061-1.483,1.483,0.848,2.331,0.424c0.213,0,0.424,0,0.424,0
	c1.483,0.212,2.756,0.212,4.238,0.424c-0.637,1.271-1.061,2.543-1.695,3.814c-0.636,1.06-0.212,1.482,0.425,2.119
	c1.06,1.06,1.271,1.694,0.424,3.391c-0.849,1.482-1.061,4.236,0.425,5.721c1.906,1.907,0.635,3.814-0.212,4.874
	c-1.484,2.119-3.392,4.873-6.568,2.542c0,0-0.425,0.424-0.637,0.848c0,0.213,0.212,0.848,0.424,0.848
	c3.813,1.271,9.11-0.635,11.02-4.025c0.424-0.636,0.212-1.695,0.424-2.331c0.214-0.847-0.849-2.543,1.271-2.543
	c2.543,0,3.392,0.425,3.603,2.755c0.214,0.848,0.214,1.695,0.425,2.331c0,0.212,0.637,0,0.849,0s0.212-0.212,0.425-0.212
	c-1.061-1.271,0-2.543-0.213-3.602c-0.212-1.061-1.483-2.756-3.391-2.332c-0.849,0.213-1.695,0-2.543,0
	c-2.542,0-3.603-0.848-2.542-3.178c1.059-2.119,0.211-3.603-0.425-4.662c-1.061-1.695-0.636-1.907,0.849-2.754
	c0.847-0.424,2.966-1.484,1.481-3.604c0.212-0.212,0.637-0.212,0.85-0.212c0.211,0,0.847,0.212,0.847,0.424
	c0,0.849-0.212,1.907-0.424,2.755c-0.847,2.754-0.636,2.967,1.695,2.967c0.848,0,1.694,0,3.179,0
	c-1.482-1.061-2.119-1.483-2.967-1.908c-0.212-0.211-0.212-0.422-0.425-0.635c0.213-0.211,0.637-0.424,0.849-0.424
	c0.848,0,1.694,0,2.543,0c0-0.424,0.212-0.848,0-1.06c-0.424-0.212-0.849-0.212-1.271-0.423c0.425-0.213,1.061-0.637,1.482-0.637
	c0.424,0.213,0.849,0.424,1.271,0.424v172.696c-0.849,1.482-1.906,2.754-3.392,4.025c-1.483-1.271-1.906-2.967-2.543-4.873
	c-1.06-2.967-2.543-5.723-3.603-8.689c-1.906-4.447-3.391-9.108-3.179-13.983c0-0.849,0.212-1.695,0-2.544
	c-0.212-0.637-0.85-1.061-1.271-1.481c-0.211,0.425-0.636,1.062-0.636,1.481c0,1.062-0.424,1.271-1.482,1.484
	c-1.907,0.424-2.967-0.848-4.025-2.121c-0.848-1.059,0.424-0.635,0.637-1.059c0.212-0.213,0.424-0.848,0.424-0.848
	c-1.061-0.85-2.119-1.695-3.391-2.543c-1.062-0.637-2.12-1.482-2.755-2.754c-0.214-0.637-1.694-0.851-2.545-0.851
	c-2.541-0.211-4.872-0.211-7.414,0c-3.18,0.214-5.935-0.635-8.899-1.059c-0.637-0.212-1.694-0.636-1.907-1.271
	c-0.635-2.754-1.907-1.905-3.391-1.061c-0.636,0.424-1.694,0.213-2.543,0c-1.061-0.425-2.118-1.06-3.392-1.482
	c-1.694-0.635-2.754-2.118-3.812-3.813c-0.424-0.849-0.848-2.119-1.482-2.331c-1.271-0.424-2.543-0.212-3.813,0
	c-0.212,0-0.424,0.848-0.424,1.271c0.212,1.061,0.424,2.331,1.061,3.18c1.482,1.692,2.967,3.391,3.391,5.721
	c0,0.635,0.849,1.484,1.695,0.211c0.211,0.213,0.636,0.424,0.636,0.637c1.06,3.391,2.118,4.025,5.085,2.543
	c1.061-0.424,1.907-1.061,2.754-1.906c0.85-0.85,1.696-1.694,2.756-2.756c0.213,0.851,0.424,1.482,0.424,2.332
	c-0.211,1.693,0.637,2.541,1.907,2.967c0.213,0.211,0.636,0.211,0.849,0.211c4.661,2.757,4.874,3.392,1.06,7.629
	c-2.118,2.119-2.966,5.298-6.145,6.568c-0.851,0.424-1.695,0.637-2.544,1.06c-1.694,0.637-4.025,0.637-4.661,3.18
	c0,0.213-0.425,0.424-0.636,0.636c0,0-0.213,0.213-0.424,0.213c-3.392,0.637-6.569,2.33-9.748,4.024
	c-1.271,0.638-2.968,0.638-4.449,1.06c-1.906,0.426-3.813-0.847-3.604-3.179c0.213-4.659-3.178-7.627-4.024-11.653
	c0-0.424-0.636-0.847-1.06-1.06c-2.331-1.062-2.755-2.967-2.967-5.297c-0.213-1.697-0.849-3.813-2.968-4.451
	c-0.424-0.211-0.636-0.848-0.849-1.479c-0.848-3.394-4.024-5.301-5.297-8.479c-0.213,0.211-0.424,0.425-0.637,0.849
	c-0.211,0.213-0.424,0.637-0.636,0.85c-0.636-0.637-1.695-1.062-1.061,0.211c0.637,1.695,0.637,3.814,2.331,5.297
	c0.848,0.637,1.061,2.119,1.483,3.391c0.424,1.484,0.635,1.271,2.33,3.604c1.06,1.481,1.481,3.392,1.694,5.299
	c0.212,1.692,0.424,2.754,1.694,4.024c1.061,1.06,2.119,2.541,2.331,4.025c0.212,1.906,1.271,2.967,2.33,3.602
	c2.118,0.849,3.179,2.757,4.661,4.025c0.849,0.848,2.544,1.484,1.061,3.394c-0.212,0.211,1.061,1.692,1.906,2.54
	c1.062,1.062,1.483-0.211,2.331-0.424c2.331-0.635,4.875-0.848,7.417-1.271c0.636-0.211,1.482-0.422,2.117-0.635
	c0.85-0.425,1.696-0.851,2.331-1.271c0.214,1.061,0.638,2.543,0.214,3.393c-0.849,2.117-1.907,4.236-2.968,6.354
	c-0.212,0.212-0.636,0.425-0.636,0.636c-0.849,5.723-5.087,8.266-8.9,11.442c-3.812,3.177-7.203,6.992-10.382,10.808
	c-0.849,1.061-1.062,3.18-1.694,4.449c-0.85,1.905-0.212,2.754,0,4.45c0.424,2.33,0.424,4.873,1.905,6.99
	c0.638,0.848,0.214,2.332,0.214,3.391c0,1.271-0.214,2.968,0.211,4.027c0.849,1.692,0.636,2.543-0.211,4.022
	c-1.695,2.757-1.484,2.757-3.392,3.605c-1.061,0.424-2.756,0.635-3.18,1.48c-1.481,1.907-3.391,3.18-4.873,4.875
	c-0.213,0.211-0.213,1.271,0,1.271c1.482,1.059,0.211,3.178,1.061,4.238c1.481,1.479-1.482,2.541-0.213,4.022
	c0.424,0.638,0,1.271-1.061,1.695c-2.755,0.848-4.449,2.543-3.812,5.723c0.212,1.271-0.212,2.33-1.061,3.179
	c-2.119,1.905-3.392,4.235-4.873,6.567c-0.85,1.482-2.331,2.967-3.604,3.814c-1.06,0.848-2.33,1.059-3.603,1.481L315.295,293.75
	L315.295,293.75z"/>
<path fill="#FFFFFF" d="M166.755,413.471l126.714,130.951V185.47L166.755,55.578V413.471z M285.205,373.211
	c-1.271-1.271-2.543-2.332-3.178-4.238c-0.424-1.271-1.06-2.117-0.424-3.604c0.847-2.117,1.271-4.236,1.483-6.568
	c0.212-2.119-0.636-3.389-2.543-3.812c-0.847-0.213-1.695,0-2.542,0c-2.543,0-2.543,0-4.662-2.543
	c-2.331-2.543-5.085-1.483-7.628-1.061c-1.059,0.213-2.331,0.85-3.39,1.482c-2.543,1.482-4.874,1.482-7.628,0.848
	c-1.695-0.424-4.026-0.211-5.509,0.85c-2.755,1.482-4.45,0.211-6.357-1.061c-1.271-0.848-2.542-1.906-3.814-2.967
	c-1.483-1.271-3.391-2.119-4.026-4.449c-0.212-1.061-1.271-1.908-1.907-2.756c-0.848-0.848-1.483-1.693-2.542-2.541
	c-0.848-0.637-0.212-2.543-1.907-2.121c0-2.754-2.331-5.084-0.848-8.475c2.119-4.875,2.331-5.297,0.212-9.535
	c-1.271-2.543-0.636-4.451,0.424-5.936c1.483-2.328,2.331-4.871,4.026-6.99c1.483-1.906,2.331-4.238,4.874-5.297
	c2.543-1.062,5.085-3.181,4.874-7.417c-0.212-1.695,1.271-3.604,1.907-5.3c0-0.211,0.424-0.423,0.848-0.423
	c2.331,0,3.178-1.482,4.026-3.391c1.059-1.907,1.483-1.907,3.814-1.271c2.755,0.85,5.297,1.271,8.052-1.06
	c2.119-1.695,5.085-2.119,7.84-2.543c2.966-0.635,5.933,0.424,8.899-1.06c1.06-0.637,2.543,0.636,4.026,0
	c1.271-0.637,2.543-0.212,3.39,1.271c-1.483,1.482,1.271,2.966,0,4.661c-0.847,1.06-0.424,1.907,0.424,2.967v84.335h-0.214V373.211z
	 M277.365,207.083c2.119-0.424-1.059-1.482,0.212-1.907c0.848-0.212,2.331-0.424,2.543-0.848c0.212-2.119,0.847-1.271,1.483-0.423
	c0.847-1.272,1.059-2.967,2.966-3.18c0.212,0,0.424-0.211,0.636-0.424v17.801c-0.636-0.424-1.271-0.424-2.331,0.424
	c-0.635,0.424-1.271,1.059-1.695,1.695c-2.119,2.118-4.238,0.635-6.357,0.211c-0.212,0-0.423-0.211-0.423-0.424
	c0.212-0.847,0.635-1.695,0.423-2.542c0-0.424-2.118-0.424-1.483-1.271c1.271-1.695-0.212-2.967-0.212-4.45
	C273.339,208.566,273.975,207.507,277.365,207.083 M274.611,236.113c1.06-0.848,2.542-1.271,3.814-1.059
	c0.635,0,1.483,1.271,2.118-0.214c0.424-0.848,0.424-1.905,0.212-2.754c-0.212-0.848-1.059-1.694-1.271-2.543
	c-0.848-2.331-0.424-3.603,1.483-5.085c0.848-0.636,1.483-1.271,2.331-1.695c0.212,0,0.636,0,0.636,0
	c0.212,1.061-0.212,2.543,0.423,3.391c1.483,2.119-0.636,1.06-0.848,1.484c-0.212,0.424-0.424,1.06-0.212,1.271
	c0.424,0.636,1.271,0.848,0.212,1.907c-0.636,0.635-0.424,1.482,0.636,1.695c0.423,0.211,0.847,0.211,1.271,0.424v31.995
	c-0.424-0.636-1.06-1.482-1.271-2.331c-0.636-1.482-1.907-1.693-3.391-1.271c-1.059,0.212-2.542,0.636-3.39,1.483
	c-1.483,1.482-2.754,2.543-4.45,0.636c-0.424-0.423-1.271,0-1.907,0c-0.847,0-1.695,0-1.483,1.271
	c0.424,2.542-0.847,3.391-2.966,4.45c-2.967,1.482-2.967,1.482-4.238,6.146l-3.814,5.297c-0.848,0.213-1.907,0.424-2.755,0.424
	c-1.271,0.213-2.542-0.424-3.603,1.061c-0.212,0.211-0.635,0.211-0.847,0c-2.331-1.061-4.238-2.756-6.993-2.119
	c0,0-0.423-0.212-0.423-0.424c0.636-1.906-1.483-3.603-0.636-5.51c0.424-1.271,1.059-2.33,1.271-3.602
	c0.212-1.062-0.636-2.119-0.636-3.181c-0.212-3.39,0.211-4.024,3.603-3.812c3.602,0.212,6.992-1.062,10.594,0.636
	c0.212,0.212,1.06-0.424,1.271-1.06c0.636-1.271,1.06-2.755,1.271-4.026s0.212-2.754-1.06-3.602
	c-1.695-1.061-2.331-3.814-5.085-3.392c-0.424,0-1.059-0.848-1.483-1.271c-0.212-0.213-0.212-0.637-0.212-0.848
	c0.212-0.425,0.636-0.849,0.848-0.849c1.059,0,2.119-0.211,3.178,0.638c1.483,0.846,1.695,0.635,2.119-1.908
	c0.212-0.849,0.212-0.849,1.059-0.849c2.543,0.214,5.297-0.848,6.569-2.543v-0.423c1.06-1.907,4.026-1.482,4.662-3.391
	C271.645,238.443,273.339,237.384,274.611,236.113 M257.447,222.339c1.483,0.212,0.847,0.637,0.423,1.483
	c-0.635,0.848-0.847,2.118-1.059,3.178c0,0.424,0,1.271,0.424,1.694c2.331,2.119,3.814,4.238,5.297,7.416
	c0.212,0.637,0.847,1.695,1.483,1.695c1.907,0.213,1.907,1.061,0.848,2.332c-0.424,0.424-1.06,0.848-1.272,1.482
	c-0.212,0.424,1.907,0.848,0,1.482c-0.635,0.213-1.271,0-1.907,0c-0.636,0.213-1.06,0.637-1.483,1.061
	c-1.059-1.908-2.119,0.211-3.178,0c-1.06,0-2.331,0.635-3.602,0.848c-0.424,0-0.848,0-1.484-0.213
	c0.212-0.424,0.424-1.059,0.636-1.482c0-0.211,0.212-0.211,0.424-0.424c0.847-0.637,1.483-1.271,2.331-1.695
	c-0.848-0.211-1.907-0.211-2.755-0.424c-0.212,0-0.636-0.635-0.636-0.635c0.636-0.637,1.06-1.271,1.696-1.908
	c-0.636-0.635-1.484-1.06-0.212-1.905c0.212-0.214,0.635-0.425,1.059-0.425c1.695-0.213,2.331-0.637,2.119-1.907
	c-0.212-0.849-0.848-1.482-0.848-2.118c0-1.695-0.424-1.907-1.483-0.637c-0.212,0.212-0.847,0.212-1.483,0
	c-1.483,0-1.059-0.635-0.212-1.271c0.212-0.848,0.212-0.636-1.059-1.06c-0.636-0.213-0.848-1.061-1.484-1.483
	c1.272-0.847-0.211-1.271-0.423-1.907c-0.212-0.847,0-2.119,0.848-2.754c0.424-0.424,1.06-0.636,1.06-1.06
	c0-1.271,0.635-1.695,1.695-1.695c2.331,0,0.635,1.06,0.424,1.695C254.904,222.127,256.176,222.339,257.447,222.339
	 M263.592,194.792c0.424,0,1.06,0.212,1.484,0c0.635-0.423,1.271-1.907,1.483-1.695c1.06,0.213,1.907,1.061,2.754,1.695
	c0.848,0.637,1.484,1.484,2.119,2.119c0.636,0.636,0.636,1.482,0,2.119c-1.059,0.848-1.695,1.695-3.178,2.119
	c-1.907,0.424-4.026,0.636-5.297,2.543c-0.212,0.423-1.06,0.423-1.695,0.423c-2.119,0.424-3.391-1.483-5.085-2.119
	c-0.848-0.425-1.907-1.908-1.907-2.968c0.212-2.754-1.483-2.118-2.754-2.118c-0.212,0-0.636,0-1.696-0.212
	c0.848-0.848,1.272-1.271,1.696-1.695c2.119-1.906,2.966-1.695,4.45,0.637c0.636,1.059,0.636,1.059,1.907-0.213
	c0.424-0.424,1.06-0.636,1.695-0.636C261.049,194.582,262.321,194.792,263.592,194.792 M174.807,125.926
	c0.636,0.212,1.271,0.212,1.907,0.424c0.636,0,1.06,0,1.695,0c-0.212-0.424-0.636-0.635-0.636-1.059
	c0-0.212,0.212-0.636,0.424-0.636c2.331-0.424,4.662-0.848,6.993-1.06c2.331-0.211,2.542,0.212,3.179,2.543
	c0.212,0.424,0.212,0.848,0.424,1.271c0.423-0.423,1.059-0.847,1.271-1.271c0.212-0.423-0.212-1.059-0.212-1.695
	c-0.212-0.848,0.212-1.271,0.636-1.06c1.271,0.635,2.754,1.483,4.026,1.907c0.423,0.211,0.847-0.212,1.271-0.212
	c-0.212-0.424-0.212-0.636-0.424-1.06c-0.212-0.423-0.636-1.059-1.059-1.483c0.635,0,1.271-0.424,1.907-0.212
	c2.966,1.06,5.721,2.119,8.476,3.391c0.424,0.211,0.848,0.635,1.272,0.635c0.211,0,0.635-0.212,0.847-0.212
	c0-0.212-0.212-0.635-0.212-0.635c-0.847-0.424-1.483-1.06-2.331-1.484c-2.331-1.271-2.331-1.271-0.211-2.754
	c2.119-1.483,3.39-1.907,4.662-2.119c1.271-0.212,2.755-1.06,4.026-0.848c1.271,0,2.331,0.636,3.603,0c0.212,0,0.424,0,0.636,0
	l39.625,41.108c0.212,0.423,0.212,0.636,0.636,0.847h0.212l1.483,1.696c-1.272,0.211-2.543,0.423-3.814,0.635
	c-0.212,2.119,2.754,1.271,2.754,3.602c-2.331-0.422-5.085,0.849-7.416-1.059c-0.212-0.212-1.06,0.212-1.271,0.424
	c-0.424,0.635-0.848,1.271-1.06,2.119c0,0,0.424,0.424,0.636,0.424c1.483,0,2.967,0,4.45,0c0.212,0,0.635,0.635,0.635,1.059
	c0,0.425-0.423,0.849-0.847,0.849c-0.848,0.212-1.907,0-4.026,0c2.119,1.483,3.39,2.331,4.45,3.179
	c1.271,1.06,1.907,2.754,1.059,3.814c-1.059,1.482-2.543,1.695-4.026,0.212c-0.424-0.424-0.848-1.06-1.483-1.483
	c-0.424-0.211-1.271-0.636-1.695-0.423c-0.424,0.423-0.848,1.271-1.06,2.118c-0.423,1.271,0.636,0.637,0.848,0.848
	c1.907,1.907,4.238,0.424,6.993,1.483c-4.026,1.483-6.993,4.237-10.807,5.086c-2.966,0.636-5.721,1.695-8.688,1.695
	c-1.271,0-2.119,0-2.755,1.694c-0.636,1.483-2.119,2.754-3.178,4.238c0,0.211-0.424,0.211-0.424,0.424
	c1.059,0.211,1.907,1.061,2.754,1.694c0.848,0.636,1.483,1.483,2.119,2.119c0.636,0.636,0.636,1.483,0,2.118
	c-0.848,0.849-1.695,1.695-3.179,2.119c-1.907,0.424-4.026,0.637-5.297,2.543c-0.212,0.424-1.06,0.424-1.695,0.424
	c-2.119,0.423-3.391-1.484-5.086-2.119c-0.847-0.424-1.907-1.907-1.907-2.967c0-0.635,0-1.06-0.212-1.271c0,0-0.211,0-0.211,0.212
	c-1.483,0.425-0.424,0.847-0.424,1.483c-0.424,2.331-1.271,4.449-1.907,6.568c0,0.211-0.848,0.211-1.271,0.211
	c-0.847,0-1.483-0.211-0.635,1.272c1.483,2.331-0.424,4.662-1.06,6.78c-0.423,1.482-1.907,1.482-3.178,0.636
	c-1.695-0.849-3.39-1.483-5.085-2.119c-1.695-0.636-2.119-1.06-4.026-3.178c-1.06-1.272-3.179-2.119-2.967-4.45
	c-2.754-2.966-2.754-7.628-6.145-10.171c-1.272-0.847-1.272-1.907,0.635-2.33c1.271-0.212,0.212-0.848,0-1.272
	c-0.635-0.635-1.907-1.271-1.059-2.541c1.059-1.271,0.847-3.604,3.39-3.604c2.331,0,2.331-0.211,2.331-2.966
	c-0.212-2.331-0.848-2.966-2.967-2.966c-0.636,0-1.271,0-0.636,1.059c1.06,1.483,0.636,2.119-1.06,2.119
	c-0.847,0-1.695-0.212-2.331-0.424c-0.847-0.424-1.907-1.061-1.907-1.483c-0.212-1.694,1.483-1.06,2.119-1.06
	c2.331,0.424,0.848-1.907,1.272-1.907c1.271-0.211,2.966-0.635,4.025,0.849c0.212,0.211,0.636,0,0.848,0c0-0.425,0-0.849,0-1.06
	c-0.848-0.636-1.695-1.907-2.542-1.907c-1.695,0-1.695-0.848-1.695-2.331c0-0.424-0.847-0.636-1.271-0.848
	c-0.212,0-0.424,0.424-0.636,0.636c-0.847,0-1.695,0-2.754,0c0-0.848-0.424-1.906,0-2.331c1.695-1.694,0.423-2.966-0.212-4.45
	c-1.06-2.541-1.271-5.933-4.662-6.567c-0.212,0-0.424-0.424-0.636-0.636c-1.695-2.119-2.755-3.179-4.238-3.814v-29.03H174.807z
	 M174.807,229.968c1.483,0.848,2.966,1.695,4.874,1.907c0.212,0,0.636,0.212,0.848,0.424c-0.212,0.212-0.424,0.423-0.636,0.636
	c-0.424,0.211-0.848,0.424-1.271,0.424c0.424,0.211,0.847,0.211,1.06,0.636c0.424,0.637,0.636,1.271,1.271,1.907
	c0.212,0.212,1.059-0.637,1.271-0.424c1.907,1.06,1.695,5.297-0.424,5.722c-2.542,0.424-4.238,1.694-6.145,3.391
	c-0.211,0.211-0.635,0.425-0.847,0.425L174.807,229.968L174.807,229.968z M174.807,347.146c0.636,0,1.271,0,1.695,0.424
	c1.06,0.635,1.695,1.695,2.543,2.543c2.331,2.33,2.542,2.119,6.145,2.119c3.391,0,6.357,1.694,8.052,5.086
	c0.636,1.481,1.695,2.754,2.331,4.024c0.212,0.425,0.636,1.06,0.424,1.271c-2.543,3.179,0.636,2.541,1.907,3.392
	c0.424,0.211,1.695,0.636,0.424,1.906c-0.424,0.424,0.847,1.059,1.271,0.424c0.424-0.637,0.636-1.694,1.271-1.694
	c2.331-0.425,3.814,1.905,5.933,2.329c-0.424,4.025,1.695,1.695,3.178,1.695c0.848,0,1.907,1.062,2.967,0.849
	c3.178-0.425,5.933,0.426,8.052,3.18c0.635,0.848,1.695,1.481,2.754,1.906c3.39,1.481,4.874,4.024,3.39,6.991
	c-0.847,1.695-1.059,4.238-3.602,5.086c-2.119,0.849-1.907,4.662-4.874,5.087c-0.212,0-0.212,0.848-0.212,1.481
	c0,2.119,0,4.449,0,6.567c0,1.482,0,2.543-1.271,3.604c-0.424,0.424-0.636,1.482-0.848,2.119c-0.636,2.754-1.483,5.297-3.391,7.203
	c-0.636,0.424-1.483,1.061-1.907,1.061c-4.026-0.637-6.569,2.543-9.748,4.238c-2.543,1.27-4.238,3.602-3.39,6.567
	c0.635,2.544-2.119,3.179-2.119,5.298c0,0.211,0,0.211-0.212,0.424l-21.189-21.826v-63.354H174.807L174.807,347.146z"/>
<path fill="#FFFFFF" d="M447.73,55.578v357.893l126.714,130.951V185.47L447.73,55.578z M477.819,377.025
	c0,0.211-1.271,0.635-2.118,0.848c-0.849-0.424-1.696-0.848-2.331-1.484c-1.695-1.693-3.392-3.812-5.298-5.297
	c-1.482-1.271-0.637-3.604-2.331-4.662c-1.271-0.848-2.33-2.33-2.754-4.449c-0.425-1.905-2.968-3.391-4.45-5.297
	c-0.848-1.061-2.331-1.483-2.119-3.18c0-0.213,0.212-0.424,0.212-0.424c1.483,0.211,2.968,0.635,4.237,1.061
	c0.424,0.211,0.637,0.635,1.062,1.06c2.754,2.756,5.085,5.934,8.897,7.418c1.062,0.424,2.12,1.692,2.331,3.602
	c0.213,1.482,2.12,2.755,3.179,4.238c0,0,0.425-0.424,0.637-0.638c1.062-0.848,2.118-0.424,1.694,0.849
	C478.455,372.787,477.608,374.693,477.819,377.025 M484.812,366.006c-0.214-0.424,0-1.059-0.214-1.482
	c-0.848-0.848-0.848-1.694,0-2.543c0.85-0.848,1.482-1.061,2.331-0.213c1.061,0.851,1.906,0.637,1.906-0.848
	c0-1.271,0-1.906,1.483-1.906c1.694,0.211,2.967-0.213,3.391-2.332c0.212-0.635,1.483-1.27,2.119-1.692
	c0.424-0.214,1.271-0.214,1.694-0.638c0.848-0.424,5.722-1.692,6.567-1.481c0.85,0.213,1.907,0,0.637,1.271
	c-0.424,0.424-0.849,0.849-1.482,1.482c-1.695,2.119-1.907,3.602-0.212,5.721c1.482,1.695,1.061,2.332-0.637,2.967
	c-0.212,0.213-0.849,0.213-0.849,0.424c0.637,2.543-1.48,4.238-2.118,6.357c-0.212,0.848,0,1.906-0.424,2.33
	s-1.482,0.213-1.906,0.213c-2.755-0.424-5.086-0.637-7.417-1.271C487.99,371.729,485.66,368.549,484.812,366.006 M566.393,452.035
	c-0.425,0.213-0.637,0.424-1.061,0.637c-0.424,0.211-0.848,0.424-1.061,0.848c-0.848,0.638-1.482,1.906-2.542,1.906
	c-0.637,0-1.483-1.271-2.118-2.119c-0.638-0.848-0.849-0.424-1.483,0c-1.271,1.484-2.33,1.908-4.024,0.427
	c-0.85-0.851-2.331-0.851-3.393-1.271c-0.635-0.213-1.906-0.848-1.906-1.271c0-3.603-2.966-5.298-4.662-7.629
	c-0.849-1.06-0.635-1.693,0.214-2.541l-0.214-0.638c-0.211-0.213-0.849-0.213-0.849,0c-1.059,1.271-1.906,2.754-2.754,3.814
	c-0.212,0.211-1.482-0.213-1.482-0.424c0.212-2.119-2.967-2.543-2.118-4.873c0,0-0.636-0.64-1.062-0.851
	c-1.694-0.635-3.39-1.481-5.085-1.694c-1.06-0.212-2.543,0-3.603,0.213c-2.331,0.635-4.661,1.905-7.204,1.692
	c-0.849,0-1.695,0.851-2.331,1.271c-0.849,0.424-1.907,0.848-2.331,1.481c-0.849,1.271-2.119,1.271-3.391,1.271
	c-2.755,0-5.299,0-7.629,1.908c-2.119,1.692-2.331,1.27-5.299-0.213c-1.905-1.062-2.329-1.271-1.06-3.181
	c1.271-1.903,1.06-3.389,0-5.51c-1.483-3.178-2.542-6.355-3.603-9.746c-0.212-0.424-0.212-1.271,0-1.695
	c0.637-0.848,0.848-1.271,0.212-2.116c-1.061-1.271-0.849-2.757-0.212-4.238c0.212-0.213,0.212-0.849,0-1.06
	c-0.637-1.062-0.849-1.696,0.637-2.12c1.271-0.425,2.542-1.271,3.39-2.33c1.271-1.484,2.755-0.211,4.026-1.062
	c1.06-0.635,2.33-1.271,3.603-1.695c3.813-1.481,5.086-2.541,6.357-6.354c0-0.211,0.635-0.635,0.847-0.424
	c0.638,0.637,1.271,1.059,1.907,0.213c0.212-0.213-0.637-1.271-0.425-1.271c2.119-1.061,3.18-3.604,5.299-4.661
	c1.271-0.638,2.33-1.062,3.391,0.213c0.424,0.424,1.06,1.27,1.482,1.27c0.848,0,1.906,0.639,2.33-1.059
	c0.426-1.482,1.694-2.754,2.331-4.025c0.849-1.695,3.813,0,3.813-2.756c0.212,0,0.423,0,0.637,0.213
	c2.117,1.695,4.448,1.695,6.779,1.695c0.425,0,0.849,0.424,1.695,0.848c-0.849,0.848-1.271,1.271-1.695,1.695
	c-1.694,2.33-1.271,4.024,1.271,5.51c1.907,1.271,4.024,2.541,5.934,3.812c1.061,0.637,2.12,0.424,2.755-1.06
	c1.271-2.545,2.119-5.086,1.907-7.842c0-0.849-0.214-1.695,0-2.543c0.212-1.271,0.848-2.33,1.271-3.604
	c0.424,1.062,1.271,2.121,1.482,3.18c0.211,0.849,0,1.695,0,2.543c0.211,0.638,0.424,1.271,0.848,1.695
	c3.179,3.181,4.237,5.086,5.086,9.535c0.212,1.271,0.848,1.906,2.118,2.33c1.061,0.424,2.119,1.062,2.968,1.695v41.957h0.006
	V452.035z M566.393,388.043c-0.849-0.211-1.482-0.424-2.119-0.848c-1.271-0.85-2.329-2.332-3.604-3.604
	c-1.271-1.271-3.39-1.059-4.661,0.425c-2.118,2.545-2.118,2.545-4.661,1.061c-1.061-0.637-2.755-2.119-3.392-1.695
	c-1.482,0.85-2.755,0.213-4.662,0.85c0.849-1.061,1.062-1.483,1.272-1.694c0.635-0.638,1.905-1.062,1.905-1.484
	c0-1.059-0.636-2.118-1.271-2.967s-1.694-1.481-2.754-1.905c-2.119-0.636-4.662-0.636-6.357-2.544
	c-0.212-0.213-0.847,0.212-1.271,0.427c-2.12,1.27-0.214-2.119-1.696-1.695c-0.424-1.271,0.636-0.637,1.061-0.848
	c0.424-0.213,1.062-0.427,1.482-0.638c-0.423-0.213-1.061-0.424-1.271-0.424c-2.331,1.271-2.119-2.543-4.025-2.119
	c0-0.424,0-0.848,0-1.062c1.06-0.422,2.33-0.848,3.604-1.061c1.693-0.211,2.542,0.639,2.755,2.545c0,0.424,0,1.059,0,1.482
	c0.423,1.695,1.481,2.119,2.967,1.482c0.212-0.213,0.636-0.425,0.848-0.425c1.695-0.213,2.119-2.756,4.026-2.118
	c1.271,0.424,2.754,0.637,4.024,1.061c2.118,0.635,4.237,1.059,5.935,2.119c2.117,1.27,4.662,1.906,6.145,4.025
	c0.637,0.848,1.483,1.905,2.119,1.905c2.756,0,2.119,0.849,0.637,2.119c-0.212,0.211-0.212,0.848,0,1.06
	c1.061,0.85,1.482,2.543,2.33,3.604v2.967H566.393L566.393,388.043z M549.017,273.619c-0.424-1.906,0.637-2.543,1.694-2.755
	c1.271-0.423,1.907,0,2.119,1.695s1.482,3.179-0.636,4.661c-0.425,0.212-0.212,1.483-0.425,2.331
	c-0.424,1.906-0.424,4.449-1.482,5.297c-1.694,1.483-4.237,1.695-6.355,2.331c-0.638,0.212-1.482,0-1.694,0.424
	c-1.272,1.483-1.907,1.695-2.967-0.424c-0.637-1.271-1.907-1.271-3.393-0.424c-1.271,0.848-2.755,1.061-4.236,1.695
	c-0.213-0.212-0.424-0.424-0.637-0.636c1.271-0.849,1.694-2.756,3.393-2.543c1.271,0.213,2.117-0.849,2.966-0.849
	c2.755,0,4.662-0.848,5.298-3.813c0,0,0.635,0.213,1.06,0.213C547.109,280.187,549.652,276.797,549.017,273.619 M566.393,218.314
	c-1.694,0.211-3.392-0.424-5.086,0c-4.024-2.756-6.568,0.636-9.534,2.543c-1.271,0.847-2.331,2.33-3.604,3.602
	c-1.061,1.059-2.331,1.695-3.179,3.178c-1.061,1.695-3.181,2.756-4.662,4.026c-0.212,0.212-0.212,0.848,0,1.06
	c0.849,0.424,2.119-0.636,2.331,0.848c0.212,2.332,1.271,0,1.694,0.424c0.425,0.425,0.637,1.061,1.061,1.695
	c0.424-0.424,0.849-1.271,1.482-1.482c0.849-0.213,1.906-0.424,2.543,0c1.061,0.635,2.33,1.695,2.755,2.966
	c0.424,1.06,0,2.543-0.637,3.392c-1.271,2.117-0.636,4.449-1.271,6.568c-2.118,6.992-6.568,12.289-11.653,16.951
	c-1.06,1.059-2.968,2.755-4.873,0.636c-0.212-0.212-0.638-0.424-0.849-0.212c-1.694,1.271-4.025,2.331-4.45,3.814
	c-0.636,2.33-1.694,3.602-3.812,4.448c-1.907,0.849-1.694,1.907-0.212,3.392c0.849,0.848,1.906,1.482,2.33,2.543
	c0.425,1.06,0.425,2.543,0.85,3.813c0,0.211-1.271,1.906-1.696,2.118c-1.06,0.637-2.117,1.483-3.179,2.119
	c-0.211,0.212-1.271-0.424-1.271-0.847c-0.214-1.272-0.214-2.756,0-4.027c0.211-2.543,0.211-2.543-2.544-3.39
	c-0.425-0.212-0.848-0.637-1.06-1.062c0-0.424,0.212-1.06,0.424-1.481c0.849-1.062,0.425-2.331-0.848-2.543
	c-1.907-0.423-3.392,0.636-4.874,1.482c-0.849,0.424-1.482,1.062-1.907,0.212c-0.211-0.423,0.425-1.482,0.85-2.117
	c0.211-0.214,0.636-0.425,0.636-0.849c0-0.424-0.212-0.848-0.425-1.06c-0.211-0.212-0.848-0.636-1.061-0.425
	c-2.542,1.694-5.297,3.179-7.839,5.086c-0.638,0.424-0.638,1.482,0.635,1.694c0.212,0,0.424,0,0.424,0
	c2.756-0.636,0.425,3.18,2.544,3.18c1.482,0,1.694-2.756,3.604-1.907c0.847,0.424,1.482,0.848,1.907,1.271
	c-2.12,1.695-4.451,3.392-6.569,4.873c1.482,1.907,2.755,3.604,3.813,5.511c0.425,0.848,0.425,1.905,1.693,1.694
	c0,0.212-0.212,0.849-0.212,0.849c-2.33,0.211-0.635,1.06-0.211,1.694c1.061,1.06,1.271,1.694-0.424,1.482v1.061
	c1.906,0,1.271,0.848,1.06,2.118c-0.636,2.118-1.481,3.604-2.967,4.874c-0.424,0.424-1.271,1.059-1.271,1.482
	c0,4.451-4.024,5.086-6.355,7.418c-0.848,0.848-2.12,1.27-3.392,1.481c-4.025,0-6.992,2.33-9.959,4.449
	c-1.271,1.06-0.849,0-1.271-0.636c-1.06-1.907-1.271-1.907-3.604-0.85c-3.391,1.695-4.659,3.391-4.235,5.937
	c0.423,1.905,1.271,4.022,2.966,4.872c4.025,1.693,3.604,5.087,4.025,8.476c0.213,2.543-1.271,3.179-2.542,4.451
	c-1.062,1.06-2.119,0.635-2.968,1.06c-0.849,0.424,0,2.118-1.694,1.905c-0.849,0-1.907,1.697-1.695-0.849
	c0-0.422-0.423-1.061-0.847-1.271c-0.638-0.637-1.483-0.848-1.907-1.481c-1.271-2.967-4.45-3.18-6.146-5.297
	c0-0.213-1.271,0.211-1.271,0.635c-0.636,2.119-1.061,4.451-1.482,6.57c0,0.211,0,0.424,0,0.424
	c1.906,2.117,1.906,5.508,4.449,7.203c0.85,0.637,1.695,0.848,2.331,1.481c1.482,1.271,2.543,2.543,2.119,4.873
	c-0.213,0.638,0,1.272,0,2.119c0,1.062,2.118,1.907,0.424,2.967c-1.271,0.638-1.694-1.479-2.755-1.692
	c-3.391-0.851-3.812-4.238-4.449-6.781s-1.271-4.662-3.179-6.355c-1.06-1.061-1.482-2.121-0.636-3.604
	c1.271-2.119,0.423-4.238,0.636-6.357c0-0.211-0.213-0.635-0.424-0.848c-1.907-1.271-1.696-3.178-1.483-5.086
	c0.211-1.693-0.848-2.541-1.695-3.391c-1.271-1.482-1.06-0.425-1.481,0.637c-0.212,0.637-1.907,1.695-2.119,1.481l0,0V153.686
	c0.424-0.424,0.849-1.271,1.695-0.212c0.212,0.424,1.271-1.06,2.119,0c0.212,0.424,1.481,0,2.331,0c0.211,0,0.211-0.212,0.424-0.424
	c1.693-0.848,3.391-1.271,5.297-1.695c1.271-0.212,2.119-2.754,3.179-4.026c1.062-1.272,4.874-1.271,6.357-0.212
	c0.847,0.636,0.847,1.271,0,1.907c0.424,0.211,0.847,0.423,1.48,0.635c0.638,0.212,1.271,0,1.907,0l-0.636,1.483
	c0.848,0.212,1.694,0.848,2.119,0.424c3.179-1.695,5.933-0.635,9.11,0c1.694,0.424,1.482,2.967,3.392,2.543l-0.637,3.814
	c-2.967,1.483-6.146,2.966-8.898,5.085c-1.695,1.271-4.026,1.695-5.935,2.543c-0.425,0.213-0.637,0.848-1.061,1.483
	c0.424,0.212,0.849,0.424,1.271,0.212c1.482-0.212,3.18-0.424,4.449-1.061c1.062-0.636,2.968-0.424,2.968-2.543
	c0-0.211,1.271-0.636,1.693-0.424c1.483,0.637,2.968,0.848,4.45,1.061c3.178,0.635,3.178,1.059,5.723,0.211
	c1.271-0.424,4.872,0.424,5.509,1.906c0.637,1.061,1.482,1.272,1.907,0.849c1.694-1.271,3.604-0.425,4.449,0.212
	c1.694,1.271,2.754-1.061,4.237-0.212c0.212-0.212,0.424-0.636,0.424-0.849c-0.424-2.541,1.482-2.754,2.543-1.906
	c1.482,1.271,3.179,0.636,4.661,0.636c2.968,0.212,4.875,2.331,4.662,5.509c-0.212,3.18,0.636,5.086,3.391,5.721
	c0.425,0.213,1.06-0.211,1.695-0.635c0.424-0.212,0.635-0.636,0.848-1.06c1.271-2.119,1.271-2.331,3.179-1.271
	c1.062,0.635,1.906,1.694,3.18,0c0.424-0.425,2.118,0.211,2.755-0.213c1.482-0.636,1.694,2.331,3.392,0.848
	c0.636-0.635,2.117-0.424,3.18-0.635c1.06-0.213,0.635-0.637,0.211-1.272c-0.424-1.06-0.424-1.483,0-1.907l17.375,17.799v30.301
	h-0.211V218.314L566.393,218.314z"/>
</svg>
