<?xml version="1.0" encoding="utf-8"?>
<!-- Generator: Adobe Illustrator 16.0.0, SVG Export Plug-In . SVG Version: 6.00 Build 0)  -->
<!DOCTYPE svg PUBLIC "-//W3C//DTD SVG 1.1//EN" "http://www.w3.org/Graphics/SVG/1.1/DTD/svg11.dtd">
<svg version="1.1" id="Layer_1" xmlns="http://www.w3.org/2000/svg" xmlns:xlink="http://www.w3.org/1999/xlink" x="0px" y="0px"
	 width="602.576px" height="601.08px" viewBox="0 0 602.576 601.08" enable-background="new 0 0 602.576 601.08"
	 xml:space="preserve">
<line fill="none" stroke="#FFFFFF" stroke-width="6" stroke-miterlimit="10" x1="115.716" y1="45.848" x2="115.716" y2="569.399"/>
<g>
	<path fill="#FFFFFF" stroke="#FFFFFF" stroke-width="6" stroke-miterlimit="10" d="M507.353,87.801V65.959
		c0-8.866-7.352-16.219-16.219-16.219H95.82c-8.866,0-16.219,7.353-16.219,16.219v483.329c0,8.866,7.353,16.22,16.219,16.22h395.313
		c8.867,0,16.219-7.354,16.219-16.22V112.021l7.785-7.785v445.269c0,13.191-10.812,24.004-24.004,24.004H95.82
		c-13.191,0-24.004-10.812-24.004-24.004V65.959c0-13.191,10.812-24.004,24.004-24.004h395.313
		c13.191,0,24.004,10.813,24.004,24.004v14.057L507.353,87.801z"/>
</g>
<polygon fill="none" stroke="#FFFFFF" stroke-width="6" stroke-miterlimit="10" points="581.528,37.847 462.589,156.786 
	440.962,166.302 450.478,144.676 507.353,87.801 569.417,25.736 "/>
<path fill="none" stroke="#FFF2DE" stroke-width="6" stroke-miterlimit="10" d="M562.065,7.571"/>
<path fill="none" stroke="#FFF2DE" stroke-width="6" stroke-miterlimit="10" d="M455.019,114.4"/>
<line fill="none" stroke="#FFFFFF" stroke-width="6" stroke-miterlimit="10" x1="557.739" y1="36.765" x2="569.634" y2="48.443"/>
<line fill="none" stroke="#FFFFFF" stroke-width="6" stroke-miterlimit="10" x1="162.859" y1="173.871" x2="433.177" y2="173.871"/>
<line fill="none" stroke="#FFFFFF" stroke-width="6" stroke-miterlimit="10" x1="162.859" y1="223.393" x2="465.616" y2="223.393"/>
<line fill="none" stroke="#FFFFFF" stroke-width="6" stroke-miterlimit="10" x1="162.859" y1="273.564" x2="465.616" y2="273.564"/>
<line fill="none" stroke="#FFFFFF" stroke-width="6" stroke-miterlimit="10" x1="162.859" y1="316.166" x2="465.616" y2="316.166"/>
<line fill="none" stroke="#FFFFFF" stroke-width="6" stroke-miterlimit="10" x1="162.859" y1="417.589" x2="465.616" y2="417.589"/>
<line fill="none" stroke="#FFFFFF" stroke-width="6" stroke-miterlimit="10" x1="162.859" y1="369.797" x2="465.616" y2="369.797"/>
<line fill="none" stroke="#FFFFFF" stroke-width="6" stroke-miterlimit="10" x1="162.859" y1="467.977" x2="465.616" y2="467.977"/>
</svg>
