<?xml version="1.0" encoding="utf-8"?>
<!-- Generator: Adobe Illustrator 16.0.0, SVG Export Plug-In . SVG Version: 6.00 Build 0)  -->
<!DOCTYPE svg PUBLIC "-//W3C//DTD SVG 1.1//EN" "http://www.w3.org/Graphics/SVG/1.1/DTD/svg11.dtd">
<svg version="1.1" id="Layer_1" xmlns="http://www.w3.org/2000/svg" xmlns:xlink="http://www.w3.org/1999/xlink" x="0px" y="0px"
	 width="612px" height="577.399px" viewBox="0 0 612 577.399" enable-background="new 0 0 612 577.399" xml:space="preserve">
<line fill="none" stroke="#FFFFFF" stroke-width="7" stroke-miterlimit="10" x1="17.733" y1="573.588" x2="594.268" y2="573.588"/>
<rect x="275.076" y="291.513" fill="none" stroke="#FFFFFF" stroke-width="9" stroke-miterlimit="10" width="278.536" height="281.562"/>
<rect x="55.577" y="110.506" fill="none" stroke="#FFFFFF" stroke-width="9" stroke-miterlimit="10" width="178.41" height="462.569"/>
<rect x="82.609" y="151.811" fill="none" stroke="#FFFFFF" stroke-width="7" stroke-miterlimit="10" width="22.707" height="22.707"/>
<rect x="182.086" y="151.811" fill="none" stroke="#FFFFFF" stroke-width="7" stroke-miterlimit="10" width="22.707" height="22.707"/>
<rect x="133.429" y="151.811" fill="none" stroke="#FFFFFF" stroke-width="7" stroke-miterlimit="10" width="22.707" height="22.707"/>
<rect x="82.609" y="209.119" fill="none" stroke="#FFFFFF" stroke-width="7" stroke-miterlimit="10" width="22.707" height="22.707"/>
<rect x="182.086" y="209.119" fill="none" stroke="#FFFFFF" stroke-width="7" stroke-miterlimit="10" width="22.707" height="22.707"/>
<rect x="133.429" y="209.119" fill="none" stroke="#FFFFFF" stroke-width="7" stroke-miterlimit="10" width="22.707" height="22.707"/>
<rect x="82.609" y="264.479" fill="none" stroke="#FFFFFF" stroke-width="7" stroke-miterlimit="10" width="22.707" height="22.707"/>
<rect x="182.086" y="264.479" fill="none" stroke="#FFFFFF" stroke-width="7" stroke-miterlimit="10" width="22.707" height="22.707"/>
<rect x="133.429" y="264.479" fill="none" stroke="#FFFFFF" stroke-width="7" stroke-miterlimit="10" width="22.707" height="22.707"/>
<rect x="82.609" y="321.788" fill="none" stroke="#FFFFFF" stroke-width="7" stroke-miterlimit="10" width="22.707" height="22.707"/>
<rect x="182.086" y="321.788" fill="none" stroke="#FFFFFF" stroke-width="7" stroke-miterlimit="10" width="22.707" height="22.707"/>
<rect x="133.429" y="321.788" fill="none" stroke="#FFFFFF" stroke-width="7" stroke-miterlimit="10" width="22.707" height="22.707"/>
<rect x="82.609" y="378.663" fill="none" stroke="#FFFFFF" stroke-width="7" stroke-miterlimit="10" width="22.707" height="22.707"/>
<rect x="182.086" y="378.663" fill="none" stroke="#FFFFFF" stroke-width="7" stroke-miterlimit="10" width="22.707" height="22.707"/>
<rect x="133.429" y="378.663" fill="none" stroke="#FFFFFF" stroke-width="7" stroke-miterlimit="10" width="22.707" height="22.707"/>
<rect x="82.609" y="435.969" fill="none" stroke="#FFFFFF" stroke-width="7" stroke-miterlimit="10" width="22.707" height="22.705"/>
<rect x="182.086" y="435.969" fill="none" stroke="#FFFFFF" stroke-width="7" stroke-miterlimit="10" width="22.707" height="22.705"/>
<rect x="133.429" y="435.969" fill="none" stroke="#FFFFFF" stroke-width="7" stroke-miterlimit="10" width="22.707" height="22.705"/>
<rect x="82.609" y="492.196" fill="none" stroke="#FFFFFF" stroke-width="7" stroke-miterlimit="10" width="22.707" height="22.707"/>
<rect x="182.086" y="492.196" fill="none" stroke="#FFFFFF" stroke-width="7" stroke-miterlimit="10" width="22.707" height="22.707"/>
<rect x="133.429" y="492.196" fill="none" stroke="#FFFFFF" stroke-width="7" stroke-miterlimit="10" width="22.707" height="22.707"/>
<rect x="316.812" y="333.034" fill="none" stroke="#FFFFFF" stroke-width="7" stroke-miterlimit="10" width="22.705" height="22.707"/>
<rect x="435.753" y="333.034" fill="none" stroke="#FFFFFF" stroke-width="7" stroke-miterlimit="10" width="22.706" height="22.707"/>
<rect x="378.445" y="333.034" fill="none" stroke="#FFFFFF" stroke-width="7" stroke-miterlimit="10" width="22.707" height="22.707"/>
<rect x="316.812" y="390.338" fill="none" stroke="#FFFFFF" stroke-width="7" stroke-miterlimit="10" width="22.705" height="22.707"/>
<rect x="435.753" y="390.338" fill="none" stroke="#FFFFFF" stroke-width="7" stroke-miterlimit="10" width="22.706" height="22.707"/>
<rect x="395.097" y="520.743" fill="none" stroke="#FFFFFF" stroke-width="7" stroke-miterlimit="10" width="41.737" height="51.252"/>
<rect x="378.445" y="390.338" fill="none" stroke="#FFFFFF" stroke-width="7" stroke-miterlimit="10" width="22.707" height="22.707"/>
<rect x="316.812" y="445.702" fill="none" stroke="#FFFFFF" stroke-width="7" stroke-miterlimit="10" width="22.705" height="22.707"/>
<rect x="435.753" y="445.702" fill="none" stroke="#FFFFFF" stroke-width="7" stroke-miterlimit="10" width="22.706" height="22.707"/>
<rect x="378.445" y="445.702" fill="none" stroke="#FFFFFF" stroke-width="7" stroke-miterlimit="10" width="22.707" height="22.707"/>
<rect x="494.574" y="333.034" fill="none" stroke="#FFFFFF" stroke-width="7" stroke-miterlimit="10" width="22.706" height="22.707"/>
<rect x="494.574" y="390.338" fill="none" stroke="#FFFFFF" stroke-width="7" stroke-miterlimit="10" width="22.706" height="22.707"/>
<rect x="494.574" y="445.702" fill="none" stroke="#FFFFFF" stroke-width="7" stroke-miterlimit="10" width="22.706" height="22.707"/>
<path fill="#FFFFFF" d="M308.162,269.453v-4.974h11.029l14.271-6.487V0H140.565v110.506h8.65v-19.03h17.733v19.03h4.325v-19.03
	h22.058v19.03h4.325v-19.03h23.355v19.03h4.325v-19.03h25.951v23.788h-14.921v4.325h14.921v22.707h-14.921v4.325h14.921v25.734
	h-17.3v4.325h17.3v25.95h-17.3v4.324h17.3v24.869h-14.921v4.326h14.921v24.004h-14.921v4.324h14.921v22.059h-14.921v4.324h14.921
	v22.275h-14.921v4.324h14.921v22.059h-14.921v4.324h14.921v17.949h-14.921v4.324h14.921v21.842h-14.921v4.326h14.921v18.598h-14.921
	v4.324h14.921v18.6h-14.921v4.324h14.921v18.383h-12.759v4.324h12.759v17.732h-12.759v4.322h12.759v18.385h-12.759v4.322h12.759
	v17.949h-12.759v4.324h12.759v17.732h-12.759v4.326h12.759v18.812h-17.3v4.326h-93.422v4.322h192.898v-4.322h-58.388v-4.326h-19.463
	V549.93h19.463v-4.326h-19.463v-17.732h15.787v-4.324h-15.787v-17.949h19.463v-4.322h-19.463v-18.385h19.463v-4.322h-19.463v-17.732
	h15.787v-4.324h-15.787v-18.383h19.463v-4.324h-19.463v-18.6h19.463v-4.324h-19.463v-18.598h19.463v-4.326h-19.463v-21.842h19.463
	v-4.324h-19.463v-17.949h19.463v-4.323h-19.463v-22.06h19.463v-4.324h-19.463v-22.274h6.055l9.515-4.324h-15.354v-22.059h21.625
	v19.247l4.325-1.946v-17.301h22.274v6.92L308.162,269.453z M308.162,8.651h16.652v24.437h-16.652V8.651z M308.162,37.412h16.652
	v21.842h-16.652V37.412z M308.162,63.579h16.652v23.572h-16.652V63.579z M308.162,91.476h16.652v23.788h-16.652V91.476z
	 M308.162,119.589h16.652v22.707h-16.652V119.589z M308.162,146.621h16.652v25.734h-16.652V146.621z M308.162,176.68h16.652v25.95
	h-16.652V176.68z M308.162,206.957h16.652v24.869h-16.652V206.957z M308.162,236.15h16.652v24.004h-16.652V236.15z M166.948,87.151
	h-17.733V63.579h17.733V87.151z M166.948,59.254h-17.733V37.412h17.733V59.254z M166.948,33.087h-17.733V8.65h17.733V33.087z
	 M193.332,87.151h-22.058V63.579h22.058V87.151z M193.332,59.254h-22.058V37.412h22.058V59.254z M193.332,33.087h-22.058V8.65
	h22.058V33.087z M221.012,87.151h-23.355V63.579h23.355V87.151z M221.012,59.254h-23.355V37.412h23.355V59.254z M221.012,33.087
	h-23.355V8.65h23.355V33.087z M251.288,87.151h-25.951V63.579h25.951V87.151z M251.288,59.254h-25.951V37.412h25.951V59.254z
	 M251.288,33.087h-25.951V8.65h25.951V33.087z M303.837,231.826h-22.274v-24.869h22.274V231.826z M303.837,202.631h-22.274v-25.95
	h22.274V202.631z M303.837,172.355h-22.274v-25.734h22.274V172.355z M303.837,142.296h-22.274v-22.707h22.274V142.296z
	 M303.837,115.264h-22.274V91.476h22.274V115.264z M303.837,87.151h-22.274V63.579h22.274V87.151z M303.837,59.254h-22.274V37.412
	h22.274V59.254z M277.238,260.156h-21.625V236.15h21.625V260.156z M277.238,231.826h-21.625v-24.869h21.625V231.826z
	 M277.238,202.631h-21.625v-25.95h21.625V202.631z M277.238,172.355h-21.625v-25.734h21.625V172.355z M277.238,142.296h-21.625
	v-22.707h21.625V142.296z M277.238,115.264h-21.625V91.476h21.625V115.264z M277.238,87.151h-21.625V63.579h21.625V87.151z
	 M277.238,59.254h-21.625V37.412h21.625V59.254z M277.238,9.299v23.788h-21.625V8.65h48.225v24.437h-22.274V9.299H277.238z
	 M281.563,260.156V236.15h22.274v24.004h-22.274V260.156z"/>
<path fill="none" stroke="#FFFFFF" stroke-width="7" stroke-miterlimit="10" d="M443.321,520.067h-54.931
	c0-15.139,12.327-18.383,27.467-18.383C430.995,501.684,443.321,504.928,443.321,520.067z"/>
<rect x="317.245" y="499.118" fill="none" stroke="#FFFFFF" stroke-width="7" stroke-miterlimit="10" width="41.737" height="55.576"/>
<rect x="475.76" y="499.118" fill="none" stroke="#FFFFFF" stroke-width="7" stroke-miterlimit="10" width="41.737" height="55.576"/>
<polygon fill="none" stroke="#FFFFFF" stroke-width="9" stroke-miterlimit="10" points="574.155,292.161 258.856,292.161 
	261.668,290.863 270.967,286.537 277.238,283.726 281.563,281.781 303.837,271.4 308.162,269.453 319.191,264.479 333.464,257.992 
	416.506,219.931 "/>
<line fill="none" stroke="#FFFFFF" stroke-width="2" stroke-miterlimit="10" x1="338.222" y1="500.846" x2="338.222" y2="556.422"/>
<line fill="none" stroke="#FFFFFF" stroke-width="2" stroke-miterlimit="10" x1="358.117" y1="527.012" x2="318.326" y2="527.012"/>
<line fill="none" stroke="#FFFFFF" stroke-width="2" stroke-miterlimit="10" x1="496.736" y1="500.846" x2="496.736" y2="556.422"/>
<line fill="none" stroke="#FFFFFF" stroke-width="2" stroke-miterlimit="10" x1="516.632" y1="527.012" x2="476.841" y2="527.012"/>
</svg>
