<?xml version="1.0" encoding="utf-8"?>
<!-- Generator: Adobe Illustrator 16.0.0, SVG Export Plug-In . SVG Version: 6.00 Build 0)  -->
<!DOCTYPE svg PUBLIC "-//W3C//DTD SVG 1.1//EN" "http://www.w3.org/Graphics/SVG/1.1/DTD/svg11.dtd">
<svg version="1.1" id="Layer_1" xmlns="http://www.w3.org/2000/svg" xmlns:xlink="http://www.w3.org/1999/xlink" x="0px" y="0px"
	 width="612px" height="608px" viewBox="0 0 612 608" enable-background="new 0 0 612 608" xml:space="preserve">
<circle fill="none" stroke="#FFFFFF" stroke-width="15" stroke-miterlimit="10" cx="140.494" cy="313.22" r="114.312"/>
<circle fill="none" stroke="#FFFFFF" stroke-width="15" stroke-miterlimit="10" cx="467.532" cy="313.22" r="114.312"/>
<g>
	<path fill="#FFFFFF" d="M195.195,248.935c13.325,9.351,21.74,18.468,25.948,23.61l-9.351,10.752
		C208.987,270.908,202.441,258.986,195.195,248.935 M162.701,224.389c0,0,47.455,38.339,43.48,76.676l24.078-27.818
		C230.026,273.012,209.922,241.454,162.701,224.389L162.701,224.389z"/>
</g>
<g>
	<path fill="#FFFFFF" d="M521.064,248.935c13.324,9.351,21.74,18.468,25.947,23.61l-9.351,10.752
		C534.857,270.908,528.312,258.986,521.064,248.935 M488.338,224.389c0,0,47.454,38.339,43.48,76.676l24.078-27.818
		C555.896,273.012,535.559,241.454,488.338,224.389L488.338,224.389z"/>
</g>
<line fill="none" stroke="#FFFFFF" stroke-width="15" stroke-miterlimit="10" x1="254.805" y1="313.221" x2="353.221" y2="313.221"/>
<path fill="none" stroke="#FFFFFF" stroke-width="15" stroke-miterlimit="10" d="M165.039,18.908L108.468,9.09
	C93.273,6.519,78.78,16.57,73.636,31.531L25.013,309.715"/>
<path fill="none" stroke="#FFFFFF" stroke-width="15" stroke-miterlimit="10" d="M443.221,18.908l56.571-9.818
	c15.195-2.572,29.688,7.48,34.831,22.441l48.624,278.182"/>
<g>
	<path fill="none" stroke="#FFFFFF" stroke-width="15" stroke-miterlimit="10" d="M585.584,519.636
		c0,0-36.935,89.532-136.986,78.778c-100.052-10.753-135.351-59.376-141.429-70.597c-13.792-25.014,17.532-131.845,164.571-2.806
		C525.271,571.766,585.584,519.636,585.584,519.636z M22.675,519.636c0,0,36.935,89.532,136.987,78.778
		c100.052-10.753,135.351-59.376,141.429-70.597c13.792-25.014-17.532-131.845-164.571-2.806
		C82.987,571.766,22.675,519.636,22.675,519.636z"/>
</g>
</svg>
