<?xml version="1.0" encoding="utf-8"?>
<!-- Generator: Adobe Illustrator 16.0.0, SVG Export Plug-In . SVG Version: 6.00 Build 0)  -->
<!DOCTYPE svg PUBLIC "-//W3C//DTD SVG 1.1//EN" "http://www.w3.org/Graphics/SVG/1.1/DTD/svg11.dtd">
<svg version="1.1" id="Layer_1" xmlns="http://www.w3.org/2000/svg" xmlns:xlink="http://www.w3.org/1999/xlink" x="0px" y="0px"
	 width="649.5px" height="698.965px" viewBox="-37.5 0 649.5 698.965" enable-background="new -37.5 0 649.5 698.965"
	 xml:space="preserve">
<g>
	<g>
		<g>
			<path fill="#FFFFFF" d="M22.942,689.309V42.571h567.583v646.737H22.942z M578.751,677.535V54.343H34.715v623.192H578.751z"/>
			<path fill="#FFFFFF" d="M589.524,43.571v644.737H23.942V43.571H589.524 M33.715,678.535h545.792h0.244V53.343H33.715V678.535
				 M591.524,41.571h-2H23.942h-2v2v644.737v2h2h565.583h2v-2V43.571V41.571L591.524,41.571z M35.715,55.343h542.036v621.192H35.715
				V55.343L35.715,55.343z"/>
		</g>
	</g>
	<g>
		<g>
			<rect x="27.829" y="133.21" fill="#FFFFFF" width="557.808" height="11.772"/>
			<path fill="#FFFFFF" d="M584.637,134.21v9.772H28.829v-9.772H584.637 M586.637,132.21h-2H28.829h-2v2v9.772v2h2h555.808h2v-2
				v-9.772V132.21L586.637,132.21z"/>
		</g>
	</g>
	<g enable-background="new    ">
		<g>
			<g>
				<path fill="#FFFFFF" d="M242.113,495.326c-25.728,0-53.102-8.312-71.44-21.692l-4.109-2.936l20.029-39.801l5.615,5.025
					c13.403,11.966,30.085,18.556,46.974,18.556c21.862,0,34.914-8.668,34.914-23.188c0-9.91-6.1-21.723-35.158-21.723H205.2
					v-28.546l42.216-39.86h-69.818l-0.256-42.311h133.934v30.014l-49.082,46.464c36.446,4.518,58.122,25.047,58.122,55.228
					C320.315,469.297,288.888,495.326,242.113,495.326z M181.6,466.857c16.327,10.466,38.868,16.695,60.513,16.695
					c40.355,0,66.43-20.705,66.43-52.748c0-24.247-18.66-40.589-49.917-43.714l-23.18-2.426l64.056-60.567v-13.228H189.132
					l0.221,18.521h87.522l-59.904,56.646v11.761h22.209c29.825,0,46.931,12.208,46.931,33.494c0,21.563-17.889,34.959-46.686,34.959
					c-17.312,0-34.666-5.965-49.003-16.819L181.6,466.857z"/>
				<path fill="#FFFFFF" d="M310.276,299.851v28.584l-50.328,47.643c37.135,3.906,59.368,24.186,59.368,54.479
					c-0.001,38.359-31.028,63.77-77.204,63.77c-25.653,0-52.771-8.309-70.851-21.5l-3.42-2.443l19.057-37.869l4.642,4.154
					c13.682,12.215,30.539,18.811,47.641,18.811c22.477,0,35.914-9.039,35.914-24.188c0-18.812-19.79-22.723-36.158-22.723H206.2
					v-27.115l43.732-41.291h-71.339l-0.245-40.311H310.276 M188.365,330.392h85.998l-58.391,55.215v13.191h23.209
					c29.317,0,45.931,11.973,45.931,32.494c0,21.012-17.59,33.959-45.686,33.959c-17.59,0-34.937-6.107-49.351-17.348l-9.773,19.303
					c16.369,10.75,39.579,17.346,61.811,17.346c41.044,0,67.43-21.01,67.43-53.748c0-24.676-19.057-41.533-50.817-44.709
					l-21.011-2.199l62.788-59.368v-14.658H188.12L188.365,330.392 M312.276,297.851h-2H178.348h-2.012l0.012,2.012l0.245,40.311
					l0.012,1.988h1.988h66.308l-40.074,37.837l-0.627,0.592v0.862v27.115v2h2h32.738c9.767,0,17.625,1.384,23.357,4.112
					c7.268,3.46,10.801,8.893,10.801,16.61c0,13.894-12.678,22.188-33.914,22.188c-16.643,0-33.089-6.5-46.309-18.303l-4.641-4.152
					l-1.946-1.742l-1.174,2.333l-19.057,37.869l-0.77,1.531l1.394,0.995l3.42,2.443c18.485,13.487,46.084,21.873,72.013,21.873
					c47.373,0,79.203-26.431,79.204-65.77c0-30.153-21.18-50.84-56.913-55.942l47.248-44.727l0.625-0.592v-0.861v-28.584V297.851
					L312.276,297.851z M190.144,311.871h108.359v11.797l-62.162,58.776l-3.162,2.989l4.328,0.453l21.011,2.199
					c30.701,3.069,49.025,19.039,49.025,42.72c0,15.43-6.076,28.428-17.57,37.587c-11.626,9.265-28.176,14.161-47.86,14.161
					c-21.126,0-43.104-5.979-59.21-16.055l7.875-15.554c14.323,10.533,31.503,16.308,48.648,16.308
					c29.414,0,47.686-13.778,47.686-35.959c0-10.771-4.431-19.613-12.812-25.572c-8.327-5.92-20.142-8.922-35.118-8.922h-21.209
					v-10.33l57.765-54.624l3.652-3.453h-5.026h-84.021L190.144,311.871L190.144,311.871z"/>
			</g>
		</g>
		<g>
			<g>
				<path fill="#FFFFFF" d="M389.9,493.859V341.41h-38.113v-42.557h85.311l-0.002,195.006H389.9z M425.323,482.088V310.626h-61.768
					v19.011h38.113l0.002,152.451H425.323z"/>
				<path fill="#FFFFFF" d="M436.098,299.853l-0.002,193.006H390.9V340.41h-38.113v-40.557H436.098 M362.556,330.637h38.113
					l0.002,152.451h25.652V309.626h-63.768V330.637 M438.098,297.853h-2h-83.311h-2v2v40.557v2h2H388.9v150.449v2h2h45.195h2v-2
					l0.002-193.006V297.853L438.098,297.853z M364.556,311.626h59.768v169.461h-21.652l-0.002-150.451v-2h-2h-36.113V311.626
					L364.556,311.626z"/>
			</g>
		</g>
	</g>
	<g>
		<path fill="#FFFFFF" stroke="#FFFFFF" stroke-width="2" stroke-miterlimit="10" d="M84.532-12.621"/>
	</g>
	<g>
		<path fill="#FFFFFF" stroke="#FFFFFF" stroke-width="2" stroke-miterlimit="10" d="M73.049,68.979"/>
	</g>
	<g>
		<g>
			<path fill="#FFFFFF" d="M120.934,95.144c-7.414-0.736-14.073-4.755-19.359-11.628c-6.188-7.736-9.736-18.449-9.979-30.151v-1.976
				c0-2.756,0.254-5.532,0.493-7.917c2.52-20.916,15.678-36.082,31.29-36.082c15.47,0,28.525,15.166,31.043,36.062
				c0.241,2.41,0.495,5.17,0.495,7.694v2.955h-11.772v-2.955c0-2.594,0-5.276-0.468-7.622
				c-2.179-14.276-10.292-24.604-19.298-24.604s-17.119,10.329-19.289,24.56c-0.228,2.284-0.478,4.999-0.478,7.667v1.955
				c0.476,9.725,3.504,18.497,8.306,24.019c2.564,3.261,5.739,5.333,9.214,6.028l0.296,0.059l0.142,0.142
				c0.132,0.023,0.402,0.023,0.588,0.023h0.618l0.276,0.553c0.868,1.737,1.327,3.582,1.327,5.333c0,1.752-0.459,3.596-1.327,5.333
				l-0.276,0.553H120.934z"/>
			<path fill="#FFFFFF" d="M123.378,8.39c15.147,0,27.607,14.903,30.05,35.181c0.244,2.442,0.488,5.13,0.488,7.575
				c0,0.733,0,1.222,0,1.955h-9.772c0-0.734,0-1.222,0-1.955c0-2.688,0-5.375-0.488-7.818
				c-2.199-14.415-10.505-25.409-20.278-25.409S105.299,28.913,103.1,43.328c-0.245,2.443-0.489,5.13-0.489,7.818
				c0,0.733,0,1.222,0,1.955c0.489,10.016,3.665,19.056,8.551,24.675c2.687,3.42,6.107,5.619,9.772,6.352
				c0.244,0.244,0.733,0.244,1.222,0.244c0.733,1.466,1.222,3.176,1.222,4.886s-0.489,3.42-1.222,4.886c-0.245,0-0.733,0-1.222,0
				c-7.329-0.733-13.681-4.886-18.567-11.238c-5.863-7.33-9.528-17.835-9.772-29.562c0-0.733,0-1.222,0-1.955
				c0-2.688,0.244-5.375,0.488-7.818C95.526,23.293,108.231,8.39,123.378,8.39 M123.378,6.39c-16.126,0-29.702,15.536-32.281,36.942
				c-0.245,2.45-0.502,5.255-0.502,8.057v1.955c0.248,11.962,3.874,22.89,10.21,30.811c5.435,7.067,12.335,11.219,19.93,11.979
				l0.1,0.01h0.1h1.222h1.236l0.553-1.105c0.937-1.875,1.433-3.874,1.433-5.78c0-1.906-0.496-3.905-1.433-5.78l-0.553-1.106h-1.236
				c-0.045,0-0.098,0-0.151,0l-0.086-0.085l-0.592-0.119c-3.238-0.648-6.209-2.594-8.592-5.627l-0.031-0.039l-0.033-0.038
				c-4.581-5.268-7.593-14.018-8.061-23.412v-1.906c0-2.603,0.244-5.267,0.474-7.567c2.106-13.712,9.795-23.66,18.293-23.66
				c8.508,0,16.205,9.972,18.301,23.71l0.007,0.045l0.009,0.045c0.449,2.249,0.449,4.764,0.449,7.426v1.955v2h2h9.772h2v-2v-1.955
				c0-2.57-0.257-5.36-0.498-7.773C152.834,21.926,139.361,6.39,123.378,6.39L123.378,6.39z"/>
		</g>
	</g>
	<g>
		<g>
			<path fill="#FFFFFF" d="M111.65,101.739c-6.883,0-12.483-5.6-12.483-12.483c0-2.576,0.741-4.973,2.142-6.934
				c2.133-3.201,5.614-5.284,9.293-5.546l0.805-0.002c3.814,0,7.3,1.692,9.813,4.764c0.535,0.793,1.035,1.542,1.333,2.336
				c1.397,1.772,1.58,3.801,1.58,5.383c0,1.733-0.448,3.555-1.296,5.272c-0.294,0.838-0.813,1.616-1.315,2.368
				C119.34,99.896,115.566,101.739,111.65,101.739z"/>
			<path fill="#FFFFFF" d="M111.406,77.774c3.665,0,6.841,1.71,9.04,4.397c0.489,0.733,0.978,1.466,1.222,2.199
				c1.221,1.466,1.465,3.177,1.465,4.887s-0.488,3.42-1.221,4.886c-0.245,0.733-0.733,1.466-1.222,2.199
				c-1.955,2.687-5.375,4.397-9.04,4.397c-6.352,0-11.483-5.131-11.483-11.483c0-2.443,0.733-4.642,1.955-6.352
				c1.955-2.932,5.131-4.886,8.551-5.13C110.918,77.774,111.162,77.774,111.406,77.774 M111.406,75.774h-0.733h-0.071l-0.071,0.005
				c-3.975,0.283-7.731,2.521-10.055,5.989c-1.511,2.126-2.309,4.714-2.309,7.488c0,7.435,6.048,13.483,13.483,13.483
				c4.231,0,8.314-2,10.657-5.22l0.024-0.033l0.022-0.034c0.501-0.751,1.067-1.598,1.406-2.533c0.899-1.839,1.374-3.794,1.374-5.662
				c0-1.711-0.199-3.902-1.701-5.882c-0.343-0.847-0.859-1.621-1.322-2.314l-0.054-0.081l-0.062-0.075
				C119.287,77.597,115.526,75.774,111.406,75.774L111.406,75.774z"/>
		</g>
	</g>
	<g>
		<g>
			<path fill="#FFFFFF" d="M241.624,95.144c-6.824,0-13.151-2.72-18.297-7.866c-7.924-7.668-12.754-20.028-13.242-33.899l0-1.99
				c0-2.761,0.255-5.534,0.494-7.917c2.772-20.92,15.929-36.082,31.289-36.082c15.47,0,28.525,15.166,31.042,36.062
				c0.284,2.822,0.478,5.361,0.007,8.025v2.866h-11.772v-2.955c0-2.594,0-5.276-0.468-7.622
				c-2.144-14.046-10.437-24.604-19.298-24.604c-8.861,0-17.154,10.558-19.289,24.559c-0.228,2.289-0.477,5.007-0.477,7.667v1.955
				c0.469,10.048,3.928,19.397,9.251,24.961c3.356,3.356,6.982,5.066,10.76,5.066c0.879,0,2.071-0.238,3.224-0.468l0.707-0.141
				l0.357,0.625c1.09,1.908,1.598,3.773,1.598,5.871c0,1.627-0.523,3.196-1.028,4.713l-0.147,0.44l-0.431,0.174
				C244.504,95.144,242.907,95.144,241.624,95.144z"/>
			<path fill="#FFFFFF" d="M241.868,8.39c15.147,0,27.607,14.903,30.05,35.181c0.245,2.442,0.489,5.13,0,7.817
				c0,0.733,0,1.222,0,1.955h-9.772c0-0.733,0-1.222,0-1.955c0-2.688,0-5.375-0.488-7.818c-2.199-14.414-10.75-25.408-20.278-25.408
				c-9.528,0-18.079,10.993-20.278,25.408c-0.244,2.443-0.488,5.13-0.488,7.818c0,0.733,0,1.222,0,1.955
				c0.489,10.506,4.153,20.034,9.528,25.653c3.421,3.421,7.33,5.375,11.483,5.375c0.977,0,2.198-0.244,3.42-0.488
				c0.977,1.71,1.466,3.42,1.466,5.375c0,1.466-0.489,2.932-0.978,4.398c-1.221,0.488-2.687,0.488-3.909,0.488
				c-6.596,0-12.704-2.687-17.59-7.573c-7.574-7.33-12.46-19.301-12.949-33.227c0-0.733,0-1.222,0-1.955
				c0-2.688,0.244-5.375,0.489-7.818C214.261,23.293,226.721,8.39,241.868,8.39 M241.868,6.39c-7.878,0-15.457,3.796-21.341,10.688
				c-5.694,6.671-9.579,15.987-10.936,26.23l-0.004,0.031l-0.003,0.032c-0.241,2.408-0.499,5.211-0.499,8.018v1.955v0.035
				l0.001,0.035c0.497,14.127,5.438,26.736,13.558,34.594c5.314,5.314,11.885,8.136,18.98,8.136c1.369,0,3.073,0,4.651-0.63
				l0.862-0.344l0.293-0.881c0.531-1.594,1.08-3.24,1.08-5.03c0-2.248-0.565-4.331-1.729-6.367l-0.715-1.251l-1.413,0.282
				c-1.105,0.221-2.248,0.449-3.028,0.449c-3.504,0-6.891-1.611-10.068-4.789c-5.122-5.355-8.475-14.443-8.943-24.286v-1.908
				c0-2.594,0.243-5.263,0.473-7.567c2.073-13.492,9.932-23.659,18.293-23.659c8.371,0,16.239,10.193,18.301,23.71l0.007,0.045
				l0.009,0.045c0.449,2.249,0.449,4.764,0.449,7.426v1.955v2h2h9.772h2v-2v-1.78c0.512-2.995,0.211-5.991-0.01-8.191
				C271.325,21.926,257.852,6.39,241.868,6.39L241.868,6.39z"/>
		</g>
	</g>
	<g>
		<g>
			<path fill="#FFFFFF" d="M235.272,101.495c-6.883,0-12.483-5.6-12.483-12.482c0-0.59,0.077-1.162,0.145-1.667
				c0.052-0.384,0.101-0.748,0.101-1.021v-0.106l0.022-0.104c0.769-3.585,3.288-6.6,6.911-8.272
				c1.428-0.715,3.172-1.069,5.305-1.069c2.493,0,4.89,0.709,7.126,2.106c1.563,1.042,2.934,2.607,3.784,4.311
				c1.086,2.171,1.571,4.042,1.571,6.066c0,2.035-0.341,3.574-1.073,4.833c-0.771,1.998-2.271,3.864-4.232,5.265
				C240.16,100.787,237.763,101.495,235.272,101.495z"/>
			<path fill="#FFFFFF" d="M235.272,77.774c2.443,0,4.642,0.733,6.596,1.955c1.466,0.977,2.688,2.443,3.42,3.909
				c0.978,1.954,1.466,3.664,1.466,5.619c0,1.71-0.244,3.176-0.977,4.398c-0.733,1.954-2.199,3.665-3.909,4.886
				c-1.955,1.221-4.153,1.954-6.596,1.954c-6.352,0-11.483-5.13-11.483-11.482c0-0.977,0.245-1.955,0.245-2.688
				c0.733-3.42,3.176-6.108,6.352-7.574C231.852,78.018,233.562,77.774,235.272,77.774 M235.272,75.774
				c-2.278,0-4.16,0.384-5.752,1.174c-3.897,1.808-6.608,5.071-7.441,8.958l-0.044,0.207v0.212c0,0.207-0.044,0.538-0.092,0.888
				c-0.072,0.536-0.153,1.143-0.153,1.8c0,7.434,6.048,13.482,13.483,13.482c2.681,0,5.257-0.759,7.655-2.257l0.053-0.033
				l0.05-0.036c2.095-1.496,3.707-3.495,4.555-5.646c0.796-1.403,1.168-3.083,1.168-5.266c0-2.188-0.517-4.197-1.677-6.514
				c-0.925-1.853-2.42-3.559-4.099-4.678l-0.024-0.016l-0.025-0.016C240.531,76.534,237.955,75.774,235.272,75.774L235.272,75.774z"
				/>
		</g>
	</g>
	<g>
		<g>
			<path fill="#FFFFFF" d="M370.864,95.144c-6.824,0-13.151-2.72-18.297-7.866c-7.924-7.668-12.754-20.028-13.24-33.899l-0.001-1.99
				c0-2.751,0.255-5.529,0.493-7.917C342.34,22.556,355.395,7.39,370.864,7.39s28.525,15.166,31.044,36.062
				c0.271,2.706,0.491,5.339,0.245,8.028l0.004,2.864h-11.772v-2.955c0-2.594,0-5.276-0.467-7.623
				c-2.145-14.045-10.438-24.604-19.298-24.604c-8.861,0-17.153,10.558-19.289,24.559c-0.238,2.4-0.478,5.017-0.478,7.667v1.955
				c0.469,10.048,3.928,19.397,9.251,24.961c3.355,3.356,6.98,5.066,10.76,5.066c0.881,0,2.072-0.238,3.225-0.468l0.707-0.141
				l0.357,0.625c1.09,1.906,1.598,3.772,1.598,5.871c0,1.619-0.519,3.178-1.02,4.686l-0.146,0.441l-0.44,0.2
				C373.744,95.144,372.147,95.144,370.864,95.144z"/>
			<path fill="#FFFFFF" d="M370.864,8.39c15.147,0,27.607,14.903,30.051,35.181c0.244,2.442,0.488,5.13,0.242,7.817
				c0,0.733,0,1.222,0,1.955h-9.772c0-0.733,0-1.222,0-1.955c0-2.688,0-5.375-0.486-7.818c-2.199-14.414-10.75-25.408-20.278-25.408
				s-18.079,10.993-20.277,25.408c-0.244,2.443-0.489,5.13-0.489,7.818c0,0.733,0,1.222,0,1.955
				c0.489,10.506,4.153,20.034,9.528,25.653c3.42,3.421,7.329,5.375,11.482,5.375c0.978,0,2.199-0.244,3.421-0.488
				c0.978,1.71,1.466,3.42,1.466,5.375c0,1.466-0.49,2.932-0.978,4.398c-1.222,0.488-2.688,0.488-3.909,0.488
				c-6.598,0-12.704-2.687-17.59-7.573c-7.574-7.33-12.46-19.301-12.948-33.227c0-0.733,0-1.222,0-1.955
				c0-2.688,0.244-5.375,0.488-7.818C343.258,23.293,355.718,8.39,370.864,8.39 M370.864,6.39
				c-15.983,0-29.456,15.536-32.035,36.942c-0.246,2.452-0.503,5.26-0.503,8.057v1.955v0.035l0.001,0.035
				c0.495,14.127,5.437,26.736,13.557,34.594c5.313,5.314,11.886,8.136,18.98,8.136c1.369,0,3.072,0,4.65-0.63l0.863-0.345
				l0.294-0.882c0.535-1.611,1.079-3.249,1.079-5.029c0-2.249-0.565-4.332-1.729-6.368l-0.715-1.251l-1.413,0.282
				c-1.104,0.221-2.247,0.449-3.029,0.449c-3.504,0-6.892-1.611-10.068-4.789c-5.122-5.355-8.475-14.443-8.942-24.286v-1.908
				c0-2.586,0.233-5.155,0.475-7.567c2.073-13.491,9.932-23.659,18.292-23.659c8.371,0,16.239,10.193,18.301,23.71l0.007,0.044
				l0.009,0.044c0.448,2.25,0.448,4.765,0.448,7.427v1.955v2h2h9.772h2v-2v-1.866c0.241-2.743,0.019-5.399-0.252-8.105
				C400.321,21.926,386.849,6.39,370.864,6.39L370.864,6.39z"/>
		</g>
	</g>
	<g>
		<g>
			<path fill="#FFFFFF" d="M364.267,101.495c-6.882,0-12.481-5.6-12.481-12.482c0-1.02,0-2.073,0.278-2.949
				c0.779-3.561,3.291-6.555,6.899-8.22c1.428-0.715,3.173-1.069,5.306-1.069c2.494,0,4.892,0.709,7.128,2.106
				c1.561,1.04,2.932,2.605,3.785,4.31c1.085,2.174,1.569,4.045,1.569,6.066c0,2.035-0.341,3.574-1.073,4.833
				c-0.771,1.998-2.271,3.865-4.232,5.265C369.157,100.787,366.76,101.495,364.267,101.495z"/>
			<path fill="#FFFFFF" d="M364.269,77.774c2.442,0,4.644,0.733,6.598,1.955c1.467,0.977,2.688,2.443,3.421,3.909
				c0.976,1.954,1.464,3.664,1.464,5.619c0,1.71-0.244,3.176-0.978,4.398c-0.732,1.954-2.198,3.665-3.909,4.886
				c-1.954,1.221-4.153,1.954-6.598,1.954c-6.353,0-11.481-5.13-11.481-11.482c0-0.977,0-1.955,0.245-2.688
				c0.73-3.42,3.176-6.108,6.352-7.574C360.848,78.018,362.559,77.774,364.269,77.774 M364.269,75.774
				c-2.278,0-4.161,0.384-5.753,1.174c-3.866,1.794-6.564,5.017-7.419,8.858c-0.312,1.011-0.312,2.127-0.312,3.207
				c0,7.434,6.048,13.482,13.481,13.482c2.684,0,5.26-0.76,7.657-2.257l0.053-0.033l0.05-0.036c2.096-1.496,3.707-3.495,4.556-5.646
				c0.797-1.403,1.169-3.083,1.169-5.266c0-2.185-0.517-4.193-1.675-6.513c-0.929-1.857-2.424-3.563-4.102-4.68l-0.023-0.016
				l-0.024-0.015C369.529,76.534,366.952,75.774,364.269,75.774L364.269,75.774z"/>
		</g>
	</g>
	<g>
		<g>
			<path fill="#FFFFFF" d="M489.845,95.144c-6.824,0-13.151-2.72-18.298-7.866c-7.924-7.669-12.754-20.029-13.24-33.899l-0.001-1.99
				c0-2.751,0.255-5.53,0.493-7.917c2.522-20.916,15.578-36.082,31.046-36.082c15.472,0,28.527,15.166,31.043,36.062
				c0.24,2.408,0.495,5.186,0.493,7.938v2.954H509.61v-2.955c0-2.594,0-5.276-0.469-7.622
				c-2.144-14.046-10.436-24.604-19.297-24.604s-17.153,10.558-19.288,24.559c-0.228,2.289-0.477,5.007-0.477,7.667v1.955
				c0.468,10.047,3.927,19.396,9.251,24.961c3.079,3.318,6.711,5.066,10.514,5.066c0.88,0,2.071-0.238,3.224-0.468l0.706-0.141
				l0.358,0.625c1.091,1.906,1.6,3.771,1.6,5.872c0,1.8-0.354,3.385-1.085,4.845l-0.17,0.34l-0.354,0.142
				C492.726,95.144,491.128,95.144,489.845,95.144z"/>
			<path fill="#FFFFFF" d="M489.845,8.39c15.148,0,27.608,14.903,30.05,35.181c0.244,2.442,0.488,5.13,0.486,7.817
				c0,0.733,0,1.222,0,1.955h-9.771c0-0.733,0-1.222,0-1.955c0-2.688,0-5.375-0.488-7.818c-2.198-14.414-10.75-25.408-20.277-25.408
				c-9.526,0-18.079,10.993-20.276,25.408c-0.244,2.443-0.488,5.13-0.488,7.818c0,0.733,0,1.222,0,1.955
				c0.488,10.506,4.153,20.034,9.528,25.653c3.175,3.421,7.085,5.375,11.236,5.375c0.979,0,2.198-0.244,3.42-0.488
				c0.979,1.71,1.468,3.42,1.468,5.375c0,1.466-0.246,2.932-0.979,4.398c-1.22,0.488-2.686,0.488-3.908,0.488
				c-6.597,0-12.704-2.687-17.591-7.573c-7.573-7.33-12.46-19.301-12.948-33.227c0-0.733,0-1.222,0-1.955
				c0-2.688,0.244-5.375,0.488-7.818C462.239,23.293,474.699,8.39,489.845,8.39 M489.845,6.39
				c-15.981,0-29.455,15.536-32.036,36.942c-0.246,2.452-0.503,5.26-0.503,8.057v1.955v0.035l0.001,0.035
				c0.495,14.126,5.437,26.735,13.557,34.594c5.314,5.314,11.887,8.136,18.981,8.136c1.369,0,3.073,0,4.651-0.631l0.705-0.282
				l0.341-0.68c0.801-1.602,1.19-3.333,1.19-5.292c0-2.251-0.566-4.334-1.732-6.369l-0.716-1.249l-1.411,0.282
				c-1.104,0.221-2.247,0.449-3.028,0.449c-3.517,0-6.896-1.638-9.771-4.735c-5.175-5.41-8.527-14.498-8.994-24.339v-1.908
				c0-2.594,0.243-5.263,0.474-7.567c2.071-13.492,9.93-23.659,18.291-23.659c8.371,0,16.239,10.193,18.3,23.71l0.008,0.045
				l0.009,0.045c0.449,2.249,0.449,4.763,0.449,7.426v1.955v2h2h9.771h2v-2v-1.955c0.002-2.796-0.255-5.604-0.496-8.016
				C519.303,21.927,505.83,6.39,489.845,6.39L489.845,6.39z"/>
		</g>
	</g>
	<g>
		<g>
			<path fill="#FFFFFF" d="M483.246,101.495c-6.883,0-12.482-5.6-12.482-12.482c0-0.59,0.076-1.162,0.144-1.667
				c0.052-0.385,0.101-0.748,0.101-1.021v-0.106l0.022-0.104c0.768-3.585,3.287-6.6,6.912-8.272
				c1.428-0.715,3.173-1.069,5.306-1.069c2.492,0,4.89,0.709,7.127,2.106c1.564,1.042,2.935,2.608,3.784,4.311
				c1.087,2.171,1.571,4.042,1.571,6.065c0,2.036-0.342,3.575-1.075,4.833c-0.771,1.997-2.271,3.864-4.231,5.265
				C488.135,100.787,485.737,101.495,483.246,101.495z"/>
			<path fill="#FFFFFF" d="M483.248,77.774c2.443,0,4.642,0.733,6.597,1.955c1.466,0.977,2.688,2.443,3.42,3.909
				c0.978,1.954,1.466,3.664,1.466,5.619c0,1.71-0.244,3.176-0.979,4.398c-0.732,1.954-2.198,3.665-3.908,4.886
				c-1.955,1.221-4.151,1.954-6.597,1.954c-6.354,0-11.482-5.13-11.482-11.482c0-0.977,0.244-1.955,0.244-2.688
				c0.732-3.42,3.176-6.108,6.354-7.574C479.827,78.018,481.538,77.774,483.248,77.774 M483.248,75.774
				c-2.278,0-4.16,0.384-5.753,1.174c-3.898,1.808-6.61,5.072-7.443,8.958l-0.044,0.207v0.212c0,0.207-0.044,0.538-0.091,0.889
				c-0.072,0.535-0.153,1.142-0.153,1.799c0,7.434,6.048,13.482,13.482,13.482c2.682,0,5.257-0.759,7.656-2.257l0.053-0.033
				l0.05-0.036c2.095-1.496,3.706-3.495,4.555-5.644c0.798-1.403,1.171-3.083,1.171-5.268c0-2.187-0.518-4.195-1.677-6.514
				c-0.925-1.853-2.419-3.558-4.1-4.678l-0.024-0.017l-0.025-0.016C488.506,76.534,485.931,75.774,483.248,75.774L483.248,75.774z"
				/>
		</g>
	</g>
</g>
</svg>
