<?xml version="1.0" encoding="utf-8"?>
<!-- Generator: Adobe Illustrator 16.0.0, SVG Export Plug-In . SVG Version: 6.00 Build 0)  -->
<!DOCTYPE svg PUBLIC "-//W3C//DTD SVG 1.1//EN" "http://www.w3.org/Graphics/SVG/1.1/DTD/svg11.dtd">
<svg version="1.1" id="Layer_1" xmlns="http://www.w3.org/2000/svg" xmlns:xlink="http://www.w3.org/1999/xlink" x="0px" y="0px"
	 width="600px" height="600px" viewBox="0 0 600 600" enable-background="new 0 0 600 600" xml:space="preserve">
<g>
	<g>
		<polygon fill="#FFFFFF" stroke="#FFFFFF" stroke-width="3" stroke-miterlimit="10" points="420.771,359.023 436.527,362.342 
			417.122,362.342 417.122,358.195 		"/>
		<path fill="#FFFFFF" stroke="#FFFFFF" stroke-width="3" stroke-miterlimit="10" d="M332.868,222.527v6.634l3.315,0.663v3.483
			l3.316,0.664v-11.444H332.868z M420.771,359.023h-3.648v6.635h35.161L420.771,359.023z M332.868,222.527v6.634l3.315,0.663v3.483
			l3.316,0.664v-11.444H332.868z M472.02,215.893v6.634h6.636v-6.634H472.02z M472.02,258.683v6.8l3.317,0.664l3.316,0.663v-6.8
			l-3.316-0.664L472.02,258.683z M332.868,222.527v6.634l3.315,0.663v3.483l3.316,0.664v-11.444H332.868z M332.868,15.542v92.214
			h6.634v-85.58H472.02v65.512h6.636V15.542H332.868z M332.868,215.893v20.068l6.634,1.327v-21.561L332.868,215.893L332.868,215.893
			z M332.868,222.527v6.634l3.315,0.663v3.483l3.316,0.664v-11.444H332.868z"/>
	</g>
	<g>
		<polygon fill="#FFFFFF" stroke="#FFFFFF" stroke-width="3" stroke-miterlimit="10" points="72.146,471.308 68.829,471.308 
			68.829,470.644 		"/>
		<path fill="#FFFFFF" stroke="#FFFFFF" stroke-width="3" stroke-miterlimit="10" d="M420.107,171.112v6.634h6.634v-6.634H420.107z
			 M513.814,171.112v6.634h31.015V467.99H533.22v6.634h18.243V171.112H513.814L513.814,171.112z M65.512,171.112v303.512h22.39
			l-15.756-3.316l-3.317-0.664V180.566l3.317,0.664v-3.483h231.366v-6.634L65.512,171.112L65.512,171.112z"/>
	</g>
	<g>
		<path fill="#FFFFFF" stroke="#FFFFFF" stroke-width="3" stroke-miterlimit="10" d="M513.317,267.307l-31.515-6.634l-3.149-0.664
			l-3.316-0.664l-3.317-0.663l-132.518-27.864l-3.316-0.663l-3.315-0.664l-31.845-6.634l-4.146-0.829l-24.049-4.976L87.902,177.746
			l-15.756-3.317l-6.634-1.327l-4.976-0.995v303.678l479.315,100.839V272.946L513.317,267.307z M533.22,568.332L87.902,474.624
			l-15.756-3.316l-3.317-0.664l-1.658-0.331V180.234l1.658,0.332l3.317,0.664l260.722,54.897l6.634,1.327l132.518,27.863
			l3.317,0.664l3.316,0.664l54.564,11.444L533.22,568.332L533.22,568.332z"/>
	</g>
	<g>
		<path fill="#FFFFFF" stroke="#FFFFFF" stroke-width="3" stroke-miterlimit="10" d="M533.22,382.741l-80.937-17.083l-31.515-6.635
			l-3.646-0.828v79.773L533.22,462.35l6.634,1.326v-79.773L533.22,382.741z M423.756,366.488l109.464,23.053v66.176l-109.464-23.054
			V366.488L423.756,366.488z"/>
	</g>
	<g>
		
			<rect x="272.829" y="215.893" fill="#FFFFFF" stroke="#FFFFFF" stroke-width="3" stroke-miterlimit="10" width="275.317" height="6.634"/>
	</g>
	<g>
		
			<rect x="481.805" y="260.673" fill="#FFFFFF" stroke="#FFFFFF" stroke-width="3" stroke-miterlimit="10" width="66.342" height="6.634"/>
	</g>
	<g>
		<path fill="#FFFFFF" stroke="#FFFFFF" stroke-width="3" stroke-miterlimit="10" d="M507.844,84.371H403.19
			c-5.144,0-9.288,2.985-9.288,6.634v16.585h20.232c3.98,0,5.973,1.824,5.973,2.322v105.815h-26.205v3.317h123.229V91.005
			C517.132,87.356,512.985,84.371,507.844,84.371z M513.814,215.893h-87.073V110.078c0-4.976-5.475-8.956-12.604-8.956H397.22
			v-9.951c0-1.659,2.487-3.317,5.973-3.317h104.651c3.483,0,5.973,1.825,5.973,3.317L513.814,215.893L513.814,215.893z"/>
		<path fill="#FFFFFF" stroke="#FFFFFF" stroke-width="3" stroke-miterlimit="10" d="M507.844,81.054H403.19
			c-7.134,0-12.605,4.478-12.605,9.951v16.585h6.635V91.005c0-1.659,2.487-3.317,5.973-3.317h104.651
			c3.483,0,5.973,1.824,5.973,3.317v124.888h-123.23v6.634H520.45V91.005C520.449,85.532,514.976,81.054,507.844,81.054z"/>
	</g>
	<g>
		<path fill="#FFFFFF" stroke="#FFFFFF" stroke-width="3" stroke-miterlimit="10" d="M414.137,104.439H309.483
			c-5.144,0-9.29,2.488-9.29,5.639V219.21h123.229V110.078C423.425,106.927,419.278,104.439,414.137,104.439z M420.107,215.893
			H303.512V110.078c0-0.664,1.99-2.322,5.973-2.322h104.651c3.98,0,5.973,1.825,5.973,2.322L420.107,215.893L420.107,215.893z"/>
		<path fill="#FFFFFF" stroke="#FFFFFF" stroke-width="3" stroke-miterlimit="10" d="M414.137,101.122H309.483
			c-7.132,0-12.605,3.98-12.605,8.956v112.449h129.863V110.078C426.741,105.103,421.269,101.122,414.137,101.122z M420.107,215.893
			H303.512V110.078c0-0.664,1.99-2.322,5.973-2.322h104.651c3.98,0,5.973,1.825,5.973,2.322L420.107,215.893L420.107,215.893z"/>
	</g>
</g>
</svg>
