<?xml version="1.0" encoding="utf-8"?>
<!-- Generator: Adobe Illustrator 21.1.0, SVG Export Plug-In . SVG Version: 6.00 Build 0)  -->
<svg version="1.1" id="Layer_1" xmlns="http://www.w3.org/2000/svg" xmlns:xlink="http://www.w3.org/1999/xlink" x="0px" y="0px"
	 viewBox="0 0 350 200" style="enable-background:new 0 0 350 200;" xml:space="preserve">
<style type="text/css">
	.st0{fill:#E5E5E5;}
	.st1{fill:#FEFEFE;}
</style>
<rect class="st0" width="350" height="200"/>
<g id="m1pPp8.tif">
	<g>
		<g>
			<path class="st1" d="M176,45c18.9,0,37.8,0,56.7,0c7,0,12,5,12,11.9c0,28.6,0,57.2,0,85.7c0,7.2-5,12.2-12.2,12.2
				c-37.7,0-75.3,0-113,0c-7.1,0-12-5-12-12.1c0-28.6,0-57.2,0-85.7c0-7.1,4.9-12,12-12C138.3,45,157.1,45,176,45z M175.9,54.2
				c-18.7,0-37.4,0-56,0c-2.6,0-3.2,0.6-3.2,3.2c0,28.2,0,56.5,0,84.7c0,2.8,0.7,3.4,3.5,3.4c37.3,0,74.6,0,111.8,0
				c2.8,0,3.5-0.7,3.5-3.5c0-18.7,0-37.4,0-56c0-9.6,0-19.2,0-28.8c0-0.9-0.3-1.9-0.9-2.5c-0.5-0.5-1.6-0.6-2.4-0.6
				C213.4,54.2,194.6,54.2,175.9,54.2z"/>
			<path class="st1" d="M159.8,111.4c0.7-0.7,1.1-1,1.4-1.4c11.4-11.4,22.8-22.8,34.2-34.2c1.2-1.2,1.2-1.2,2.4,0
				c9.1,9.1,18.2,18.2,27.3,27.3c0.8,0.8,1.1,1.6,1.1,2.7c0,9.6,0,19.2,0,28.8c0,1.7,0,1.7-1.7,1.7c-32.4,0-64.8,0-97.2,0
				c-1.3,0-1.7-0.4-1.7-1.7c0.1-3.6,0-7.2,0.1-10.7c0-0.8,0.4-1.7,0.9-2.2c7-7,14-14,20.9-21c0.8-0.8,1.3-0.7,2,0
				c3.1,3.1,6.2,6.2,9.3,9.3C159.2,110.4,159.4,110.9,159.8,111.4z"/>
			<path class="st1" d="M139.4,90.7c-7.9-0.3-13.7-6.2-13.7-13.9c0.1-7.9,6.3-13.7,13.9-13.7c7.5,0,13.8,6.4,13.6,13.8
				C153,84.8,147,90.5,139.4,90.7z"/>
		</g>
	</g>
</g>
</svg>
