<?xml version="1.0" encoding="utf-8"?>
<!-- Generator: Adobe Illustrator 21.0.1, SVG Export Plug-In . SVG Version: 6.00 Build 0)  -->
<svg version="1.1" id="Layer_1" xmlns="http://www.w3.org/2000/svg" xmlns:xlink="http://www.w3.org/1999/xlink" x="0px" y="0px"
	 viewBox="0 0 324 291" style="enable-background:new 0 0 324 291;" xml:space="preserve">
<style type="text/css">
	.st0{fill:none;stroke:#D86C32;stroke-width:4;stroke-miterlimit:10;}
	.st1{fill:none;stroke:#D86C32;stroke-width:0.5;stroke-miterlimit:10;}
	.st2{clip-path:url(#SVGID_2_);fill:#CBE1DD;stroke:#D86C32;stroke-width:2;stroke-miterlimit:10;}
	.st3{clip-path:url(#SVGID_4_);fill:#CBE1DD;stroke:#D86C32;stroke-width:2;stroke-miterlimit:10;}
	.st4{clip-path:url(#SVGID_6_);fill:none;stroke:#D86C32;stroke-width:2;stroke-miterlimit:10;}
	.st5{clip-path:url(#SVGID_8_);fill:none;stroke:#D86C32;stroke-width:2;stroke-miterlimit:10;}
	.st6{clip-path:url(#SVGID_10_);fill:none;stroke:#D86C32;stroke-width:2;stroke-miterlimit:10;}
	.st7{clip-path:url(#SVGID_12_);fill:none;stroke:#D86C32;stroke-width:2;stroke-miterlimit:10;}
	.st8{clip-path:url(#SVGID_14_);fill:none;stroke:#D86C32;stroke-width:2;stroke-miterlimit:10;}
	.st9{clip-path:url(#SVGID_16_);fill:none;stroke:#D86C32;stroke-width:2;stroke-miterlimit:10;}
	.st10{clip-path:url(#SVGID_18_);fill:none;stroke:#D86C32;stroke-width:2;stroke-miterlimit:10;}
	.st11{clip-path:url(#SVGID_20_);fill:none;stroke:#D86C32;stroke-width:2;stroke-miterlimit:10;}
	.st12{clip-path:url(#SVGID_22_);fill:none;stroke:#D86C32;stroke-width:2;stroke-miterlimit:10;}
	.st13{clip-path:url(#SVGID_24_);fill:none;stroke:#D86C32;stroke-width:2;stroke-miterlimit:10;}
	.st14{clip-path:url(#SVGID_26_);fill:none;stroke:#D86C32;stroke-width:2;stroke-miterlimit:10;}
	.st15{clip-path:url(#SVGID_28_);fill:none;stroke:#D86C32;stroke-width:2;stroke-miterlimit:10;}
	.st16{clip-path:url(#SVGID_30_);fill:none;stroke:#D86C32;stroke-width:2;stroke-miterlimit:10;}
	.st17{clip-path:url(#SVGID_32_);fill:none;stroke:#D86C32;stroke-width:2;stroke-miterlimit:10;}
	.st18{clip-path:url(#SVGID_34_);fill:none;stroke:#D86C32;stroke-width:2;stroke-miterlimit:10;}
	.st19{clip-path:url(#SVGID_36_);fill:none;stroke:#D86C32;stroke-width:2;stroke-miterlimit:10;}
	.st20{clip-path:url(#SVGID_38_);fill:none;stroke:#D86C32;stroke-width:2;stroke-miterlimit:10;}
	.st21{clip-path:url(#SVGID_40_);fill:none;stroke:#D86C32;stroke-width:2;stroke-miterlimit:10;}
	.st22{clip-path:url(#SVGID_42_);fill:none;stroke:#D86C32;stroke-width:2;stroke-miterlimit:10;}
	.st23{clip-path:url(#SVGID_44_);fill:none;stroke:#D86C32;stroke-width:2;stroke-miterlimit:10;}
	.st24{clip-path:url(#SVGID_46_);fill:none;stroke:#D86C32;stroke-width:2;stroke-miterlimit:10;}
	.st25{clip-path:url(#SVGID_48_);fill:none;stroke:#D86C32;stroke-width:2;stroke-miterlimit:10;}
	.st26{clip-path:url(#SVGID_50_);fill:none;stroke:#D86C32;stroke-width:2;stroke-miterlimit:10;}
	.st27{clip-path:url(#SVGID_52_);fill:none;stroke:#D86C32;stroke-width:2;stroke-miterlimit:10;}
	.st28{clip-path:url(#SVGID_54_);fill:none;stroke:#D86C32;stroke-width:2;stroke-miterlimit:10;}
	.st29{clip-path:url(#SVGID_56_);fill:none;stroke:#D86C32;stroke-width:2;stroke-miterlimit:10;}
	.st30{clip-path:url(#SVGID_58_);fill:none;stroke:#D86C32;stroke-width:2;stroke-miterlimit:10;}
	.st31{clip-path:url(#SVGID_60_);fill:none;stroke:#D86C32;stroke-width:2;stroke-miterlimit:10;}
	.st32{clip-path:url(#SVGID_62_);fill:none;stroke:#D86C32;stroke-width:2;stroke-miterlimit:10;}
	.st33{clip-path:url(#SVGID_64_);fill:none;stroke:#D86C32;stroke-width:2;stroke-miterlimit:10;}
	.st34{clip-path:url(#SVGID_66_);fill:none;stroke:#D86C32;stroke-width:2;stroke-miterlimit:10;}
	.st35{clip-path:url(#SVGID_68_);fill:none;stroke:#D86C32;stroke-width:2;stroke-miterlimit:10;}
	.st36{clip-path:url(#SVGID_70_);fill:none;stroke:#D86C32;stroke-width:2;stroke-miterlimit:10;}
	.st37{clip-path:url(#SVGID_72_);fill:none;stroke:#D86C32;stroke-width:2;stroke-miterlimit:10;}
	.st38{clip-path:url(#SVGID_74_);fill:none;stroke:#D86C32;stroke-width:2;stroke-miterlimit:10;}
	.st39{clip-path:url(#SVGID_76_);fill:none;stroke:#D86C32;stroke-width:2;stroke-miterlimit:10;}
	.st40{fill:none;stroke:#D86C32;stroke-width:2;stroke-miterlimit:10;}
	.st41{clip-path:url(#SVGID_78_);fill:none;stroke:#D86C32;stroke-width:4;stroke-miterlimit:10;}
	.st42{clip-path:url(#SVGID_80_);fill:#CBE1DD;stroke:#D86C32;stroke-width:2;stroke-miterlimit:10;}
	.st43{clip-path:url(#SVGID_82_);fill:#CBE1DD;stroke:#D86C32;stroke-width:2;stroke-miterlimit:10;}
	.st44{clip-path:url(#SVGID_84_);fill:none;stroke:#D86C32;stroke-width:2;stroke-miterlimit:10;}
	.st45{clip-path:url(#SVGID_86_);fill:none;stroke:#D86C32;stroke-width:2;stroke-miterlimit:10;}
	.st46{clip-path:url(#SVGID_88_);fill:none;stroke:#D86C32;stroke-width:2;stroke-miterlimit:10;}
	.st47{clip-path:url(#SVGID_90_);fill:none;stroke:#D86C32;stroke-width:2;stroke-miterlimit:10;}
	.st48{clip-path:url(#SVGID_92_);fill:none;stroke:#D86C32;stroke-width:2;stroke-miterlimit:10;}
	.st49{clip-path:url(#SVGID_94_);fill:none;stroke:#D86C32;stroke-width:2;stroke-miterlimit:10;}
	.st50{clip-path:url(#SVGID_96_);fill:none;stroke:#D86C32;stroke-width:2;stroke-miterlimit:10;}
	.st51{clip-path:url(#SVGID_98_);fill:none;stroke:#D86C32;stroke-width:2;stroke-miterlimit:10;}
	.st52{clip-path:url(#SVGID_100_);fill:none;stroke:#D86C32;stroke-width:2;stroke-miterlimit:10;}
	.st53{clip-path:url(#SVGID_102_);fill:none;stroke:#D86C32;stroke-width:2;stroke-miterlimit:10;}
	.st54{clip-path:url(#SVGID_104_);fill:none;stroke:#D86C32;stroke-width:2;stroke-miterlimit:10;}
	.st55{clip-path:url(#SVGID_106_);fill:none;stroke:#D86C32;stroke-width:2;stroke-miterlimit:10;}
	.st56{clip-path:url(#SVGID_108_);fill:none;stroke:#D86C32;stroke-width:2;stroke-miterlimit:10;}
	.st57{clip-path:url(#SVGID_110_);fill:none;stroke:#D86C32;stroke-width:2;stroke-miterlimit:10;}
	.st58{clip-path:url(#SVGID_112_);fill:none;stroke:#D86C32;stroke-width:2;stroke-miterlimit:10;}
	.st59{clip-path:url(#SVGID_114_);fill:none;stroke:#D86C32;stroke-width:2;stroke-miterlimit:10;}
	.st60{clip-path:url(#SVGID_116_);fill:none;stroke:#D86C32;stroke-width:2;stroke-miterlimit:10;}
	.st61{clip-path:url(#SVGID_118_);fill:none;stroke:#D86C32;stroke-width:2;stroke-miterlimit:10;}
	.st62{clip-path:url(#SVGID_120_);fill:none;stroke:#D86C32;stroke-width:2;stroke-miterlimit:10;}
	.st63{clip-path:url(#SVGID_122_);fill:none;stroke:#D86C32;stroke-width:2;stroke-miterlimit:10;}
	.st64{clip-path:url(#SVGID_124_);fill:none;stroke:#D86C32;stroke-width:2;stroke-miterlimit:10;}
	.st65{fill:none;stroke:#D86C32;stroke-width:3;stroke-miterlimit:10;}
</style>
<path class="st0" d="M34.3,222.6c-35.6-35.6-35.6-93.4,0-129c35.6-35.6,93.4-35.6,129,0L34.3,222.6z"/>
<path class="st0" d="M292.8,221.9c35.6-35.6,35.6-93.4,0-129c-35.6-35.6-93.4-35.6-129,0L292.8,221.9z"/>
<path class="st0" d="M163.4,49.4c0-24.4,0-6.5,0-6.5S163.4,24.9,163.4,49.4c0,24.4,0,44.3,0,44.3S163.4,73.8,163.4,49.4z"/>
<path class="st0" d="M179.6,13.1c0,2.9-2.4,5.3-5.6,21.3h-21.8c-2.6-16-5-18.4-5-21.3V10c0-2.9,2.4-5.3,5.3-5.3h21.8
	c2.9,0,5.3,2.4,5.3,5.3V13.1z"/>
<path class="st1" d="M-16.8,27.2"/>
<g>
	<g>
		<defs>
			<path id="SVGID_1_" d="M32.9,221.2c-35.6-35.6-35.6-93.4,0-129c35.6-35.6,93.4-35.6,129,0L32.9,221.2z"/>
		</defs>
		<clipPath id="SVGID_2_">
			<use xlink:href="#SVGID_1_"  style="overflow:visible;"/>
		</clipPath>
		<path class="st2" d="M10.8,153.7"/>
	</g>
	<g>
		<defs>
			<path id="SVGID_3_" d="M32.9,221.2c-35.6-35.6-35.6-93.4,0-129c35.6-35.6,93.4-35.6,129,0L32.9,221.2z"/>
		</defs>
		<clipPath id="SVGID_4_">
			<use xlink:href="#SVGID_3_"  style="overflow:visible;"/>
		</clipPath>
		<path class="st3" d="M-6,192.3"/>
	</g>
	<g>
		<defs>
			<path id="SVGID_5_" d="M32.9,221.2c-35.6-35.6-35.6-93.4,0-129c35.6-35.6,93.4-35.6,129,0L32.9,221.2z"/>
		</defs>
		<clipPath id="SVGID_6_">
			<use xlink:href="#SVGID_5_"  style="overflow:visible;"/>
		</clipPath>
		<path class="st4" d="M-24,204.6"/>
	</g>
	<g>
		<defs>
			<path id="SVGID_7_" d="M32.9,221.2c-35.6-35.6-35.6-93.4,0-129c35.6-35.6,93.4-35.6,129,0L32.9,221.2z"/>
		</defs>
		<clipPath id="SVGID_8_">
			<use xlink:href="#SVGID_7_"  style="overflow:visible;"/>
		</clipPath>
		<path class="st5" d="M131.1,66.4"/>
	</g>
	<g>
		<defs>
			<path id="SVGID_9_" d="M32.9,221.2c-35.6-35.6-35.6-93.4,0-129c35.6-35.6,93.4-35.6,129,0L32.9,221.2z"/>
		</defs>
		<clipPath id="SVGID_10_">
			<use xlink:href="#SVGID_9_"  style="overflow:visible;"/>
		</clipPath>
		<path class="st6" d="M-4.5,224.5"/>
	</g>
	<g>
		<defs>
			<path id="SVGID_11_" d="M32.9,221.2c-35.6-35.6-35.6-93.4,0-129c35.6-35.6,93.4-35.6,129,0L32.9,221.2z"/>
		</defs>
		<clipPath id="SVGID_12_">
			<use xlink:href="#SVGID_11_"  style="overflow:visible;"/>
		</clipPath>
		<path class="st7" d="M150.6,86.3"/>
	</g>
	<g>
		<defs>
			<path id="SVGID_13_" d="M32.9,221.2c-35.6-35.6-35.6-93.4,0-129c35.6-35.6,93.4-35.6,129,0L32.9,221.2z"/>
		</defs>
		<clipPath id="SVGID_14_">
			<use xlink:href="#SVGID_13_"  style="overflow:visible;"/>
		</clipPath>
		<path class="st8" d="M14.8,244.2"/>
	</g>
	<g>
		<defs>
			<path id="SVGID_15_" d="M32.9,221.2c-35.6-35.6-35.6-93.4,0-129c35.6-35.6,93.4-35.6,129,0L32.9,221.2z"/>
		</defs>
		<clipPath id="SVGID_16_">
			<use xlink:href="#SVGID_15_"  style="overflow:visible;"/>
		</clipPath>
		<path class="st9" d="M169.9,106"/>
	</g>
	<g>
		<defs>
			<path id="SVGID_17_" d="M32.9,221.2c-35.6-35.6-35.6-93.4,0-129c35.6-35.6,93.4-35.6,129,0L32.9,221.2z"/>
		</defs>
		<clipPath id="SVGID_18_">
			<use xlink:href="#SVGID_17_"  style="overflow:visible;"/>
		</clipPath>
		<path class="st10" d="M-45.7,186.6"/>
	</g>
	<g>
		<defs>
			<path id="SVGID_19_" d="M32.9,221.2c-35.6-35.6-35.6-93.4,0-129c35.6-35.6,93.4-35.6,129,0L32.9,221.2z"/>
		</defs>
		<clipPath id="SVGID_20_">
			<use xlink:href="#SVGID_19_"  style="overflow:visible;"/>
		</clipPath>
		<path class="st11" d="M109.4,48.4"/>
	</g>
	<g>
		<defs>
			<path id="SVGID_21_" d="M32.9,221.2c-35.6-35.6-35.6-93.4,0-129c35.6-35.6,93.4-35.6,129,0L32.9,221.2z"/>
		</defs>
		<clipPath id="SVGID_22_">
			<use xlink:href="#SVGID_21_"  style="overflow:visible;"/>
		</clipPath>
		<path class="st12" d="M93.8,32.5"/>
	</g>
	<g>
		<defs>
			<path id="SVGID_23_" d="M32.9,221.2c-35.6-35.6-35.6-93.4,0-129c35.6-35.6,93.4-35.6,129,0L32.9,221.2z"/>
		</defs>
		<clipPath id="SVGID_24_">
			<use xlink:href="#SVGID_23_"  style="overflow:visible;"/>
		</clipPath>
		<path class="st13" d="M77.7,22.2"/>
	</g>
	<g>
		<defs>
			<path id="SVGID_25_" d="M32.9,221.2c-35.6-35.6-35.6-93.4,0-129c35.6-35.6,93.4-35.6,129,0L32.9,221.2z"/>
		</defs>
		<clipPath id="SVGID_26_">
			<use xlink:href="#SVGID_25_"  style="overflow:visible;"/>
		</clipPath>
		<path class="st14" d="M60.4,39.2"/>
	</g>
	<g>
		<defs>
			<path id="SVGID_27_" d="M32.9,221.2c-35.6-35.6-35.6-93.4,0-129c35.6-35.6,93.4-35.6,129,0L32.9,221.2z"/>
		</defs>
		<clipPath id="SVGID_28_">
			<use xlink:href="#SVGID_27_"  style="overflow:visible;"/>
		</clipPath>
		<path class="st15" d="M44,55.3"/>
	</g>
	<g>
		<defs>
			<path id="SVGID_29_" d="M32.9,221.2c-35.6-35.6-35.6-93.4,0-129c35.6-35.6,93.4-35.6,129,0L32.9,221.2z"/>
		</defs>
		<clipPath id="SVGID_30_">
			<use xlink:href="#SVGID_29_"  style="overflow:visible;"/>
		</clipPath>
		<path class="st16" d="M27.8,71.1"/>
	</g>
	<g>
		<defs>
			<path id="SVGID_31_" d="M32.9,221.2c-35.6-35.6-35.6-93.4,0-129c35.6-35.6,93.4-35.6,129,0L32.9,221.2z"/>
		</defs>
		<clipPath id="SVGID_32_">
			<use xlink:href="#SVGID_31_"  style="overflow:visible;"/>
		</clipPath>
		<path class="st17" d="M9.4,89.1"/>
	</g>
	<g>
		<defs>
			<path id="SVGID_33_" d="M32.9,221.2c-35.6-35.6-35.6-93.4,0-129c35.6-35.6,93.4-35.6,129,0L32.9,221.2z"/>
		</defs>
		<clipPath id="SVGID_34_">
			<use xlink:href="#SVGID_33_"  style="overflow:visible;"/>
		</clipPath>
		<path class="st18" d="M17.9,99.2"/>
	</g>
	<g>
		<defs>
			<path id="SVGID_35_" d="M32.9,221.2c-35.6-35.6-35.6-93.4,0-129c35.6-35.6,93.4-35.6,129,0L32.9,221.2z"/>
		</defs>
		<clipPath id="SVGID_36_">
			<use xlink:href="#SVGID_35_"  style="overflow:visible;"/>
		</clipPath>
		<path class="st19" d="M34.6,82.8"/>
	</g>
	<g>
		<defs>
			<path id="SVGID_37_" d="M32.9,221.2c-35.6-35.6-35.6-93.4,0-129c35.6-35.6,93.4-35.6,129,0L32.9,221.2z"/>
		</defs>
		<clipPath id="SVGID_38_">
			<use xlink:href="#SVGID_37_"  style="overflow:visible;"/>
		</clipPath>
		<path class="st20" d="M48.5,69.2"/>
	</g>
	<g>
		<defs>
			<path id="SVGID_39_" d="M32.9,221.2c-35.6-35.6-35.6-93.4,0-129c35.6-35.6,93.4-35.6,129,0L32.9,221.2z"/>
		</defs>
		<clipPath id="SVGID_40_">
			<use xlink:href="#SVGID_39_"  style="overflow:visible;"/>
		</clipPath>
		<path class="st21" d="M62.5,55.5"/>
	</g>
	<g>
		<defs>
			<path id="SVGID_41_" d="M32.9,221.2c-35.6-35.6-35.6-93.4,0-129c35.6-35.6,93.4-35.6,129,0L32.9,221.2z"/>
		</defs>
		<clipPath id="SVGID_42_">
			<use xlink:href="#SVGID_41_"  style="overflow:visible;"/>
		</clipPath>
		<path class="st22" d="M88.9,29.7"/>
	</g>
	<g>
		<defs>
			<path id="SVGID_43_" d="M32.9,221.2c-35.6-35.6-35.6-93.4,0-129c35.6-35.6,93.4-35.6,129,0L32.9,221.2z"/>
		</defs>
		<clipPath id="SVGID_44_">
			<use xlink:href="#SVGID_43_"  style="overflow:visible;"/>
		</clipPath>
		<path class="st23" d="M75.2,43.1"/>
	</g>
	<g>
		<defs>
			<path id="SVGID_45_" d="M32.9,221.2c-35.6-35.6-35.6-93.4,0-129c35.6-35.6,93.4-35.6,129,0L32.9,221.2z"/>
		</defs>
		<clipPath id="SVGID_46_">
			<use xlink:href="#SVGID_45_"  style="overflow:visible;"/>
		</clipPath>
		<line class="st24" x1="154.2" y1="86.6" x2="26.5" y2="211.8"/>
	</g>
	<g>
		<defs>
			<path id="SVGID_47_" d="M32.9,221.2c-35.6-35.6-35.6-93.4,0-129c35.6-35.6,93.4-35.6,129,0L32.9,221.2z"/>
		</defs>
		<clipPath id="SVGID_48_">
			<use xlink:href="#SVGID_47_"  style="overflow:visible;"/>
		</clipPath>
		<path class="st25" d="M161.2,101.3c0,0-32.3,51.9-124.5,122"/>
	</g>
	<g>
		<defs>
			<path id="SVGID_49_" d="M32.9,221.2c-35.6-35.6-35.6-93.4,0-129c35.6-35.6,93.4-35.6,129,0L32.9,221.2z"/>
		</defs>
		<clipPath id="SVGID_50_">
			<use xlink:href="#SVGID_49_"  style="overflow:visible;"/>
		</clipPath>
		<path class="st26" d="M139.7,78.3c0,0-53.3,31.5-125.2,122.3"/>
	</g>
	<g>
		<defs>
			<path id="SVGID_51_" d="M32.9,221.2c-35.6-35.6-35.6-93.4,0-129c35.6-35.6,93.4-35.6,129,0L32.9,221.2z"/>
		</defs>
		<clipPath id="SVGID_52_">
			<use xlink:href="#SVGID_51_"  style="overflow:visible;"/>
		</clipPath>
		<path class="st27" d="M123.6,69.1c0,0-54.1,18.4-124.5,122"/>
	</g>
	<g>
		<defs>
			<path id="SVGID_53_" d="M32.9,221.2c-35.6-35.6-35.6-93.4,0-129c35.6-35.6,93.4-35.6,129,0L32.9,221.2z"/>
		</defs>
		<clipPath id="SVGID_54_">
			<use xlink:href="#SVGID_53_"  style="overflow:visible;"/>
		</clipPath>
		<path class="st28" d="M110.7,55.9c0,0-54.1,18.4-124.5,122"/>
	</g>
	<g>
		<defs>
			<path id="SVGID_55_" d="M32.9,221.2c-35.6-35.6-35.6-93.4,0-129c35.6-35.6,93.4-35.6,129,0L32.9,221.2z"/>
		</defs>
		<clipPath id="SVGID_56_">
			<use xlink:href="#SVGID_55_"  style="overflow:visible;"/>
		</clipPath>
		<path class="st29" d="M169.5,119.4c0,0-19.5,53.7-124.5,122"/>
	</g>
	<g>
		<defs>
			<path id="SVGID_57_" d="M32.9,221.2c-35.6-35.6-35.6-93.4,0-129c35.6-35.6,93.4-35.6,129,0L32.9,221.2z"/>
		</defs>
		<clipPath id="SVGID_58_">
			<use xlink:href="#SVGID_57_"  style="overflow:visible;"/>
		</clipPath>
		<path class="st30" d="M182.3,132.6c0,0-19.5,53.7-124.5,122"/>
	</g>
	<g>
		<defs>
			<path id="SVGID_59_" d="M32.9,221.2c-35.6-35.6-35.6-93.4,0-129c35.6-35.6,93.4-35.6,129,0L32.9,221.2z"/>
		</defs>
		<clipPath id="SVGID_60_">
			<use xlink:href="#SVGID_59_"  style="overflow:visible;"/>
		</clipPath>
		<line class="st31" x1="152.6" y1="212.4" x2="30.6" y2="87.9"/>
	</g>
	<g>
		<defs>
			<path id="SVGID_61_" d="M32.9,221.2c-35.6-35.6-35.6-93.4,0-129c35.6-35.6,93.4-35.6,129,0L32.9,221.2z"/>
		</defs>
		<clipPath id="SVGID_62_">
			<use xlink:href="#SVGID_61_"  style="overflow:visible;"/>
		</clipPath>
		<path class="st32" d="M139.6,221.1c0,0-51.9-32.3-122-124.5"/>
	</g>
	<g>
		<defs>
			<path id="SVGID_63_" d="M32.9,221.2c-35.6-35.6-35.6-93.4,0-129c35.6-35.6,93.4-35.6,129,0L32.9,221.2z"/>
		</defs>
		<clipPath id="SVGID_64_">
			<use xlink:href="#SVGID_63_"  style="overflow:visible;"/>
		</clipPath>
		<path class="st33" d="M162.4,198.8c0,0-31.2-52.5-122-124.5"/>
	</g>
	<g>
		<defs>
			<path id="SVGID_65_" d="M32.9,221.2c-35.6-35.6-35.6-93.4,0-129c35.6-35.6,93.4-35.6,129,0L32.9,221.2z"/>
		</defs>
		<clipPath id="SVGID_66_">
			<use xlink:href="#SVGID_65_"  style="overflow:visible;"/>
		</clipPath>
		<path class="st34" d="M171.8,183.5c0,0-18.4-54.1-122-124.5"/>
	</g>
	<g>
		<defs>
			<path id="SVGID_67_" d="M32.9,221.2c-35.6-35.6-35.6-93.4,0-129c35.6-35.6,93.4-35.6,129,0L32.9,221.2z"/>
		</defs>
		<clipPath id="SVGID_68_">
			<use xlink:href="#SVGID_67_"  style="overflow:visible;"/>
		</clipPath>
		<path class="st35" d="M185,170.6c0,0-18.4-54.1-122-124.5"/>
	</g>
	<g>
		<defs>
			<path id="SVGID_69_" d="M32.9,221.2c-35.6-35.6-35.6-93.4,0-129c35.6-35.6,93.4-35.6,129,0L32.9,221.2z"/>
		</defs>
		<clipPath id="SVGID_70_">
			<use xlink:href="#SVGID_69_"  style="overflow:visible;"/>
		</clipPath>
		<path class="st36" d="M197.8,163c0,0-18.4-54.1-122-124.5"/>
	</g>
	<g>
		<defs>
			<path id="SVGID_71_" d="M32.9,221.2c-35.6-35.6-35.6-93.4,0-129c35.6-35.6,93.4-35.6,129,0L32.9,221.2z"/>
		</defs>
		<clipPath id="SVGID_72_">
			<use xlink:href="#SVGID_71_"  style="overflow:visible;"/>
		</clipPath>
		<path class="st37" d="M121.5,229.4c0,0-53.7-19.5-122-124.5"/>
	</g>
	<g>
		<defs>
			<path id="SVGID_73_" d="M32.9,221.2c-35.6-35.6-35.6-93.4,0-129c35.6-35.6,93.4-35.6,129,0L32.9,221.2z"/>
		</defs>
		<clipPath id="SVGID_74_">
			<use xlink:href="#SVGID_73_"  style="overflow:visible;"/>
		</clipPath>
		<path class="st38" d="M108.3,242.2c0,0-53.7-19.5-122-124.5"/>
	</g>
	<g>
		<defs>
			<path id="SVGID_75_" d="M32.9,221.2c-35.6-35.6-35.6-93.4,0-129c35.6-35.6,93.4-35.6,129,0L32.9,221.2z"/>
		</defs>
		<clipPath id="SVGID_76_">
			<use xlink:href="#SVGID_75_"  style="overflow:visible;"/>
		</clipPath>
		<path class="st39" d="M97.6,255.6c0,0-53.7-19.5-122-124.5"/>
	</g>
</g>
<path class="st40" d="M194.6,67"/>
<path class="st40" d="M175.2,86.8"/>
<path class="st40" d="M310.9,244.8"/>
<path class="st40" d="M155.8,106.6"/>
<path class="st40" d="M216.3,49"/>
<path class="st40" d="M231.9,33"/>
<path class="st40" d="M248,22.8"/>
<path class="st40" d="M265.3,39.8"/>
<path class="st40" d="M281.8,55.8"/>
<path class="st40" d="M263.2,56"/>
<path class="st40" d="M236.8,30.2"/>
<path class="st40" d="M250.5,43.7"/>
<g>
	<g>
		<defs>
			<path id="SVGID_77_" d="M292.8,221.7c35.6-35.6,35.6-93.4,0-129c-35.6-35.6-93.4-35.6-129,0L292.8,221.7z"/>
		</defs>
		<clipPath id="SVGID_78_">
			<use xlink:href="#SVGID_77_"  style="overflow:visible;"/>
		</clipPath>
		<path class="st41" d="M292.4,222.7c35.6-35.6,35.6-93.4,0-129c-35.6-35.6-93.4-35.6-129,0L292.4,222.7z"/>
	</g>
	<g>
		<defs>
			<path id="SVGID_79_" d="M292.8,221.7c35.6-35.6,35.6-93.4,0-129c-35.6-35.6-93.4-35.6-129,0L292.8,221.7z"/>
		</defs>
		<clipPath id="SVGID_80_">
			<use xlink:href="#SVGID_79_"  style="overflow:visible;"/>
		</clipPath>
		<path class="st42" d="M314.9,154.3"/>
	</g>
	<g>
		<defs>
			<path id="SVGID_81_" d="M292.8,221.7c35.6-35.6,35.6-93.4,0-129c-35.6-35.6-93.4-35.6-129,0L292.8,221.7z"/>
		</defs>
		<clipPath id="SVGID_82_">
			<use xlink:href="#SVGID_81_"  style="overflow:visible;"/>
		</clipPath>
		<path class="st43" d="M331.7,192.8"/>
	</g>
	<g>
		<defs>
			<path id="SVGID_83_" d="M292.8,221.7c35.6-35.6,35.6-93.4,0-129c-35.6-35.6-93.4-35.6-129,0L292.8,221.7z"/>
		</defs>
		<clipPath id="SVGID_84_">
			<use xlink:href="#SVGID_83_"  style="overflow:visible;"/>
		</clipPath>
		<path class="st44" d="M349.7,205.2"/>
	</g>
	<g>
		<defs>
			<path id="SVGID_85_" d="M292.8,221.7c35.6-35.6,35.6-93.4,0-129c-35.6-35.6-93.4-35.6-129,0L292.8,221.7z"/>
		</defs>
		<clipPath id="SVGID_86_">
			<use xlink:href="#SVGID_85_"  style="overflow:visible;"/>
		</clipPath>
		<path class="st45" d="M330.2,225"/>
	</g>
	<g>
		<defs>
			<path id="SVGID_87_" d="M292.8,221.7c35.6-35.6,35.6-93.4,0-129c-35.6-35.6-93.4-35.6-129,0L292.8,221.7z"/>
		</defs>
		<clipPath id="SVGID_88_">
			<use xlink:href="#SVGID_87_"  style="overflow:visible;"/>
		</clipPath>
		<path class="st46" d="M297.9,71.6"/>
	</g>
	<g>
		<defs>
			<path id="SVGID_89_" d="M292.8,221.7c35.6-35.6,35.6-93.4,0-129c-35.6-35.6-93.4-35.6-129,0L292.8,221.7z"/>
		</defs>
		<clipPath id="SVGID_90_">
			<use xlink:href="#SVGID_89_"  style="overflow:visible;"/>
		</clipPath>
		<path class="st47" d="M316.3,89.7"/>
	</g>
	<g>
		<defs>
			<path id="SVGID_91_" d="M292.8,221.7c35.6-35.6,35.6-93.4,0-129c-35.6-35.6-93.4-35.6-129,0L292.8,221.7z"/>
		</defs>
		<clipPath id="SVGID_92_">
			<use xlink:href="#SVGID_91_"  style="overflow:visible;"/>
		</clipPath>
		<path class="st48" d="M307.8,99.7"/>
	</g>
	<g>
		<defs>
			<path id="SVGID_93_" d="M292.8,221.7c35.6-35.6,35.6-93.4,0-129c-35.6-35.6-93.4-35.6-129,0L292.8,221.7z"/>
		</defs>
		<clipPath id="SVGID_94_">
			<use xlink:href="#SVGID_93_"  style="overflow:visible;"/>
		</clipPath>
		<path class="st49" d="M291.1,83.4"/>
	</g>
	<g>
		<defs>
			<path id="SVGID_95_" d="M292.8,221.7c35.6-35.6,35.6-93.4,0-129c-35.6-35.6-93.4-35.6-129,0L292.8,221.7z"/>
		</defs>
		<clipPath id="SVGID_96_">
			<use xlink:href="#SVGID_95_"  style="overflow:visible;"/>
		</clipPath>
		<path class="st50" d="M277.2,69.8"/>
	</g>
	<g>
		<defs>
			<path id="SVGID_97_" d="M292.8,221.7c35.6-35.6,35.6-93.4,0-129c-35.6-35.6-93.4-35.6-129,0L292.8,221.7z"/>
		</defs>
		<clipPath id="SVGID_98_">
			<use xlink:href="#SVGID_97_"  style="overflow:visible;"/>
		</clipPath>
		<line class="st51" x1="171.1" y1="86.8" x2="299.8" y2="212.8"/>
	</g>
	<g>
		<defs>
			<path id="SVGID_99_" d="M292.8,221.7c35.6-35.6,35.6-93.4,0-129c-35.6-35.6-93.4-35.6-129,0L292.8,221.7z"/>
		</defs>
		<clipPath id="SVGID_100_">
			<use xlink:href="#SVGID_99_"  style="overflow:visible;"/>
		</clipPath>
		<path class="st52" d="M164.5,101.9c0,0,32.3,51.9,124.5,122"/>
	</g>
	<g>
		<defs>
			<path id="SVGID_101_" d="M292.8,221.7c35.6-35.6,35.6-93.4,0-129c-35.6-35.6-93.4-35.6-129,0L292.8,221.7z"/>
		</defs>
		<clipPath id="SVGID_102_">
			<use xlink:href="#SVGID_101_"  style="overflow:visible;"/>
		</clipPath>
		<path class="st53" d="M185.8,78.5c0,0,53.5,31.9,125.5,122.7"/>
	</g>
	<g>
		<defs>
			<path id="SVGID_103_" d="M292.8,221.7c35.6-35.6,35.6-93.4,0-129c-35.6-35.6-93.4-35.6-129,0L292.8,221.7z"/>
		</defs>
		<clipPath id="SVGID_104_">
			<use xlink:href="#SVGID_103_"  style="overflow:visible;"/>
		</clipPath>
		<path class="st54" d="M202.1,69.6c0,0,54.1,18.4,124.5,122"/>
	</g>
	<g>
		<defs>
			<path id="SVGID_105_" d="M292.8,221.7c35.6-35.6,35.6-93.4,0-129c-35.6-35.6-93.4-35.6-129,0L292.8,221.7z"/>
		</defs>
		<clipPath id="SVGID_106_">
			<use xlink:href="#SVGID_105_"  style="overflow:visible;"/>
		</clipPath>
		<path class="st55" d="M215,56.5c0,0,54.1,18.4,124.5,122"/>
	</g>
	<g>
		<defs>
			<path id="SVGID_107_" d="M292.8,221.7c35.6-35.6,35.6-93.4,0-129c-35.6-35.6-93.4-35.6-129,0L292.8,221.7z"/>
		</defs>
		<clipPath id="SVGID_108_">
			<use xlink:href="#SVGID_107_"  style="overflow:visible;"/>
		</clipPath>
		<line class="st56" x1="173.1" y1="213" x2="295.1" y2="88.5"/>
	</g>
	<g>
		<defs>
			<path id="SVGID_109_" d="M292.8,221.7c35.6-35.6,35.6-93.4,0-129c-35.6-35.6-93.4-35.6-129,0L292.8,221.7z"/>
		</defs>
		<clipPath id="SVGID_110_">
			<use xlink:href="#SVGID_109_"  style="overflow:visible;"/>
		</clipPath>
		<path class="st57" d="M186.1,221.7c0,0,51.9-32.3,122-124.5"/>
	</g>
	<g>
		<defs>
			<path id="SVGID_111_" d="M292.8,221.7c35.6-35.6,35.6-93.4,0-129c-35.6-35.6-93.4-35.6-129,0L292.8,221.7z"/>
		</defs>
		<clipPath id="SVGID_112_">
			<use xlink:href="#SVGID_111_"  style="overflow:visible;"/>
		</clipPath>
		<path class="st58" d="M163.3,199.4c0,0,31.2-52.5,122-124.5"/>
	</g>
	<g>
		<defs>
			<path id="SVGID_113_" d="M292.8,221.7c35.6-35.6,35.6-93.4,0-129c-35.6-35.6-93.4-35.6-129,0L292.8,221.7z"/>
		</defs>
		<clipPath id="SVGID_114_">
			<use xlink:href="#SVGID_113_"  style="overflow:visible;"/>
		</clipPath>
		<path class="st59" d="M153.9,184.1c0,0,18.4-54.1,122-124.5"/>
	</g>
	<g>
		<defs>
			<path id="SVGID_115_" d="M292.8,221.7c35.6-35.6,35.6-93.4,0-129c-35.6-35.6-93.4-35.6-129,0L292.8,221.7z"/>
		</defs>
		<clipPath id="SVGID_116_">
			<use xlink:href="#SVGID_115_"  style="overflow:visible;"/>
		</clipPath>
		<path class="st60" d="M140.7,171.2c0,0,18.4-54.1,122-124.5"/>
	</g>
	<g>
		<defs>
			<path id="SVGID_117_" d="M292.8,221.7c35.6-35.6,35.6-93.4,0-129c-35.6-35.6-93.4-35.6-129,0L292.8,221.7z"/>
		</defs>
		<clipPath id="SVGID_118_">
			<use xlink:href="#SVGID_117_"  style="overflow:visible;"/>
		</clipPath>
		<path class="st61" d="M127.2,165c0,0,18.4-54.1,122-124.5"/>
	</g>
	<g>
		<defs>
			<path id="SVGID_119_" d="M292.8,221.7c35.6-35.6,35.6-93.4,0-129c-35.6-35.6-93.4-35.6-129,0L292.8,221.7z"/>
		</defs>
		<clipPath id="SVGID_120_">
			<use xlink:href="#SVGID_119_"  style="overflow:visible;"/>
		</clipPath>
		<path class="st62" d="M204.2,230c0,0,53.7-19.5,122-124.5"/>
	</g>
	<g>
		<defs>
			<path id="SVGID_121_" d="M292.8,221.7c35.6-35.6,35.6-93.4,0-129c-35.6-35.6-93.4-35.6-129,0L292.8,221.7z"/>
		</defs>
		<clipPath id="SVGID_122_">
			<use xlink:href="#SVGID_121_"  style="overflow:visible;"/>
		</clipPath>
		<path class="st63" d="M217.4,242.8c0,0,53.7-19.5,122-124.5"/>
	</g>
	<g>
		<defs>
			<path id="SVGID_123_" d="M292.8,221.7c35.6-35.6,35.6-93.4,0-129c-35.6-35.6-93.4-35.6-129,0L292.8,221.7z"/>
		</defs>
		<clipPath id="SVGID_124_">
			<use xlink:href="#SVGID_123_"  style="overflow:visible;"/>
		</clipPath>
		<path class="st64" d="M228.3,256c0,0,53.7-19.5,122-124.5"/>
	</g>
</g>
<rect x="148.6" y="249.4" transform="matrix(0.7071 -0.7071 0.7071 0.7071 -135.4559 184.4685)" class="st65" width="12.6" height="12.6"/>
<rect x="148.6" y="168.3" transform="matrix(0.7071 -0.7071 0.7071 0.7071 -78.0883 160.703)" class="st65" width="12.6" height="12.6"/>
<rect x="213" y="206.5" transform="matrix(0.7071 -0.7071 0.7071 0.7071 -86.2477 217.4476)" class="st65" width="12.6" height="12.6"/>
<rect x="178.4" y="141.5" transform="matrix(0.7071 -0.7071 0.7071 0.7071 -50.4466 173.9)" class="st65" width="12.6" height="12.6"/>
<circle class="st65" cx="152.9" cy="147.8" r="7.1"/>
<circle class="st65" cx="129.7" cy="222.7" r="7.1"/>
<circle class="st65" cx="235.4" cy="247" r="7.1"/>
<path class="st65" d="M133.9,171.3c0,0-0.5,42.9-41.3,50.6c-40.7,7.7-19.2,31.6-7,27.9"/>
<path class="st65" d="M201.9,278c0,0-55.3-18-23.1-87.6"/>
<path class="st65" d="M199.3,215.5c0,0,11.4-18.5,0-43.5"/>
<path class="st65" d="M132.2,286.1c0,0-11.4-18.5,0-43.5"/>
</svg>
