<?xml version="1.0" encoding="utf-8"?>
<!-- Generator: Adobe Illustrator 16.0.0, SVG Export Plug-In . SVG Version: 6.00 Build 0)  -->
<!DOCTYPE svg PUBLIC "-//W3C//DTD SVG 1.1//EN" "http://www.w3.org/Graphics/SVG/1.1/DTD/svg11.dtd">
<svg version="1.1" id="Layer_1" xmlns="http://www.w3.org/2000/svg" xmlns:xlink="http://www.w3.org/1999/xlink" x="0px" y="0px"
	 width="612px" height="698.965px" viewBox="0 49.107 612 698.965" enable-background="new 0 49.107 612 698.965"
	 xml:space="preserve">
<g>
	<g>
		<path fill="#D86C32" d="M23.942,92.81v644.737h565.582V92.81H23.942z M579.507,727.774H33.715V102.582h546.036v625.192H579.507
			L579.507,727.774z"/>
	</g>
	<g>
		<rect x="28.829" y="183.449" fill="#D86C32" width="555.808" height="9.772"/>
	</g>
	<g enable-background="new    ">
		<g>
			<path fill="#D86C32" d="M242.113,543.564c-25.653,0-52.771-8.308-70.851-21.5l-3.42-2.443l19.057-37.868l4.642,4.153
				c13.682,12.216,30.539,18.812,47.641,18.812c22.477,0,35.914-9.04,35.914-24.188c0-18.812-19.79-22.722-36.158-22.722H206.2
				v-27.117l43.732-41.29h-71.339l-0.245-40.311h131.928v28.584l-50.328,47.642c37.135,3.908,59.368,24.187,59.368,54.48
				C319.315,518.155,288.288,543.564,242.113,543.564z M180.302,516.445c16.369,10.75,39.579,17.347,61.811,17.347
				c41.044,0,67.43-21.011,67.43-53.749c0-24.676-19.057-41.533-50.817-44.709l-21.011-2.198l62.788-59.368v-14.659H188.12
				l0.245,20.522h85.998l-58.391,55.215v13.192h23.209c29.317,0,45.931,11.972,45.931,32.493c0,21.012-17.59,33.96-45.686,33.96
				c-17.59,0-34.937-6.108-49.351-17.348L180.302,516.445z"/>
		</g>
		<g>
			<path fill="#D86C32" d="M436.096,542.098h-45.196v-152.45h-38.113v-40.556h83.311L436.096,542.098L436.096,542.098z
				 M400.671,532.326h25.652V358.865h-63.767v21.011h38.113L400.671,532.326L400.671,532.326z"/>
		</g>
	</g>
	<g>
		<path fill="#D86C32" d="M84.532,36.618"/>
	</g>
	<g>
		<path fill="#D86C32" d="M73.049,118.218"/>
	</g>
	<g>
		<path fill="#D86C32" d="M153.428,92.81c-2.443-20.278-14.903-35.181-30.05-35.181S95.526,72.532,93.083,92.81
			c-0.244,2.443-0.488,5.13-0.488,7.818c0,0.733,0,1.222,0,1.955c0.244,11.727,3.909,22.232,9.772,29.562
			c4.886,6.352,11.238,10.505,18.567,11.238c0.489,0,0.977,0,1.222,0c0.733-1.466,1.222-3.176,1.222-4.886s-0.489-3.42-1.222-4.886
			c-0.489,0-0.978,0-1.222-0.244c-3.665-0.733-7.085-2.932-9.772-6.352c-4.886-5.619-8.062-14.659-8.551-24.675
			c0-0.733,0-1.222,0-1.955c0-2.688,0.244-5.375,0.489-7.818c2.199-14.415,10.505-25.409,20.278-25.409s18.079,10.994,20.278,25.409
			c0.488,2.443,0.488,5.13,0.488,7.818c0,0.733,0,1.221,0,1.955l0,0h9.772l0,0c0-0.733,0-1.222,0-1.955
			C153.916,97.94,153.672,95.252,153.428,92.81z"/>
	</g>
	<g>
		<path fill="#D86C32" d="M123.133,138.496c0,1.71-0.488,3.42-1.221,4.886c-0.245,0.733-0.733,1.466-1.222,2.199
			c-1.955,2.687-5.375,4.397-9.04,4.397c-6.352,0-11.483-5.131-11.483-11.483c0-2.443,0.733-4.642,1.955-6.352
			c1.955-2.932,5.131-4.886,8.551-5.13c0.245,0,0.489,0,0.733,0c3.665,0,6.841,1.71,9.04,4.397c0.489,0.733,0.978,1.466,1.222,2.199
			C122.889,135.075,123.133,136.786,123.133,138.496z"/>
	</g>
	<g>
		<path fill="#D86C32" d="M271.918,92.81c-2.443-20.278-14.903-35.181-30.05-35.181s-27.607,14.903-30.294,35.181
			c-0.245,2.443-0.489,5.13-0.489,7.818c0,0.733,0,1.222,0,1.955c0.489,13.926,5.375,25.897,12.949,33.227
			c4.886,4.886,10.994,7.573,17.59,7.573c1.222,0,2.688,0,3.909-0.488c0.489-1.466,0.978-2.932,0.978-4.398
			c0-1.955-0.489-3.665-1.466-5.375c-1.222,0.244-2.443,0.488-3.42,0.488c-4.153,0-8.062-1.954-11.483-5.375
			c-5.375-5.619-9.039-15.147-9.528-25.653c0-0.733,0-1.222,0-1.955c0-2.688,0.244-5.375,0.488-7.818
			c2.199-14.415,10.75-25.408,20.278-25.408c9.528,0,18.079,10.994,20.278,25.408c0.488,2.443,0.488,5.13,0.488,7.818
			c0,0.733,0,1.222,0,1.955l0,0h9.772l0,0c0-0.733,0-1.222,0-1.955C272.407,97.94,272.163,95.252,271.918,92.81z"/>
	</g>
	<g>
		<path fill="#D86C32" d="M246.754,138.496c0,1.71-0.244,3.176-0.977,4.398c-0.733,1.954-2.199,3.665-3.909,4.886
			c-1.955,1.221-4.153,1.954-6.596,1.954c-6.352,0-11.483-5.13-11.483-11.482c0-0.977,0.245-1.955,0.245-2.688
			c0.733-3.42,3.176-6.108,6.352-7.574c1.466-0.733,3.176-0.977,4.886-0.977c2.443,0,4.642,0.733,6.596,1.955
			c1.466,0.977,2.688,2.443,3.42,3.909C246.266,134.831,246.754,136.541,246.754,138.496z"/>
	</g>
	<g>
		<path fill="#D86C32" d="M400.915,92.81c-2.443-20.278-14.903-35.181-30.051-35.181c-15.146,0-27.606,14.903-30.05,35.181
			c-0.244,2.443-0.488,5.13-0.488,7.818c0,0.733,0,1.222,0,1.955c0.488,13.926,5.374,25.897,12.948,33.227
			c4.886,4.886,10.993,7.573,17.59,7.573c1.222,0,2.688,0,3.909-0.488c0.488-1.466,0.978-2.932,0.978-4.398
			c0-1.955-0.488-3.665-1.466-5.375c-1.222,0.244-2.443,0.488-3.421,0.488c-4.153,0-8.062-1.954-11.482-5.375
			c-5.375-5.619-9.039-15.147-9.528-25.653c0-0.733,0-1.222,0-1.955c0-2.688,0.245-5.375,0.489-7.818
			c2.198-14.415,10.749-25.408,20.277-25.408s18.079,10.994,20.278,25.408c0.487,2.443,0.487,5.13,0.487,7.818
			c0,0.733,0,1.222,0,1.955l0,0h9.772l0,0c0-0.733,0-1.222,0-1.955C401.403,97.94,401.159,95.252,400.915,92.81z"/>
	</g>
	<g>
		<path fill="#D86C32" d="M375.751,138.496c0,1.71-0.244,3.176-0.978,4.398c-0.732,1.954-2.198,3.665-3.909,4.886
			c-1.954,1.221-4.153,1.954-6.597,1.954c-6.353,0-11.482-5.13-11.482-11.482c0-0.977,0-1.955,0.245-2.688
			c0.731-3.42,3.176-6.108,6.352-7.574c1.466-0.733,3.177-0.977,4.887-0.977c2.442,0,4.643,0.733,6.597,1.955
			c1.467,0.977,2.688,2.443,3.421,3.909C375.263,134.831,375.751,136.541,375.751,138.496z"/>
	</g>
	<g>
		<path fill="#D86C32" d="M519.895,92.81c-2.442-20.278-14.902-35.181-30.05-35.181c-15.146,0-27.606,14.903-30.051,35.181
			c-0.244,2.443-0.488,5.13-0.488,7.818c0,0.733,0,1.222,0,1.955c0.488,13.926,5.375,25.897,12.948,33.227
			c4.887,4.886,10.994,7.573,17.591,7.573l0,0c1.222,0,2.688,0,3.908-0.488c0.733-1.466,0.979-2.932,0.979-4.398
			c0-1.955-0.488-3.665-1.467-5.375c-1.222,0.244-2.442,0.488-3.42,0.488l0,0c-4.152,0-8.062-1.954-11.237-5.375
			c-5.375-5.619-9.04-15.147-9.528-25.653c0-0.733,0-1.222,0-1.955c0-2.688,0.244-5.375,0.488-7.818
			c2.198-14.415,10.75-25.408,20.277-25.408s18.079,10.994,20.277,25.408c0.488,2.443,0.488,5.13,0.488,7.818
			c0,0.733,0,1.222,0,1.955l0,0h9.771l0,0c0-0.733,0-1.222,0-1.955C520.383,97.94,520.139,95.252,519.895,92.81z"/>
	</g>
	<g>
		<path fill="#D86C32" d="M494.73,138.496c0,1.71-0.244,3.176-0.979,4.398c-0.732,1.954-2.198,3.665-3.908,4.886
			c-1.955,1.221-4.152,1.954-6.597,1.954c-6.354,0-11.482-5.13-11.482-11.482c0-0.977,0.244-1.955,0.244-2.688
			c0.732-3.42,3.176-6.108,6.353-7.574c1.466-0.733,3.177-0.977,4.887-0.977c2.443,0,4.642,0.733,6.597,1.955
			c1.466,0.977,2.688,2.443,3.42,3.909C494.242,134.831,494.73,136.541,494.73,138.496z"/>
	</g>
</g>
</svg>
